<?xml version="1.0" encoding="utf-8"?>
<!-- Generator: Adobe Illustrator 23.0.1, SVG Export Plug-In . SVG Version: 6.00 Build 0)  -->
<svg version="1.1" id="Layer_1" xmlns="http://www.w3.org/2000/svg" xmlns:xlink="http://www.w3.org/1999/xlink" x="0px" y="0px"
	 viewBox="0 0 2569.8 1371.6" style="enable-background:new 0 0 2569.8 1371.6;" xml:space="preserve">
<style type="text/css">
	.st0{enable-background:new    ;}
	.st1{fill:#1B75BC;}
</style>
<title>5Asset 12</title>
<g>
	<g id="Layer_1-2">
		<g id="Layer_1-2-2">
			<g class="st0">
				<path class="st1" d="M586.7,111.3c10.5,2.4,18.3,6.8,23.5,13.1c5.2,6.3,7.8,13.6,7.8,21.8c0,27.4-19.2,41.6-57.6,42.4v17.4
					h-15.7v-17.4h-47.6v-146h47.6V25.3h15.7v17.7c15.9,0.7,28.2,4.4,36.8,11c8.7,6.6,13,15.3,13,26
					C610.2,94.1,602.4,104.5,586.7,111.3z M544.7,103.9V60.2h-26.1v43.7H544.7z M544.7,171.2v-50.1h-26.1v50.1H544.7z M560.4,103.7
					c19.2-0.9,28.8-8.2,28.8-22c0-13.3-9.6-20.4-28.8-21.3V103.7z M560.4,171.2c23.7-0.4,35.5-8.8,35.5-25c0-8.5-2.8-14.7-8.3-18.6
					c-5.6-3.9-14.6-6.1-27.2-6.5V171.2z"/>
			</g>
		</g>
		<g id="Layer_1-2-3">
			<g class="st0">
				<path class="st1" d="M284.9,202.9v-21.1c-15.2-0.4-30.5-4.4-39.2-9.6l6.5-20.5c9.4,5,23,9.6,37.7,9.6c15.2,0,25.6-6.8,25.6-17.2
					c0-9.8-8.5-16.1-26.4-22c-25.4-8.3-41.8-18.7-41.8-39c0-18.7,14.5-33.1,38.9-37V24.6h19.8v20.3c15.2,0.4,25.6,3.7,33.4,7.2
					l-6.5,20c-5.8-2.4-16.4-7.4-32.9-7.4c-16.9,0-23,7.8-23,15.3c0,8.9,8.7,13.9,29.3,21.4c27.1,9.2,39.2,20.9,39.2,40.3
					c0,18.5-14.3,34.9-40.9,38.8v22.4H284.9z"/>
			</g>
		</g>
		<g id="Layer_1-2-4">
			<g class="st0">
				<path class="st1" d="M1357.2,163.9v22h-104.6v-22H1357.2z M1354.6,39v21.8h-99.4V39H1354.6z M1347.4,99.4v21.8h-85.2V99.4
					H1347.4z"/>
			</g>
		</g>
		<g id="Layer_1-2-5">
			<g class="st0">
				<path class="st1" d="M1119.6,181.3c-8,4.4-21.5,8.7-37,8.7c-22,0-41.8-7.8-54.7-22.4c-7.7-8.1-13.1-19-15.2-32.5h-15.5v-13.3
					h13.5c0-1.1,0-2.4,0-3.5c0-2.6,0.2-5.4,0.5-7.8h-14V97h16.2c2.9-13.3,9.4-24.6,18.1-32.9c13.1-13.1,30.7-20.5,52.2-20.5
					c14.5,0,26.6,3.3,34.6,6.8l-6,20.3c-6.3-3.1-16.2-5.9-27.1-5.9c-12.1,0-22.7,3.9-30.7,12c-5.1,4.8-8.7,12-10.6,20.3h63.4v13.5
					H1041c-0.5,2.4-0.5,5-0.5,7.6c0,1.3,0,2.4,0,3.7h66.8v13.3h-64.1c1.7,9.4,5.3,16.3,10.4,21.4c8.2,8.1,19.8,11.8,32.4,11.8
					c11.9,0,23-3.7,28.5-6.5L1119.6,181.3z"/>
			</g>
		</g>
		<g id="Layer_1-2-6">
			<g class="st0">
				<path class="st1" d="M1740.2,185.9v-54.7l-17.2,12.2v-19.2l17.2-12.2V39h26.8v54.9l28.3-19.6v19.4l-28.3,19.6v50.1h60.4v22.4
					H1740.2z"/>
			</g>
		</g>
		<g id="Layer_1-2-7">
			<g class="st0">
				<path class="st1" d="M1496.8,182.4v-14.6c14.5-6.1,27.3-19.2,27.3-34.6c0-4.1-0.2-7.6-1-11.8H1499v-18.5h20.8
					c-1.2-6.1-2.4-13.3-2.4-20.3c0-26.8,21-44.2,51-44.2c13.1,0,22.3,2.6,27.6,5.4l-5.3,20.3c-4.6-2.4-11.6-4.4-21-4.4
					c-17.9,0-24.4,10.9-24.4,23.5c0,7.4,1.2,13.3,2.7,19.6h33.9v18.5h-31.2c0.2,6.8,0.2,13.3-1.7,19.4c-2.4,7.4-7.3,13.7-14,19.2
					v0.4h68v22H1496.8z"/>
			</g>
		</g>
		<g id="Layer_1-2-8">
			<g class="st0">
				<path class="st1" d="M842.1,93.5c-3.1,21.8-22.3,35.1-49.3,36.4c17.4,16.3,37.5,37.9,56.8,59.5h-32.2
					c-16.2-17.6-34.6-37.5-55.4-57.5v-18.3h14.3c23,0,35.1-8.1,37.5-20H762V80.2h50.8c-3.6-9.8-14.5-15.5-33.1-15.5H762v-19h107.1
					v13.3h-38.7c6,5,10.2,12,11.6,21.1h27.3v13.3H842.1z"/>
			</g>
		</g>
		<g id="Layer_1-2-9">
			<g class="st0">
				<path class="st1" d="M1979.9,189.4V153h-37.7v-13.3h37.7v-14.8h-37.7v-13.3h30.2l-40.1-63.8h32.2l20.3,39.4
					c4.4,8.1,7,14.8,10.2,21.8h0.5c2.9-6.5,6-14.2,10.2-22.2l21-39h31.4l-42.3,63.8h30v13.3h-38v14.8h38V153h-38v36.4H1979.9z"/>
			</g>
		</g>
		<g id="Layer_1-2-10">
			<g class="st0">
				<path class="st1" d="M713.7,346.3c10.5,2.4,18.3,6.8,23.5,13.1c5.2,6.3,7.8,13.6,7.8,21.8c0,27.4-19.2,41.6-57.6,42.4v17.4
					h-15.7v-17.4h-47.6v-146h47.6v-17.4h15.7v17.7c15.9,0.7,28.2,4.4,36.8,11c8.7,6.6,13,15.3,13,26
					C737.2,329.1,729.4,339.5,713.7,346.3z M671.7,338.9v-43.7h-26.1v43.7H671.7z M671.7,406.2v-50.1h-26.1v50.1H671.7z
					 M687.4,338.7c19.2-0.9,28.8-8.2,28.8-22c0-13.3-9.6-20.4-28.8-21.3V338.7z M687.4,406.2c23.7-0.4,35.5-8.8,35.5-25
					c0-8.5-2.8-14.7-8.3-18.6c-5.6-3.9-14.6-6.1-27.2-6.5V406.2z"/>
			</g>
		</g>
		<g id="Layer_1-2-11">
			<g class="st0">
				<path class="st1" d="M411.9,437.9v-21.1c-15.2-0.4-30.5-4.4-39.2-9.6l6.5-20.5c9.4,5,23,9.6,37.7,9.6c15.2,0,25.6-6.8,25.6-17.2
					c0-9.8-8.5-16.1-26.4-22c-25.4-8.3-41.8-18.7-41.8-39c0-18.7,14.5-33.1,38.9-37v-21.4h19.8v20.3c15.2,0.4,25.6,3.7,33.4,7.2
					l-6.5,20c-5.8-2.4-16.4-7.4-32.9-7.4c-16.9,0-23,7.8-23,15.3c0,8.9,8.7,13.9,29.3,21.4c27.1,9.2,39.2,20.9,39.2,40.3
					c0,18.5-14.3,34.9-40.9,38.8v22.4H411.9z"/>
			</g>
		</g>
		<g id="Layer_1-2-12">
			<g class="st0">
				<path class="st1" d="M1484.2,398.9v22h-104.6v-22H1484.2z M1481.6,274v21.8h-99.4V274H1481.6z M1474.4,334.4v21.8h-85.2v-21.8
					H1474.4z"/>
			</g>
		</g>
		<g id="Layer_1-2-13">
			<g class="st0">
				<path class="st1" d="M1246.6,416.3c-8,4.4-21.5,8.7-37,8.7c-22,0-41.8-7.8-54.7-22.4c-7.7-8.1-13.1-19-15.2-32.5h-15.5v-13.3
					h13.5c0-1.1,0-2.4,0-3.5c0-2.6,0.2-5.4,0.5-7.8h-14V332h16.2c2.9-13.3,9.4-24.6,18.1-32.9c13.1-13.1,30.7-20.5,52.2-20.5
					c14.5,0,26.6,3.3,34.6,6.8l-6,20.3c-6.3-3.1-16.2-5.9-27.1-5.9c-12.1,0-22.7,3.9-30.7,12c-5.1,4.8-8.7,12-10.6,20.3h63.4v13.5
					H1168c-0.5,2.4-0.5,5-0.5,7.6c0,1.3,0,2.4,0,3.7h66.8v13.3h-64.1c1.7,9.4,5.3,16.3,10.4,21.4c8.2,8.1,19.8,11.8,32.4,11.8
					c11.9,0,23-3.7,28.5-6.5L1246.6,416.3z"/>
			</g>
		</g>
		<g id="Layer_1-2-14">
			<g class="st0">
				<path class="st1" d="M1867.2,420.9v-54.7l-17.2,12.2v-19.2l17.2-12.2v-73h26.8v54.9l28.3-19.6v19.4l-28.3,19.6v50.1h60.4v22.4
					H1867.2z"/>
			</g>
		</g>
		<g id="Layer_1-2-15">
			<g class="st0">
				<path class="st1" d="M1623.8,417.4v-14.6c14.5-6.1,27.3-19.2,27.3-34.6c0-4.1-0.2-7.6-1-11.8H1626v-18.5h20.8
					c-1.2-6.1-2.4-13.3-2.4-20.3c0-26.8,21-44.2,51-44.2c13.1,0,22.3,2.6,27.6,5.4l-5.3,20.3c-4.6-2.4-11.6-4.4-21-4.4
					c-17.9,0-24.4,10.9-24.4,23.5c0,7.4,1.2,13.3,2.7,19.6h33.9v18.5h-31.2c0.2,6.8,0.2,13.3-1.7,19.4c-2.4,7.4-7.3,13.7-14,19.2
					v0.4h68v22H1623.8z"/>
			</g>
		</g>
		<g id="Layer_1-2-16">
			<g class="st0">
				<path class="st1" d="M969.1,328.5c-3.1,21.8-22.3,35.1-49.3,36.4c17.4,16.3,37.5,37.9,56.8,59.5h-32.2
					c-16.2-17.6-34.6-37.5-55.4-57.5v-18.3h14.3c23,0,35.1-8.1,37.5-20H889v-13.3h50.8c-3.6-9.8-14.5-15.5-33.1-15.5H889v-19h107.1
					v13.3h-38.7c6,5,10.2,12,11.6,21.1h27.3v13.3H969.1z"/>
			</g>
		</g>
		<g id="Layer_1-2-17">
			<g class="st0">
				<path class="st1" d="M2106.9,424.4V388h-37.7v-13.3h37.7v-14.8h-37.7v-13.3h30.2l-40.1-63.8h32.2l20.3,39.4
					c4.4,8.1,7,14.8,10.2,21.8h0.5c2.9-6.5,6-14.2,10.2-22.2l21-39h31.4l-42.3,63.8h30v13.3h-38v14.8h38V388h-38v36.4H2106.9z"/>
			</g>
		</g>
		<g id="Layer_1-2-18">
			<g class="st0">
				<path class="st1" d="M170.9,424.4V388h-37.7v-13.3h37.7v-14.8h-37.7v-13.3h30.2l-40.1-63.8h32.2l20.3,39.4
					c4.4,8.1,7,14.8,10.2,21.8h0.5c2.9-6.5,6-14.2,10.2-22.2l21-39H249l-42.3,63.8h30v13.3h-38v14.8h38V388h-38v36.4H170.9z"/>
			</g>
		</g>
		<g id="Layer_1-2-19">
			<g class="st0">
				<path class="st1" d="M837.7,571.3c10.5,2.4,18.3,6.8,23.5,13.1c5.2,6.3,7.8,13.6,7.8,21.8c0,27.4-19.2,41.6-57.6,42.4v17.4
					h-15.7v-17.4h-47.6v-146h47.6v-17.4h15.7v17.7c15.9,0.7,28.2,4.4,36.8,11c8.7,6.6,13,15.3,13,26
					C861.2,554.1,853.4,564.5,837.7,571.3z M795.7,563.9v-43.7h-26.1v43.7H795.7z M795.7,631.2v-50.1h-26.1v50.1H795.7z
					 M811.4,563.7c19.2-0.9,28.8-8.2,28.8-22c0-13.3-9.6-20.4-28.8-21.3V563.7z M811.4,631.2c23.7-0.4,35.5-8.8,35.5-25
					c0-8.5-2.8-14.7-8.3-18.6c-5.6-3.9-14.6-6.1-27.2-6.5V631.2z"/>
			</g>
		</g>
		<g id="Layer_1-2-20">
			<g class="st0">
				<path class="st1" d="M535.9,662.9v-21.1c-15.2-0.4-30.5-4.4-39.2-9.6l6.5-20.5c9.4,5,23,9.6,37.7,9.6c15.2,0,25.6-6.8,25.6-17.2
					c0-9.8-8.5-16.1-26.4-22c-25.4-8.3-41.8-18.7-41.8-39c0-18.7,14.5-33.1,38.9-37v-21.4h19.8v20.3c15.2,0.4,25.6,3.7,33.4,7.2
					l-6.5,20c-5.8-2.4-16.4-7.4-32.9-7.4c-16.9,0-23,7.8-23,15.3c0,8.9,8.7,13.9,29.3,21.4c27.1,9.2,39.2,20.9,39.2,40.3
					c0,18.5-14.3,34.9-40.9,38.8v22.4H535.9z"/>
			</g>
		</g>
		<g id="Layer_1-2-21">
			<g class="st0">
				<path class="st1" d="M1608.2,623.9v22h-104.6v-22H1608.2z M1605.6,499v21.8h-99.4V499H1605.6z M1598.4,559.4v21.8h-85.2v-21.8
					H1598.4z"/>
			</g>
		</g>
		<g id="Layer_1-2-22">
			<g class="st0">
				<path class="st1" d="M1370.6,641.3c-8,4.4-21.5,8.7-37,8.7c-22,0-41.8-7.8-54.7-22.4c-7.7-8.1-13.1-19-15.2-32.5h-15.5v-13.3
					h13.5c0-1.1,0-2.4,0-3.5c0-2.6,0.2-5.4,0.5-7.8h-14V557h16.2c2.9-13.3,9.4-24.6,18.1-32.9c13.1-13.1,30.7-20.5,52.2-20.5
					c14.5,0,26.6,3.3,34.6,6.8l-6,20.3c-6.3-3.1-16.2-5.9-27.1-5.9c-12.1,0-22.7,3.9-30.7,12c-5.1,4.8-8.7,12-10.6,20.3h63.4v13.5
					H1292c-0.5,2.4-0.5,5-0.5,7.6c0,1.3,0,2.4,0,3.7h66.8v13.3h-64.1c1.7,9.4,5.3,16.3,10.4,21.4c8.2,8.1,19.8,11.8,32.4,11.8
					c11.9,0,23-3.7,28.5-6.5L1370.6,641.3z"/>
			</g>
		</g>
		<g id="Layer_1-2-23">
			<g class="st0">
				<path class="st1" d="M1991.2,645.9v-54.7l-17.2,12.2v-19.2l17.2-12.2v-73h26.8v54.9l28.3-19.6v19.4l-28.3,19.6v50.1h60.4v22.4
					H1991.2z"/>
			</g>
		</g>
		<g id="Layer_1-2-24">
			<g class="st0">
				<path class="st1" d="M1747.8,642.4v-14.6c14.5-6.1,27.3-19.2,27.3-34.6c0-4.1-0.2-7.6-1-11.8H1750v-18.5h20.8
					c-1.2-6.1-2.4-13.3-2.4-20.3c0-26.8,21-44.2,51-44.2c13.1,0,22.3,2.6,27.6,5.4l-5.3,20.3c-4.6-2.4-11.6-4.4-21-4.4
					c-17.9,0-24.4,10.9-24.4,23.5c0,7.4,1.2,13.3,2.7,19.6h33.9v18.5h-31.2c0.2,6.8,0.2,13.3-1.7,19.4c-2.4,7.4-7.3,13.7-14,19.2
					v0.4h68v22H1747.8z"/>
			</g>
		</g>
		<g id="Layer_1-2-25">
			<g class="st0">
				<path class="st1" d="M1093.1,553.5c-3.1,21.8-22.3,35.1-49.3,36.4c17.4,16.3,37.5,37.9,56.8,59.5h-32.2
					c-16.2-17.6-34.6-37.5-55.4-57.5v-18.3h14.3c23,0,35.1-8.1,37.5-20H1013v-13.3h50.8c-3.6-9.8-14.5-15.5-33.1-15.5H1013v-19
					h107.1v13.3h-38.7c6,5,10.2,12,11.6,21.1h27.3v13.3H1093.1z"/>
			</g>
		</g>
		<g id="Layer_1-2-26">
			<g class="st0">
				<path class="st1" d="M2230.9,649.4V613h-37.7v-13.3h37.7v-14.8h-37.7v-13.3h30.2l-40.1-63.8h32.2l20.3,39.4
					c4.4,8.1,7,14.8,10.2,21.8h0.5c2.9-6.5,6-14.2,10.2-22.2l21-39h31.4l-42.3,63.8h30v13.3h-38v14.8h38V613h-38v36.4H2230.9z"/>
			</g>
		</g>
		<g id="Layer_1-2-27">
			<g class="st0">
				<path class="st1" d="M964.7,806.3c10.5,2.4,18.3,6.8,23.5,13.1c5.2,6.3,7.8,13.6,7.8,21.8c0,27.4-19.2,41.6-57.6,42.4v17.4
					h-15.7v-17.4h-47.6v-146h47.6v-17.4h15.7v17.7c15.9,0.7,28.2,4.4,36.8,11c8.7,6.6,13,15.3,13,26
					C988.2,789.1,980.4,799.5,964.7,806.3z M922.7,798.9v-43.7h-26.1v43.7H922.7z M922.7,866.2v-50.1h-26.1v50.1H922.7z
					 M938.4,798.7c19.2-0.9,28.8-8.2,28.8-22c0-13.3-9.6-20.4-28.8-21.3V798.7z M938.4,866.2c23.7-0.4,35.5-8.8,35.5-25
					c0-8.5-2.8-14.7-8.3-18.6c-5.6-3.9-14.6-6.1-27.2-6.5V866.2z"/>
			</g>
		</g>
		<g id="Layer_1-2-28">
			<g class="st0">
				<path class="st1" d="M662.9,897.9v-21.1c-15.2-0.4-30.5-4.4-39.2-9.6l6.5-20.5c9.4,5,23,9.6,37.7,9.6c15.2,0,25.6-6.8,25.6-17.2
					c0-9.8-8.5-16.1-26.4-22c-25.4-8.3-41.8-18.7-41.8-39c0-18.7,14.5-33.1,38.9-37v-21.4h19.8v20.3c15.2,0.4,25.6,3.7,33.4,7.2
					l-6.5,20c-5.8-2.4-16.4-7.4-32.9-7.4c-16.9,0-23,7.8-23,15.3c0,8.9,8.7,13.9,29.3,21.4c27.1,9.2,39.2,20.9,39.2,40.3
					c0,18.5-14.3,34.9-40.9,38.8v22.4H662.9z"/>
			</g>
		</g>
		<g id="Layer_1-2-29">
			<g class="st0">
				<path class="st1" d="M1735.2,858.9v22h-104.6v-22H1735.2z M1732.6,734v21.8h-99.4V734H1732.6z M1725.4,794.4v21.8h-85.2v-21.8
					H1725.4z"/>
			</g>
		</g>
		<g id="Layer_1-2-30">
			<g class="st0">
				<path class="st1" d="M1497.6,876.3c-8,4.4-21.5,8.7-37,8.7c-22,0-41.8-7.8-54.7-22.4c-7.7-8.1-13.1-19-15.2-32.5h-15.5v-13.3
					h13.5c0-1.1,0-2.4,0-3.5c0-2.6,0.2-5.4,0.5-7.8h-14V792h16.2c2.9-13.3,9.4-24.6,18.1-32.9c13.1-13.1,30.7-20.5,52.2-20.5
					c14.5,0,26.6,3.3,34.6,6.8l-6,20.3c-6.3-3.1-16.2-5.9-27.1-5.9c-12.1,0-22.7,3.9-30.7,12c-5.1,4.8-8.7,12-10.6,20.3h63.4v13.5
					H1419c-0.5,2.4-0.5,5-0.5,7.6c0,1.3,0,2.4,0,3.7h66.8v13.3h-64.1c1.7,9.4,5.3,16.3,10.4,21.4c8.2,8.1,19.8,11.8,32.4,11.8
					c11.9,0,23-3.7,28.5-6.5L1497.6,876.3z"/>
			</g>
		</g>
		<g id="Layer_1-2-31">
			<g class="st0">
				<path class="st1" d="M2118.2,880.9v-54.7l-17.2,12.2v-19.2l17.2-12.2v-73h26.8v54.9l28.3-19.6v19.4l-28.3,19.6v50.1h60.4v22.4
					H2118.2z"/>
			</g>
		</g>
		<g id="Layer_1-2-32">
			<g class="st0">
				<path class="st1" d="M1874.8,877.4v-14.6c14.5-6.1,27.3-19.2,27.3-34.6c0-4.1-0.2-7.6-1-11.8H1877v-18.5h20.8
					c-1.2-6.1-2.4-13.3-2.4-20.3c0-26.8,21-44.2,51-44.2c13.1,0,22.3,2.6,27.6,5.4l-5.3,20.3c-4.6-2.4-11.6-4.4-21-4.4
					c-17.9,0-24.4,10.9-24.4,23.5c0,7.4,1.2,13.3,2.7,19.6h33.9v18.5h-31.2c0.2,6.8,0.2,13.3-1.7,19.4c-2.4,7.4-7.3,13.7-14,19.2
					v0.4h68v22H1874.8z"/>
			</g>
		</g>
		<g id="Layer_1-2-33">
			<g class="st0">
				<path class="st1" d="M1220.1,788.5c-3.1,21.8-22.3,35.1-49.3,36.4c17.4,16.3,37.5,37.9,56.8,59.5h-32.2
					c-16.2-17.6-34.6-37.5-55.4-57.5v-18.3h14.3c23,0,35.1-8.1,37.5-20H1140v-13.3h50.8c-3.6-9.8-14.5-15.5-33.1-15.5H1140v-19
					h107.1v13.3h-38.7c6,5,10.2,12,11.6,21.1h27.3v13.3H1220.1z"/>
			</g>
		</g>
		<g id="Layer_1-2-34">
			<g class="st0">
				<path class="st1" d="M421.9,884.4V848h-37.7v-13.3h37.7v-14.8h-37.7v-13.3h30.2l-40.1-63.8h32.2l20.3,39.4
					c4.4,8.1,7,14.8,10.2,21.8h0.5c2.9-6.5,6-14.2,10.2-22.2l21-39H500l-42.3,63.8h30v13.3h-38v14.8h38V848h-38v36.4H421.9z"/>
			</g>
		</g>
		<g id="Layer_1-2-35">
			<g class="st0">
				<path class="st1" d="M298.9,648.4V612h-37.7v-13.3h37.7v-14.8h-37.7v-13.3h30.2l-40.1-63.8h32.2l20.3,39.4
					c4.4,8.1,7,14.8,10.2,21.8h0.5c2.9-6.5,6-14.2,10.2-22.2l21-39H377l-42.3,63.8h30v13.3h-38v14.8h38V612h-38v36.4H298.9z"/>
			</g>
		</g>
		<g id="Layer_1-2-36">
			<g class="st0">
				<path class="st1" d="M166.2,884.9v-54.7L149,842.4v-19.2l17.2-12.2v-73H193v54.9l28.3-19.6v19.4L193,812.3v50.1h60.4v22.4H166.2
					z"/>
			</g>
		</g>
		<g id="Layer_1-2-37">
			<g class="st0">
				<path class="st1" d="M2234.9,207.9v-21.1c-15.2-0.4-30.5-4.4-39.2-9.6l6.5-20.5c9.4,5,23,9.6,37.7,9.6
					c15.2,0,25.6-6.8,25.6-17.2c0-9.8-8.5-16.1-26.4-22c-25.4-8.3-41.8-18.7-41.8-39c0-18.7,14.5-33.1,38.9-37V29.6h19.8v20.3
					c15.2,0.4,25.6,3.7,33.4,7.2l-6.5,20c-5.8-2.4-16.4-7.4-32.9-7.4c-16.9,0-23,7.8-23,15.3c0,8.9,8.7,13.9,29.3,21.4
					c27.1,9.2,39.2,20.9,39.2,40.3c0,18.5-14.3,34.9-40.9,38.8v22.4H2234.9z"/>
			</g>
		</g>
		<g id="Layer_1-2-38">
			<g class="st0">
				<path class="st1" d="M49.9,185.4V149H12.2v-13.3h37.7v-14.8H12.2v-13.3h30.2L2.2,43.8h32.2l20.3,39.4c4.4,8.1,7,14.8,10.2,21.8
					h0.5c2.9-6.5,6-14.2,10.2-22.2l21-39H128l-42.3,63.8h30v13.3h-38v14.8h38V149h-38v36.4H49.9z"/>
			</g>
		</g>
		<g id="Layer_1-2-39">
			<g class="st0">
				<path class="st1" d="M28.2,649.9v-54.7L11,607.4v-19.2L28.2,576v-73H55v54.9l28.3-19.6v19.4L55,577.3v50.1h60.4v22.4H28.2z"/>
			</g>
		</g>
		<g id="Layer_1-2-40">
			<g class="st0">
				<path class="st1" d="M2343.9,437.9v-21.1c-15.2-0.4-30.5-4.4-39.2-9.6l6.5-20.5c9.4,5,23,9.6,37.7,9.6
					c15.2,0,25.6-6.8,25.6-17.2c0-9.8-8.5-16.1-26.4-22c-25.4-8.3-41.8-18.7-41.8-39c0-18.7,14.5-33.1,38.9-37v-21.4h19.8v20.3
					c15.2,0.4,25.6,3.7,33.4,7.2l-6.5,20c-5.8-2.4-16.4-7.4-32.9-7.4c-16.9,0-23,7.8-23,15.3c0,8.9,8.7,13.9,29.3,21.4
					c27.1,9.2,39.2,20.9,39.2,40.3c0,18.5-14.3,34.9-40.9,38.8v22.4H2343.9z"/>
			</g>
		</g>
		<g id="Layer_1-2-41">
			<g class="st0">
				<path class="st1" d="M2344.9,878.4V842h-37.7v-13.3h37.7v-14.8h-37.7v-13.3h30.2l-40.1-63.8h32.2l20.3,39.4
					c4.4,8.1,7,14.8,10.2,21.8h0.5c2.9-6.5,6-14.2,10.2-22.2l21-39h31.4l-42.3,63.8h30v13.3h-38v14.8h38V842h-38v36.4H2344.9z"/>
			</g>
		</g>
		<g id="Layer_1-2-42">
			<g class="st0">
				<path class="st1" d="M2526.7,119.3c10.5,2.4,18.3,6.8,23.5,13.1c5.2,6.3,7.8,13.6,7.8,21.8c0,27.4-19.2,41.6-57.6,42.4v17.4
					h-15.7v-17.4h-47.6v-146h47.6V33.3h15.7v17.7c15.9,0.7,28.2,4.4,36.8,11c8.7,6.6,13,15.3,13,26
					C2550.2,102.1,2542.4,112.5,2526.7,119.3z M2484.7,111.9V68.2h-26.1v43.7H2484.7z M2484.7,179.2v-50.1h-26.1v50.1H2484.7z
					 M2500.4,111.7c19.2-0.9,28.8-8.2,28.8-22c0-13.3-9.6-20.4-28.8-21.3V111.7z M2500.4,179.2c23.7-0.4,35.5-8.8,35.5-25
					c0-8.5-2.8-14.7-8.3-18.6c-5.5-3.9-14.6-6.1-27.2-6.5V179.2z"/>
			</g>
		</g>
		<g id="Layer_1-2-43">
			<g class="st0">
				<path class="st1" d="M2469.9,660.9v-21.1c-15.2-0.4-30.5-4.4-39.2-9.6l6.5-20.5c9.4,5,23,9.6,37.7,9.6
					c15.2,0,25.6-6.8,25.6-17.2c0-9.8-8.5-16.1-26.4-22c-25.4-8.3-41.8-18.7-41.8-39c0-18.7,14.5-33.1,38.9-37v-21.4h19.8v20.3
					c15.2,0.4,25.6,3.7,33.4,7.2l-6.5,20c-5.8-2.4-16.4-7.4-32.9-7.4c-16.9,0-23,7.8-23,15.3c0,8.9,8.7,13.9,29.3,21.4
					c27.1,9.2,39.2,20.9,39.2,40.3c0,18.5-14.3,34.9-40.9,38.8v22.4H2469.9z"/>
			</g>
		</g>
		<g id="Layer_1-2-44">
			<g class="st0">
				<path class="st1" d="M1090.7,1018.3c10.5,2.4,18.3,6.8,23.5,13.1c5.2,6.3,7.8,13.6,7.8,21.8c0,27.4-19.2,41.6-57.6,42.4v17.4
					h-15.7v-17.4h-47.6v-146h47.6v-17.4h15.7v17.7c15.9,0.7,28.2,4.4,36.8,11c8.7,6.6,13,15.3,13,26
					C1114.2,1001.1,1106.4,1011.5,1090.7,1018.3z M1048.7,1010.9v-43.7h-26.1v43.7H1048.7z M1048.7,1078.2v-50.1h-26.1v50.1H1048.7z
					 M1064.4,1010.7c19.2-0.9,28.8-8.2,28.8-22c0-13.3-9.6-20.4-28.8-21.3V1010.7z M1064.4,1078.2c23.7-0.4,35.5-8.8,35.5-25
					c0-8.5-2.8-14.7-8.3-18.6c-5.6-3.9-14.6-6.1-27.2-6.5V1078.2z"/>
			</g>
		</g>
		<g id="Layer_1-2-45">
			<g class="st0">
				<path class="st1" d="M788.9,1109.9v-21.1c-15.2-0.4-30.5-4.4-39.2-9.6l6.5-20.5c9.4,5,23,9.6,37.7,9.6
					c15.2,0,25.6-6.8,25.6-17.2c0-9.8-8.5-16.1-26.4-22c-25.4-8.3-41.8-18.7-41.8-39c0-18.7,14.5-33.1,38.9-37v-21.4h19.8v20.3
					c15.2,0.4,25.6,3.7,33.4,7.2l-6.5,20c-5.8-2.4-16.4-7.4-32.9-7.4c-16.9,0-23,7.8-23,15.3c0,8.9,8.7,13.9,29.3,21.4
					c27.1,9.2,39.2,20.9,39.2,40.3c0,18.5-14.3,34.9-40.9,38.8v22.4H788.9z"/>
			</g>
		</g>
		<g id="Layer_1-2-46">
			<g class="st0">
				<path class="st1" d="M1861.2,1070.9v22h-104.6v-22H1861.2z M1858.6,946v21.8h-99.4V946H1858.6z M1851.4,1006.4v21.8h-85.2v-21.8
					H1851.4z"/>
			</g>
		</g>
		<g id="Layer_1-2-47">
			<g class="st0">
				<path class="st1" d="M1623.6,1088.3c-8,4.4-21.5,8.7-37,8.7c-22,0-41.8-7.8-54.7-22.4c-7.7-8.1-13.1-19-15.2-32.5h-15.5v-13.3
					h13.5c0-1.1,0-2.4,0-3.5c0-2.6,0.2-5.4,0.5-7.8h-14V1004h16.2c2.9-13.3,9.4-24.6,18.1-32.9c13.1-13.1,30.7-20.5,52.2-20.5
					c14.5,0,26.6,3.3,34.6,6.8l-6,20.3c-6.3-3.1-16.2-5.9-27.1-5.9c-12.1,0-22.7,3.9-30.7,12c-5.1,4.8-8.7,12-10.6,20.3h63.4v13.5
					H1545c-0.5,2.4-0.5,5-0.5,7.6c0,1.3,0,2.4,0,3.7h66.8v13.3h-64.1c1.7,9.4,5.3,16.3,10.4,21.4c8.2,8.1,19.8,11.8,32.4,11.8
					c11.9,0,23-3.7,28.5-6.5L1623.6,1088.3z"/>
			</g>
		</g>
		<g id="Layer_1-2-48">
			<g class="st0">
				<path class="st1" d="M2244.2,1092.9v-54.7l-17.2,12.2v-19.2l17.2-12.2v-73h26.8v54.9l28.3-19.6v19.4l-28.3,19.6v50.1h60.4v22.4
					H2244.2z"/>
			</g>
		</g>
		<g id="Layer_1-2-49">
			<g class="st0">
				<path class="st1" d="M2000.8,1089.4v-14.6c14.5-6.1,27.3-19.2,27.3-34.6c0-4.1-0.2-7.6-1-11.8H2003v-18.5h20.8
					c-1.2-6.1-2.4-13.3-2.4-20.3c0-26.8,21-44.2,51-44.2c13.1,0,22.3,2.6,27.6,5.4l-5.3,20.3c-4.6-2.4-11.6-4.4-21-4.4
					c-17.9,0-24.4,10.9-24.4,23.5c0,7.4,1.2,13.3,2.7,19.6h33.9v18.5h-31.2c0.2,6.8,0.2,13.3-1.7,19.4c-2.4,7.4-7.3,13.7-14,19.2
					v0.4h68v22H2000.8z"/>
			</g>
		</g>
		<g id="Layer_1-2-50">
			<g class="st0">
				<path class="st1" d="M1346.1,1000.5c-3.1,21.8-22.3,35.1-49.3,36.4c17.4,16.3,37.5,37.9,56.8,59.5h-32.2
					c-16.2-17.6-34.6-37.5-55.4-57.5v-18.3h14.3c23,0,35.1-8.1,37.5-20H1266v-13.3h50.8c-3.6-9.8-14.5-15.5-33.1-15.5H1266v-19
					h107.1v13.3h-38.7c6,5,10.2,12,11.6,21.1h27.3v13.3H1346.1z"/>
			</g>
		</g>
		<g id="Layer_1-2-51">
			<g class="st0">
				<path class="st1" d="M2483.9,1096.4V1060h-37.7v-13.3h37.7v-14.8h-37.7v-13.3h30.2l-40.1-63.8h32.2l20.3,39.4
					c4.4,8.1,7,14.8,10.2,21.8h0.5c2.9-6.5,6-14.2,10.2-22.2l21-39h31.4l-42.3,63.8h30v13.3h-38v14.8h38v13.3h-38v36.4H2483.9z"/>
			</g>
		</g>
		<g id="Layer_1-2-52">
			<g class="st0">
				<path class="st1" d="M551.9,1095.4V1059h-37.7v-13.3h37.7v-14.8h-37.7v-13.3h30.2l-40.1-63.8h32.2l20.3,39.4
					c4.4,8.1,7,14.8,10.2,21.8h0.5c2.9-6.5,6-14.2,10.2-22.2l21-39H630l-42.3,63.8h30v13.3h-38v14.8h38v13.3h-38v36.4H551.9z"/>
			</g>
		</g>
		<g id="Layer_1-2-53">
			<g class="st0">
				<path class="st1" d="M288.2,1096.9v-54.7l-17.2,12.2v-19.2l17.2-12.2v-73H315v54.9l28.3-19.6v19.4l-28.3,19.6v50.1h60.4v22.4
					H288.2z"/>
			</g>
		</g>
		<g id="Layer_1-2-54">
			<g class="st0">
				<path class="st1" d="M12.8,1095.4v-14.6c14.5-6.1,27.3-19.2,27.3-34.6c0-4.1-0.2-7.6-1-11.8H15v-18.5h20.8
					c-1.2-6.1-2.4-13.3-2.4-20.3c0-26.8,21-44.2,51-44.2c13.1,0,22.3,2.6,27.6,5.4l-5.3,20.3c-4.6-2.4-11.6-4.4-21-4.4
					c-17.9,0-24.4,10.9-24.4,23.5c0,7.4,1.2,13.3,2.7,19.6h33.9v18.5H66.5c0.2,6.8,0.2,13.3-1.7,19.4c-2.4,7.4-7.3,13.7-14,19.2v0.4
					h68v22H12.8z"/>
			</g>
		</g>
		<g id="Layer_1-2-55">
			<g class="st0">
				<path class="st1" d="M1217.7,1238.3c10.5,2.4,18.3,6.8,23.5,13.1c5.2,6.3,7.8,13.6,7.8,21.8c0,27.4-19.2,41.6-57.6,42.4v17.4
					h-15.7v-17.4h-47.6v-146h47.6v-17.4h15.7v17.7c15.9,0.7,28.2,4.4,36.8,11c8.7,6.6,13,15.3,13,26
					C1241.2,1221.1,1233.4,1231.5,1217.7,1238.3z M1175.7,1230.9v-43.7h-26.1v43.7H1175.7z M1175.7,1298.2v-50.1h-26.1v50.1H1175.7z
					 M1191.4,1230.7c19.2-0.9,28.8-8.2,28.8-22c0-13.3-9.6-20.4-28.8-21.3V1230.7z M1191.4,1298.2c23.7-0.4,35.5-8.8,35.5-25
					c0-8.5-2.8-14.7-8.3-18.6c-5.6-3.9-14.6-6.1-27.2-6.5V1298.2z"/>
			</g>
		</g>
		<g id="Layer_1-2-56">
			<g class="st0">
				<path class="st1" d="M915.9,1329.9v-21.1c-15.2-0.4-30.5-4.4-39.2-9.6l6.5-20.5c9.4,5,23,9.6,37.7,9.6
					c15.2,0,25.6-6.8,25.6-17.2c0-9.8-8.5-16.1-26.4-22c-25.4-8.3-41.8-18.7-41.8-39c0-18.7,14.5-33.1,38.9-37v-21.4h19.8v20.3
					c15.2,0.4,25.6,3.7,33.4,7.2l-6.5,20c-5.8-2.4-16.4-7.4-32.9-7.4c-16.9,0-23,7.8-23,15.3c0,8.9,8.7,13.9,29.3,21.4
					c27.1,9.2,39.2,20.9,39.2,40.3c0,18.5-14.3,34.9-40.9,38.8v22.4H915.9z"/>
			</g>
		</g>
		<g id="Layer_1-2-57">
			<g class="st0">
				<path class="st1" d="M1988.2,1290.9v22h-104.6v-22H1988.2z M1985.6,1166v21.8h-99.4V1166H1985.6z M1978.4,1226.4v21.8h-85.2
					v-21.8H1978.4z"/>
			</g>
		</g>
		<g id="Layer_1-2-58">
			<g class="st0">
				<path class="st1" d="M1750.6,1308.3c-8,4.4-21.5,8.7-37,8.7c-22,0-41.8-7.8-54.7-22.4c-7.7-8.1-13.1-19-15.2-32.5h-15.5v-13.3
					h13.5c0-1.1,0-2.4,0-3.5c0-2.6,0.2-5.4,0.5-7.8h-14V1224h16.2c2.9-13.3,9.4-24.6,18.1-32.9c13.1-13.1,30.7-20.5,52.2-20.5
					c14.5,0,26.6,3.3,34.6,6.8l-6,20.3c-6.3-3.1-16.2-5.9-27.1-5.9c-12.1,0-22.7,3.9-30.7,12c-5.1,4.8-8.7,12-10.6,20.3h63.4v13.5
					H1672c-0.5,2.4-0.5,5-0.5,7.6c0,1.3,0,2.4,0,3.7h66.8v13.3h-64.1c1.7,9.4,5.3,16.3,10.4,21.4c8.2,8.1,19.8,11.8,32.4,11.8
					c11.9,0,23-3.7,28.5-6.5L1750.6,1308.3z"/>
			</g>
		</g>
		<g id="Layer_1-2-59">
			<g class="st0">
				<path class="st1" d="M2371.2,1312.9v-54.7l-17.2,12.2v-19.2l17.2-12.2v-73h26.8v54.9l28.3-19.6v19.4l-28.3,19.6v50.1h60.4v22.4
					H2371.2z"/>
			</g>
		</g>
		<g id="Layer_1-2-60">
			<g class="st0">
				<path class="st1" d="M2127.8,1309.4v-14.6c14.5-6.1,27.3-19.2,27.3-34.6c0-4.1-0.2-7.6-1-11.8H2130v-18.5h20.8
					c-1.2-6.1-2.4-13.3-2.4-20.3c0-26.8,21-44.2,51-44.2c13.1,0,22.3,2.6,27.6,5.4l-5.3,20.3c-4.6-2.4-11.6-4.4-21-4.4
					c-17.9,0-24.4,10.9-24.4,23.5c0,7.4,1.2,13.3,2.7,19.6h33.9v18.5h-31.2c0.2,6.8,0.2,13.3-1.7,19.4c-2.4,7.4-7.3,13.7-14,19.2
					v0.4h68v22H2127.8z"/>
			</g>
		</g>
		<g id="Layer_1-2-61">
			<g class="st0">
				<path class="st1" d="M1473.1,1220.5c-3.1,21.8-22.3,35.1-49.3,36.4c17.4,16.3,37.5,37.9,56.8,59.5h-32.2
					c-16.2-17.6-34.6-37.5-55.4-57.5v-18.3h14.3c23,0,35.1-8.1,37.5-20H1393v-13.3h50.8c-3.6-9.8-14.5-15.5-33.1-15.5H1393v-19
					h107.1v13.3h-38.7c6,5,10.2,12,11.6,21.1h27.3v13.3H1473.1z"/>
			</g>
		</g>
		<g id="Layer_1-2-62">
			<g class="st0">
				<path class="st1" d="M678.9,1315.4V1279h-37.7v-13.3h37.7v-14.8h-37.7v-13.3h30.2l-40.1-63.8h32.2l20.3,39.4
					c4.4,8.1,7,14.8,10.2,21.8h0.5c2.9-6.5,6-14.2,10.2-22.2l21-39H757l-42.3,63.8h30v13.3h-38v14.8h38v13.3h-38v36.4H678.9z"/>
			</g>
		</g>
		<g id="Layer_1-2-63">
			<g class="st0">
				<path class="st1" d="M415.2,1316.9v-54.7l-17.2,12.2v-19.2l17.2-12.2v-73H442v54.9l28.3-19.6v19.4l-28.3,19.6v50.1h60.4v22.4
					H415.2z"/>
			</g>
		</g>
		<g id="Layer_1-2-64">
			<g class="st0">
				<path class="st1" d="M139.8,1315.4v-14.6c14.5-6.1,27.3-19.2,27.3-34.6c0-4.1-0.2-7.6-1-11.8H142v-18.5h20.8
					c-1.2-6.1-2.4-13.3-2.4-20.3c0-26.8,21-44.2,51-44.2c13.1,0,22.3,2.6,27.6,5.4l-5.3,20.3c-4.6-2.4-11.6-4.4-21-4.4
					c-17.9,0-24.4,10.9-24.4,23.5c0,7.4,1.2,13.3,2.7,19.6h33.9v18.5h-31.2c0.2,6.8,0.2,13.3-1.7,19.4c-2.4,7.4-7.3,13.7-14,19.2
					v0.4h68v22H139.8z"/>
			</g>
		</g>
	</g>
</g>
</svg>
