<svg xmlns="http://www.w3.org/2000/svg" viewBox="0 0 2569.84 1371.64"><defs><style>.cls-1,.cls-2{isolation:isolate;font-size:217.88px;fill:#1b75bc;}.cls-1{font-family:MicrosoftSansSerif, Microsoft Sans Serif;}.cls-2{font-family:MyriadPro-Semibold, Myriad Pro;font-weight:600;}</style></defs><title>5Asset 12</title><g id="Layer_2" data-name="Layer 2"><g id="Layer_1-2" data-name="Layer 1"><g id="Layer_1-2-2" data-name="Layer 1-2"><text class="cls-1" transform="translate(478.92 188.68) scale(1.11 1)">฿</text></g><g id="Layer_1-2-3" data-name="Layer 1-2"><text class="cls-2" transform="translate(231.17 184.13) scale(1.11 1)">$</text></g><g id="Layer_1-2-4" data-name="Layer 1-2"><text class="cls-2" transform="translate(1243.27 185.88)">Ξ</text></g><g id="Layer_1-2-5" data-name="Layer 1-2"><text class="cls-2" transform="translate(995.52 187.64) scale(1.11 1)">€</text></g><g id="Layer_1-2-6" data-name="Layer 1-2"><text class="cls-2" transform="translate(1723.62 185.88)">Ł</text></g><g id="Layer_1-2-7" data-name="Layer 1-2"><text class="cls-2" transform="translate(1484 182.37) scale(1.11 1)">£</text></g><g id="Layer_1-2-8" data-name="Layer 1-2"><text class="cls-2" transform="translate(747.76 189.4) scale(1.11 1)">₹</text></g><g id="Layer_1-2-9" data-name="Layer 1-2"><text class="cls-2" transform="translate(1930.31 189.4) scale(1.11 1)">¥</text></g><g id="Layer_1-2-10" data-name="Layer 1-2"><text class="cls-1" transform="translate(605.92 423.68) scale(1.11 1)">฿</text></g><g id="Layer_1-2-11" data-name="Layer 1-2"><text class="cls-2" transform="translate(358.17 419.13) scale(1.11 1)">$</text></g><g id="Layer_1-2-12" data-name="Layer 1-2"><text class="cls-2" transform="translate(1370.27 420.88)">Ξ</text></g><g id="Layer_1-2-13" data-name="Layer 1-2"><text class="cls-2" transform="translate(1122.52 422.64) scale(1.11 1)">€</text></g><g id="Layer_1-2-14" data-name="Layer 1-2"><text class="cls-2" transform="translate(1850.62 420.88)">Ł</text></g><g id="Layer_1-2-15" data-name="Layer 1-2"><text class="cls-2" transform="translate(1611 417.37) scale(1.11 1)">£</text></g><g id="Layer_1-2-16" data-name="Layer 1-2"><text class="cls-2" transform="translate(874.76 424.4) scale(1.11 1)">₹</text></g><g id="Layer_1-2-17" data-name="Layer 1-2"><text class="cls-2" transform="translate(2057.31 424.4) scale(1.11 1)">¥</text></g><g id="Layer_1-2-18" data-name="Layer 1-2"><text class="cls-2" transform="translate(121.31 424.4) scale(1.11 1)">¥</text></g><g id="Layer_1-2-19" data-name="Layer 1-2"><text class="cls-1" transform="translate(729.92 648.68) scale(1.11 1)">฿</text></g><g id="Layer_1-2-20" data-name="Layer 1-2"><text class="cls-2" transform="translate(482.17 644.13) scale(1.11 1)">$</text></g><g id="Layer_1-2-21" data-name="Layer 1-2"><text class="cls-2" transform="translate(1494.27 645.88)">Ξ</text></g><g id="Layer_1-2-22" data-name="Layer 1-2"><text class="cls-2" transform="translate(1246.52 647.64) scale(1.11 1)">€</text></g><g id="Layer_1-2-23" data-name="Layer 1-2"><text class="cls-2" transform="translate(1974.62 645.88)">Ł</text></g><g id="Layer_1-2-24" data-name="Layer 1-2"><text class="cls-2" transform="translate(1735 642.37) scale(1.11 1)">£</text></g><g id="Layer_1-2-25" data-name="Layer 1-2"><text class="cls-2" transform="translate(998.76 649.4) scale(1.11 1)">₹</text></g><g id="Layer_1-2-26" data-name="Layer 1-2"><text class="cls-2" transform="translate(2181.31 649.4) scale(1.11 1)">¥</text></g><g id="Layer_1-2-27" data-name="Layer 1-2"><text class="cls-1" transform="translate(856.92 883.68) scale(1.11 1)">฿</text></g><g id="Layer_1-2-28" data-name="Layer 1-2"><text class="cls-2" transform="translate(609.17 879.13) scale(1.11 1)">$</text></g><g id="Layer_1-2-29" data-name="Layer 1-2"><text class="cls-2" transform="translate(1621.27 880.88)">Ξ</text></g><g id="Layer_1-2-30" data-name="Layer 1-2"><text class="cls-2" transform="translate(1373.52 882.64) scale(1.11 1)">€</text></g><g id="Layer_1-2-31" data-name="Layer 1-2"><text class="cls-2" transform="translate(2101.62 880.88)">Ł</text></g><g id="Layer_1-2-32" data-name="Layer 1-2"><text class="cls-2" transform="translate(1862 877.37) scale(1.11 1)">£</text></g><g id="Layer_1-2-33" data-name="Layer 1-2"><text class="cls-2" transform="translate(1125.76 884.4) scale(1.11 1)">₹</text></g><g id="Layer_1-2-34" data-name="Layer 1-2"><text class="cls-2" transform="translate(372.31 884.4) scale(1.11 1)">¥</text></g><g id="Layer_1-2-35" data-name="Layer 1-2"><text class="cls-2" transform="translate(249.31 648.4) scale(1.11 1)">¥</text></g><g id="Layer_1-2-36" data-name="Layer 1-2"><text class="cls-2" transform="translate(149.62 884.88)">Ł</text></g><g id="Layer_1-2-37" data-name="Layer 1-2"><text class="cls-2" transform="translate(2181.17 189.13) scale(1.11 1)">$</text></g><g id="Layer_1-2-38" data-name="Layer 1-2"><text class="cls-2" transform="translate(0.31 185.4) scale(1.11 1)">¥</text></g><g id="Layer_1-2-39" data-name="Layer 1-2"><text class="cls-2" transform="translate(11.62 649.88)">Ł</text></g><g id="Layer_1-2-40" data-name="Layer 1-2"><text class="cls-2" transform="translate(2290.17 419.13) scale(1.11 1)">$</text></g><g id="Layer_1-2-41" data-name="Layer 1-2"><text class="cls-2" transform="translate(2295.31 878.4) scale(1.11 1)">¥</text></g><g id="Layer_1-2-42" data-name="Layer 1-2"><text class="cls-1" transform="translate(2418.92 196.68) scale(1.11 1)">฿</text></g><g id="Layer_1-2-43" data-name="Layer 1-2"><text class="cls-2" transform="translate(2416.17 642.13) scale(1.11 1)">$</text></g><g id="Layer_1-2-44" data-name="Layer 1-2"><text class="cls-1" transform="translate(982.92 1095.68) scale(1.11 1)">฿</text></g><g id="Layer_1-2-45" data-name="Layer 1-2"><text class="cls-2" transform="translate(735.17 1091.13) scale(1.11 1)">$</text></g><g id="Layer_1-2-46" data-name="Layer 1-2"><text class="cls-2" transform="translate(1747.27 1092.88)">Ξ</text></g><g id="Layer_1-2-47" data-name="Layer 1-2"><text class="cls-2" transform="translate(1499.52 1094.64) scale(1.11 1)">€</text></g><g id="Layer_1-2-48" data-name="Layer 1-2"><text class="cls-2" transform="translate(2227.62 1092.88)">Ł</text></g><g id="Layer_1-2-49" data-name="Layer 1-2"><text class="cls-2" transform="translate(1988 1089.37) scale(1.11 1)">£</text></g><g id="Layer_1-2-50" data-name="Layer 1-2"><text class="cls-2" transform="translate(1251.76 1096.4) scale(1.11 1)">₹</text></g><g id="Layer_1-2-51" data-name="Layer 1-2"><text class="cls-2" transform="translate(2434.31 1096.4) scale(1.11 1)">¥</text></g><g id="Layer_1-2-52" data-name="Layer 1-2"><text class="cls-2" transform="translate(502.31 1095.4) scale(1.11 1)">¥</text></g><g id="Layer_1-2-53" data-name="Layer 1-2"><text class="cls-2" transform="translate(271.62 1096.88)">Ł</text></g><g id="Layer_1-2-54" data-name="Layer 1-2"><text class="cls-2" transform="translate(0 1095.37) scale(1.11 1)">£</text></g><g id="Layer_1-2-55" data-name="Layer 1-2"><text class="cls-1" transform="translate(1109.92 1315.68) scale(1.11 1)">฿</text></g><g id="Layer_1-2-56" data-name="Layer 1-2"><text class="cls-2" transform="translate(862.17 1311.13) scale(1.11 1)">$</text></g><g id="Layer_1-2-57" data-name="Layer 1-2"><text class="cls-2" transform="translate(1874.27 1312.88)">Ξ</text></g><g id="Layer_1-2-58" data-name="Layer 1-2"><text class="cls-2" transform="translate(1626.52 1314.64) scale(1.11 1)">€</text></g><g id="Layer_1-2-59" data-name="Layer 1-2"><text class="cls-2" transform="translate(2354.62 1312.88)">Ł</text></g><g id="Layer_1-2-60" data-name="Layer 1-2"><text class="cls-2" transform="translate(2115 1309.37) scale(1.11 1)">£</text></g><g id="Layer_1-2-61" data-name="Layer 1-2"><text class="cls-2" transform="translate(1378.76 1316.4) scale(1.11 1)">₹</text></g><g id="Layer_1-2-62" data-name="Layer 1-2"><text class="cls-2" transform="translate(629.31 1315.4) scale(1.11 1)">¥</text></g><g id="Layer_1-2-63" data-name="Layer 1-2"><text class="cls-2" transform="translate(398.62 1316.88)">Ł</text></g><g id="Layer_1-2-64" data-name="Layer 1-2"><text class="cls-2" transform="translate(127 1315.37) scale(1.11 1)">£</text></g></g></g></svg>