<?xml version="1.0" encoding="utf-8"?>
<!-- Generator: Adobe Illustrator 23.0.1, SVG Export Plug-In . SVG Version: 6.00 Build 0)  -->
<svg version="1.1" id="Layer_1" xmlns="http://www.w3.org/2000/svg" xmlns:xlink="http://www.w3.org/1999/xlink" x="0px" y="0px"
	 viewBox="0 0 2569.8 1371.6" style="enable-background:new 0 0 2569.8 1371.6;" xml:space="preserve">
<style type="text/css">
	.st0{fill:#1B75BC;}
</style>
<title>5Asset 12</title>
<g>
	<path class="st0" d="M86.3,155l-51.6-51.7V155H11.2V41.4h23.5v57.7l48.9-57.6h28.9l-50.6,58.7l55.5,54.8H86.3z"/>
	<path class="st0" d="M248.9,41.5V155h-23.5V97.5l-38.5,42.7l-38.3-42.7V155H125V41.5h1.5l60.4,65.5l60.5-65.5H248.9z"/>
</g>
<g>
	<path class="st0" d="M504.4,41.1v113.4h-23.5V97.2l-38.5,42.7L404,97.2v57.4h-23.5V41.1h1.5l60.4,65.5l60.5-65.5H504.4z"/>
</g>
<g>
	<path class="st0" d="M629.9,154.6l62.9-113.4h2.4L758,154.6h-25.6l-9.6-17.8h-58l-9.4,17.8H629.9z M676.3,117.8h35.1l-17.5-34.3
		L676.3,117.8z"/>
	<path class="st0" d="M807.6,156.6c-8,0-15.2-1.1-21.7-3.4c-6.5-2.3-12.1-5.5-16.6-9.6c-4.6-4.1-8.2-9.2-10.7-15.1
		c-2.5-5.9-3.8-12.5-3.8-19.7V41.1h23.5v67.5c0,5.7,1,10.4,3,14.1c2,3.7,4.5,6.7,7.5,8.8c3,2.2,6.2,3.7,9.6,4.5
		c3.4,0.8,6.5,1.2,9.2,1.2c2.7,0,5.7-0.4,9.2-1.2c3.4-0.8,6.6-2.3,9.6-4.5c3-2.2,5.5-5.1,7.5-8.8c2-3.7,3-8.4,3-14.1V41.1h23.5v67.7
		c0,7.2-1.2,13.8-3.7,19.7c-2.5,5.9-6,10.9-10.6,15.1c-4.6,4.1-10.1,7.3-16.6,9.6C823,155.5,815.7,156.6,807.6,156.6z"/>
</g>
<g>
	<path class="st0" d="M1102.2,124.7c-2.7,4.6-6,8.7-9.9,12.3c-3.9,3.7-8.3,6.8-13,9.5c-4.8,2.6-9.9,4.7-15.5,6.1
		c-5.5,1.4-11.3,2.2-17.2,2.2c-8.7,0-17-1.6-24.7-4.7c-7.7-3.1-14.5-7.3-20.3-12.6c-5.8-5.3-10.3-11.6-13.7-18.7
		c-3.4-7.1-5-14.7-5-22.8c0-8.1,1.7-15.7,5-22.8c3.4-7.1,7.9-13.4,13.7-18.7c5.8-5.3,12.5-9.5,20.3-12.6c7.7-3.1,16-4.7,24.7-4.7
		c5.9,0,11.7,0.7,17.2,2.2c5.5,1.4,10.7,3.5,15.5,6.1c4.8,2.6,9.1,5.8,13,9.5c3.9,3.7,7.2,7.7,9.9,12.2l-22,8.2
		c-1.8-2.5-3.9-4.8-6.3-7c-2.4-2.2-5.1-4.1-8-5.7c-2.9-1.7-6-2.9-9.2-3.9c-3.3-0.9-6.6-1.4-10.1-1.4c-5.6,0-10.8,1.1-15.7,3.2
		c-4.9,2.1-9.1,4.9-12.7,8.5c-3.6,3.5-6.4,7.6-8.6,12.3c-2.1,4.7-3.2,9.6-3.2,14.7c0,5.2,1.1,10.1,3.2,14.7c2.1,4.7,5,8.7,8.6,12.3
		c3.6,3.5,7.8,6.3,12.7,8.5c4.9,2.1,10.1,3.2,15.7,3.2c3.5,0,6.8-0.5,10.1-1.4c3.3-0.9,6.3-2.2,9.2-3.9c2.9-1.7,5.6-3.6,8-5.8
		c2.4-2.2,4.5-4.6,6.3-7.1L1102.2,124.7z"/>
	<path class="st0" d="M1234.6,39.2v113.4H1211V95.2l-38.5,42.7l-38.3-42.7v57.4h-23.5V39.2h1.5l60.4,65.5l60.5-65.5H1234.6z"/>
</g>
<g>
	<path class="st0" d="M1384.8,155.9h-23.5V42.5h23.5V155.9z"/>
	<path class="st0" d="M1509.7,155.9l-80.9-67.5v67.5h-23.5V42.5h2.5l80.9,68.6V42.5h23.5v113.4H1509.7z"/>
</g>
<g>
	<path class="st0" d="M1785.5,39.2v113.4H1762V95.2l-38.5,42.7l-38.3-42.7v57.4h-23.5V39.2h1.5l60.4,65.5l60.5-65.5H1785.5z"/>
	<path class="st0" d="M1926.8,39.2v113.4h-23.5V95.2l-38.5,42.7l-38.3-42.7v57.4h-23.5V39.2h1.5l60.4,65.5l60.5-65.5H1926.8z"/>
</g>
<g>
	<path class="st0" d="M287.5,331.7L235.9,280v51.7h-23.5V218.1h23.5v57.7l48.9-57.6h28.9l-50.6,58.7l55.5,54.8H287.5z"/>
	<path class="st0" d="M450.1,218.2v113.4h-23.5v-57.4l-38.5,42.7l-38.3-42.7v57.4h-23.5V218.2h1.5l60.4,65.5l60.5-65.5H450.1z"/>
</g>
<g>
	<path class="st0" d="M705.6,217.9v113.4H682v-57.4l-38.5,42.7l-38.3-42.7v57.4h-23.5V217.9h1.5l60.4,65.5l60.5-65.5H705.6z"/>
</g>
<g>
	<path class="st0" d="M831,331.3l62.9-113.4h2.4l62.9,113.4h-25.6l-9.6-17.8h-58l-9.4,17.8H831z M877.5,294.5h35.1l-17.5-34.3
		L877.5,294.5z"/>
	<path class="st0" d="M1008.8,333.3c-8,0-15.2-1.1-21.7-3.4c-6.5-2.3-12.1-5.5-16.6-9.6c-4.6-4.1-8.2-9.2-10.7-15.1
		c-2.5-5.9-3.8-12.5-3.8-19.7v-67.7h23.5v67.5c0,5.7,1,10.4,3,14.1c2,3.7,4.5,6.7,7.5,8.8c3,2.2,6.2,3.7,9.6,4.5
		c3.4,0.8,6.5,1.2,9.2,1.2c2.7,0,5.7-0.4,9.2-1.2c3.4-0.8,6.6-2.3,9.6-4.5c3-2.2,5.5-5.1,7.5-8.8c2-3.7,3-8.4,3-14.1v-67.5h23.5
		v67.7c0,7.2-1.2,13.8-3.7,19.7c-2.5,5.9-6,10.9-10.6,15.1c-4.6,4.1-10.1,7.3-16.6,9.6C1024.1,332.2,1016.9,333.3,1008.8,333.3z"/>
</g>
<g>
	<path class="st0" d="M1303.4,301.4c-2.7,4.6-6,8.7-9.9,12.3c-3.9,3.7-8.3,6.8-13,9.5c-4.8,2.6-9.9,4.7-15.5,6.1
		c-5.5,1.4-11.3,2.2-17.2,2.2c-8.7,0-17-1.6-24.7-4.7c-7.7-3.1-14.5-7.3-20.3-12.6c-5.8-5.3-10.3-11.6-13.7-18.7
		c-3.4-7.1-5-14.7-5-22.8c0-8.1,1.7-15.7,5-22.8c3.4-7.1,7.9-13.4,13.7-18.7c5.8-5.3,12.5-9.5,20.3-12.6c7.7-3.1,16-4.7,24.7-4.7
		c5.9,0,11.7,0.7,17.2,2.2c5.5,1.4,10.7,3.5,15.5,6.1c4.8,2.6,9.1,5.8,13,9.5c3.9,3.7,7.2,7.7,9.9,12.2l-22,8.2
		c-1.8-2.5-3.9-4.8-6.3-7c-2.4-2.2-5.1-4.1-8-5.7c-2.9-1.7-6-2.9-9.2-3.9c-3.3-0.9-6.6-1.4-10.1-1.4c-5.6,0-10.8,1.1-15.7,3.2
		c-4.9,2.1-9.1,4.9-12.7,8.5c-3.6,3.5-6.4,7.6-8.6,12.3c-2.1,4.7-3.2,9.6-3.2,14.7c0,5.2,1.1,10.1,3.2,14.7c2.1,4.7,5,8.7,8.6,12.3
		c3.6,3.5,7.8,6.3,12.7,8.5c4.9,2.1,10.1,3.2,15.7,3.2c3.5,0,6.8-0.5,10.1-1.4c3.3-0.9,6.3-2.2,9.2-3.9c2.9-1.7,5.6-3.6,8-5.8
		c2.4-2.2,4.5-4.6,6.3-7.1L1303.4,301.4z"/>
	<path class="st0" d="M1435.7,215.9v113.4h-23.5v-57.4l-38.5,42.7l-38.3-42.7v57.4h-23.5V215.9h1.5l60.4,65.5l60.5-65.5H1435.7z"/>
</g>
<g>
	<path class="st0" d="M1585.9,332.6h-23.5V219.2h23.5V332.6z"/>
	<path class="st0" d="M1710.9,332.6l-80.9-67.5v67.5h-23.5V219.2h2.5l80.9,68.6v-68.6h23.5v113.4H1710.9z"/>
</g>
<g>
	<path class="st0" d="M124.7,238.3H89.5v94.3H66v-94.3H30.7v-19.2h94V238.3z"/>
</g>
<g>
	<path class="st0" d="M425.3,513l-51.6-51.7V513h-23.5V399.4h23.5v57.7l48.9-57.6h28.9l-50.6,58.7l55.5,54.8H425.3z"/>
	<path class="st0" d="M587.9,399.6V513h-23.5v-57.4l-38.5,42.7l-38.3-42.7V513h-23.5V399.6h1.5l60.4,65.5l60.5-65.5H587.9z"/>
</g>
<g>
	<path class="st0" d="M843.3,399.2v113.4h-23.5v-57.4l-38.5,42.7L743,455.2v57.4h-23.5V399.2h1.5l60.4,65.5l60.5-65.5H843.3z"/>
</g>
<g>
	<path class="st0" d="M968.8,512.6l62.9-113.4h2.4l62.9,113.4h-25.6l-9.6-17.8h-58l-9.4,17.8H968.8z M1015.2,475.8h35.1l-17.5-34.3
		L1015.2,475.8z"/>
	<path class="st0" d="M1146.6,514.6c-8,0-15.2-1.1-21.7-3.4c-6.5-2.3-12.1-5.5-16.6-9.6c-4.6-4.1-8.2-9.2-10.7-15.1
		s-3.8-12.5-3.8-19.7v-67.7h23.5v67.5c0,5.7,1,10.4,3,14.1c2,3.7,4.5,6.7,7.5,8.8c3,2.2,6.2,3.7,9.6,4.5c3.4,0.8,6.5,1.2,9.2,1.2
		c2.7,0,5.7-0.4,9.2-1.2c3.4-0.8,6.6-2.3,9.6-4.5c3-2.2,5.5-5.1,7.5-8.8c2-3.7,3-8.4,3-14.1v-67.5h23.5v67.7
		c0,7.2-1.2,13.8-3.7,19.7c-2.5,5.9-6,10.9-10.6,15.1c-4.6,4.1-10.1,7.3-16.6,9.6C1161.9,513.5,1154.6,514.6,1146.6,514.6z"/>
</g>
<g>
	<path class="st0" d="M1447.2,482.8c-2.7,4.6-6,8.7-9.9,12.3c-3.9,3.7-8.3,6.8-13,9.5c-4.8,2.6-9.9,4.7-15.5,6.1
		c-5.5,1.4-11.3,2.2-17.2,2.2c-8.7,0-17-1.6-24.7-4.7c-7.7-3.1-14.5-7.3-20.3-12.6c-5.8-5.3-10.3-11.6-13.7-18.7
		c-3.4-7.1-5-14.7-5-22.8c0-8.1,1.7-15.7,5-22.8c3.4-7.1,7.9-13.4,13.7-18.7c5.8-5.3,12.5-9.5,20.3-12.6c7.7-3.1,16-4.7,24.7-4.7
		c5.9,0,11.7,0.7,17.2,2.2c5.5,1.4,10.7,3.5,15.5,6.1c4.8,2.6,9.1,5.8,13,9.5c3.9,3.7,7.2,7.7,9.9,12.2l-22,8.2
		c-1.8-2.5-3.9-4.8-6.3-7c-2.4-2.2-5.1-4.1-8-5.7c-2.9-1.7-6-2.9-9.2-3.9c-3.3-0.9-6.6-1.4-10.1-1.4c-5.6,0-10.8,1.1-15.7,3.2
		c-4.9,2.1-9.1,4.9-12.7,8.5c-3.6,3.5-6.4,7.6-8.6,12.3c-2.1,4.7-3.2,9.6-3.2,14.7c0,5.2,1.1,10.1,3.2,14.7c2.1,4.7,5,8.7,8.6,12.3
		c3.6,3.5,7.8,6.3,12.7,8.5c4.9,2.1,10.1,3.2,15.7,3.2c3.5,0,6.8-0.5,10.1-1.4c3.3-0.9,6.3-2.2,9.2-3.9c2.9-1.7,5.6-3.6,8-5.8
		c2.4-2.2,4.5-4.6,6.3-7.1L1447.2,482.8z"/>
	<path class="st0" d="M1579.5,397.3v113.4H1556v-57.4l-38.5,42.7l-38.3-42.7v57.4h-23.5V397.3h1.5l60.4,65.5l60.5-65.5H1579.5z"/>
</g>
<g>
	<path class="st0" d="M1729.7,514h-23.5V400.5h23.5V514z"/>
	<path class="st0" d="M1854.7,514l-80.9-67.5V514h-23.5V400.5h2.5l80.9,68.6v-68.6h23.5V514H1854.7z"/>
</g>
<g>
	<path class="st0" d="M84.1,419.6v28.1h59.4v20H84.1V514H60.6V400.4h90.5v19.2H84.1z"/>
	<path class="st0" d="M248.9,419.6h-35.1V514h-23.5v-94.3h-35.3v-19.2h94V419.6z"/>
</g>
<g>
	<path class="st0" d="M566.1,683.7L514.5,632v51.7H491V570.1h23.5v57.7l48.9-57.6h28.9l-50.6,58.7l55.5,54.8H566.1z"/>
	<path class="st0" d="M728.7,570.3v113.4h-23.5v-57.4L666.7,669l-38.3-42.7v57.4h-23.5V570.3h1.5l60.4,65.5l60.5-65.5H728.7z"/>
</g>
<g>
	<path class="st0" d="M984.2,569.9v113.4h-23.5v-57.4l-38.5,42.7l-38.3-42.7v57.4h-23.5V569.9h1.5l60.4,65.5l60.5-65.5H984.2z"/>
</g>
<g>
	<path class="st0" d="M1104.3,683.3l62.9-113.4h2.4l62.9,113.4h-25.6l-9.6-17.8h-58l-9.4,17.8H1104.3z M1150.7,646.6h35.1
		l-17.5-34.3L1150.7,646.6z"/>
	<path class="st0" d="M1282.1,685.4c-8,0-15.2-1.1-21.7-3.4c-6.5-2.3-12.1-5.5-16.6-9.6c-4.6-4.1-8.2-9.2-10.7-15.1
		c-2.5-5.9-3.8-12.5-3.8-19.7v-67.7h23.5v67.5c0,5.7,1,10.4,3,14.1c2,3.7,4.5,6.7,7.5,8.8c3,2.2,6.2,3.7,9.6,4.5
		c3.4,0.8,6.5,1.2,9.2,1.2c2.7,0,5.7-0.4,9.2-1.2c3.4-0.8,6.6-2.3,9.6-4.5c3-2.2,5.5-5.1,7.5-8.8s3-8.4,3-14.1v-67.5h23.5v67.7
		c0,7.2-1.2,13.8-3.7,19.7c-2.5,5.9-6,10.9-10.6,15.1c-4.6,4.1-10.1,7.3-16.6,9.6C1297.4,684.2,1290.1,685.4,1282.1,685.4z"/>
</g>
<g>
	<path class="st0" d="M1576.7,653.5c-2.7,4.6-6,8.7-9.9,12.3c-3.9,3.7-8.3,6.8-13,9.5c-4.8,2.6-9.9,4.7-15.5,6.1
		c-5.5,1.4-11.3,2.2-17.2,2.2c-8.7,0-17-1.6-24.7-4.7c-7.7-3.1-14.5-7.3-20.3-12.6c-5.8-5.3-10.3-11.6-13.7-18.7
		c-3.4-7.1-5-14.7-5-22.8s1.7-15.7,5-22.8s7.9-13.4,13.7-18.7c5.8-5.3,12.5-9.5,20.3-12.6c7.7-3.1,16-4.7,24.7-4.7
		c5.9,0,11.7,0.7,17.2,2.2c5.5,1.5,10.7,3.5,15.5,6.1c4.8,2.6,9.1,5.8,13,9.5c3.9,3.7,7.2,7.7,9.9,12.2l-22,8.2
		c-1.8-2.5-3.9-4.8-6.3-7c-2.4-2.2-5.1-4.1-8-5.7c-2.9-1.7-6-2.9-9.2-3.9c-3.3-0.9-6.6-1.4-10.1-1.4c-5.6,0-10.8,1.1-15.7,3.2
		c-4.9,2.1-9.1,4.9-12.7,8.5c-3.6,3.5-6.4,7.6-8.6,12.3c-2.1,4.7-3.2,9.6-3.2,14.7c0,5.2,1.1,10.1,3.2,14.7c2.1,4.7,5,8.7,8.6,12.3
		c3.6,3.5,7.8,6.3,12.7,8.5c4.9,2.1,10.1,3.2,15.7,3.2c3.5,0,6.8-0.5,10.1-1.4c3.3-0.9,6.3-2.2,9.2-3.9c2.9-1.7,5.6-3.6,8-5.8
		c2.4-2.2,4.5-4.6,6.3-7.1L1576.7,653.5z"/>
	<path class="st0" d="M1709,568v113.4h-23.5V624l-38.5,42.7l-38.3-42.7v57.4h-23.5V568h1.5l60.4,65.5l60.5-65.5H1709z"/>
</g>
<g>
	<path class="st0" d="M1874.4,684.7h-23.8V571.3h23.8V684.7z"/>
	<path class="st0" d="M2000.8,684.7l-81.8-67.5v67.5h-23.8V571.3h2.6l81.8,68.6v-68.6h23.8v113.4H2000.8z"/>
</g>
<g>
	<path class="st0" d="M220.4,590.3v28.1h59.4v20h-59.4v46.2h-23.5V571.1h90.5v19.2H220.4z"/>
	<path class="st0" d="M385.2,590.3h-35.1v94.3h-23.5v-94.3h-35.3v-19.2h94V590.3z"/>
</g>
<g>
	<path class="st0" d="M56.8,684.7H8.2V571.1h48.5c17.6,0,32,4.8,43.3,14.3c6,5.1,10.6,11.2,13.7,18.4c3.1,7.2,4.6,15.2,4.6,24.1
		c0,9-1.5,17.1-4.6,24.3c-3.1,7.2-7.6,13.3-13.7,18.4c-5.5,4.7-11.9,8.2-19.2,10.6C73.5,683.5,65.5,684.7,56.8,684.7z M31.8,665.4
		h25.1c4.4,0,8.8-0.5,13.3-1.4c4.5-0.9,8.5-2.8,12.2-5.5c3.6-2.7,6.6-6.5,9-11.4c2.4-4.9,3.5-11.2,3.5-19.1c0-7.9-1.2-14.2-3.5-19.2
		c-2.4-4.9-5.4-8.7-9.1-11.4c-3.7-2.7-7.8-4.5-12.3-5.4c-4.5-0.9-8.9-1.4-13.1-1.4H31.8V665.4z"/>
</g>
<g>
	<path class="st0" d="M719.8,849.1l-51.6-51.7v51.7h-23.5V735.5h23.5v57.7l48.9-57.6H746l-50.6,58.7l55.5,54.8H719.8z"/>
	<path class="st0" d="M882.4,735.7v113.4h-23.5v-57.4l-38.5,42.7L782,791.7v57.4h-23.5V735.7h1.5l60.4,65.5l60.5-65.5H882.4z"/>
</g>
<g>
	<path class="st0" d="M1137.9,735.3v113.4h-23.5v-57.4l-38.5,42.7l-38.3-42.7v57.4h-23.5V735.3h1.5l60.4,65.5l60.5-65.5H1137.9z"/>
</g>
<g>
	<path class="st0" d="M1258,848.7l62.9-113.4h2.4l62.9,113.4h-25.6l-9.6-17.8h-58l-9.4,17.8H1258z M1304.4,812h35.1l-17.5-34.3
		L1304.4,812z"/>
	<path class="st0" d="M1435.7,850.8c-8,0-15.2-1.1-21.7-3.4c-6.5-2.3-12.1-5.5-16.6-9.6c-4.6-4.1-8.2-9.2-10.7-15.1
		s-3.8-12.5-3.8-19.7v-67.7h23.5v67.5c0,5.7,1,10.4,3,14.1c2,3.7,4.5,6.7,7.5,8.8c3,2.2,6.2,3.7,9.6,4.5c3.4,0.8,6.5,1.2,9.2,1.2
		s5.7-0.4,9.2-1.2c3.4-0.8,6.6-2.3,9.6-4.5c3-2.2,5.5-5.1,7.5-8.8c2-3.7,3-8.4,3-14.1v-67.5h23.5V803c0,7.2-1.2,13.8-3.7,19.7
		c-2.5,5.9-6,10.9-10.6,15.1c-4.6,4.1-10.1,7.3-16.6,9.6C1451.1,849.6,1443.8,850.8,1435.7,850.8z"/>
</g>
<g>
	<path class="st0" d="M1730.3,818.9c-2.7,4.6-6,8.7-9.9,12.3c-3.9,3.7-8.3,6.8-13,9.5c-4.8,2.6-9.9,4.7-15.5,6.1
		c-5.5,1.4-11.3,2.2-17.2,2.2c-8.7,0-17-1.6-24.7-4.7c-7.7-3.1-14.5-7.3-20.3-12.6c-5.8-5.3-10.3-11.6-13.7-18.7
		c-3.4-7.1-5-14.7-5-22.8s1.7-15.7,5-22.8c3.4-7.1,7.9-13.4,13.7-18.7c5.8-5.3,12.5-9.5,20.3-12.6c7.7-3.1,16-4.7,24.7-4.7
		c5.9,0,11.7,0.7,17.2,2.2c5.5,1.5,10.7,3.5,15.5,6.1c4.8,2.6,9.1,5.8,13,9.5c3.9,3.7,7.2,7.7,9.9,12.2l-22,8.2
		c-1.8-2.5-3.9-4.8-6.3-7c-2.4-2.2-5.1-4.1-8-5.7c-2.9-1.7-6-2.9-9.2-3.9c-3.3-0.9-6.6-1.4-10.1-1.4c-5.6,0-10.8,1.1-15.7,3.2
		c-4.9,2.1-9.1,4.9-12.7,8.5c-3.6,3.5-6.4,7.6-8.6,12.3c-2.1,4.7-3.2,9.6-3.2,14.7c0,5.2,1.1,10.1,3.2,14.7c2.1,4.7,5,8.7,8.6,12.3
		c3.6,3.5,7.8,6.3,12.7,8.5c4.9,2.1,10.1,3.2,15.7,3.2c3.5,0,6.8-0.5,10.1-1.4c3.3-0.9,6.3-2.2,9.2-3.9c2.9-1.7,5.6-3.6,8-5.8
		c2.4-2.2,4.5-4.6,6.3-7.1L1730.3,818.9z"/>
	<path class="st0" d="M1862.7,733.4v113.4h-23.5v-57.4l-38.5,42.7l-38.3-42.7v57.4h-23.5V733.4h1.5l60.4,65.5l60.5-65.5H1862.7z"/>
</g>
<g>
	<path class="st0" d="M374.1,755.7v28.1h59.4v20h-59.4v46.2h-23.5V736.5H441v19.2H374.1z"/>
	<path class="st0" d="M538.9,755.7h-35.1v94.3h-23.5v-94.3h-35.3v-19.2h94V755.7z"/>
</g>
<g>
	<path class="st0" d="M135.8,736.7c-3.1,4.8-6.8,10.2-10.8,16.3c-4.1,6.1-8.3,12.3-12.5,18.7c-4.3,6.4-8.5,12.6-12.6,18.8
		c-4.1,6.2-7.8,11.7-10.9,16.7v43H65.3v-43c-7.3-11.8-15-23.5-23.2-35.2c-8.2-11.7-16-23.4-23.4-35.2h27.4
		c5,7.8,10.2,15.8,15.5,24.1c5.3,8.3,10.4,16.3,15.5,24.1c2.5-3.6,5-7.5,7.7-11.6c2.7-4.1,5.4-8.3,8.1-12.5c2.7-4.2,5.4-8.3,8-12.4
		c2.6-4.1,5.1-7.9,7.5-11.6H135.8z"/>
	<path class="st0" d="M188.9,850.1h-48.5V736.5h48.5c17.6,0,32,4.8,43.3,14.3c6,5.1,10.6,11.2,13.7,18.4c3.1,7.2,4.6,15.2,4.6,24.1
		c0,9-1.5,17.1-4.6,24.3c-3.1,7.2-7.6,13.3-13.7,18.4c-5.5,4.7-11.9,8.2-19.2,10.6C205.6,848.9,197.6,850.1,188.9,850.1z
		 M163.9,830.9h25.1c4.4,0,8.8-0.5,13.3-1.4c4.5-0.9,8.5-2.8,12.2-5.5c3.6-2.7,6.6-6.5,9-11.4c2.4-4.9,3.5-11.2,3.5-19.1
		c0-7.9-1.2-14.2-3.5-19.2c-2.4-4.9-5.4-8.7-9.1-11.4c-3.7-2.7-7.8-4.5-12.3-5.4c-4.5-0.9-8.9-1.4-13.1-1.4h-25.1V830.9z"/>
</g>
<g>
	<path class="st0" d="M873.2,1017.2l-51.6-51.7v51.7h-23.5V903.6h23.5v57.7l48.9-57.6h28.9l-50.6,58.7l55.5,54.8H873.2z"/>
	<path class="st0" d="M1035.9,903.8v113.4h-23.5v-57.4l-38.5,42.7l-38.3-42.7v57.4h-23.5V903.8h1.5l60.4,65.5l60.5-65.5H1035.9z"/>
</g>
<g>
	<path class="st0" d="M1291.3,903.4v113.4h-23.5v-57.4l-38.5,42.7l-38.3-42.7v57.4h-23.5V903.4h1.5l60.4,65.5l60.5-65.5H1291.3z"/>
</g>
<g>
	<path class="st0" d="M1411.4,1016.8l62.9-113.4h2.4l62.9,113.4H1514l-9.6-17.8h-58l-9.4,17.8H1411.4z M1457.8,980h35.1l-17.5-34.3
		L1457.8,980z"/>
	<path class="st0" d="M1589.2,1018.8c-8,0-15.2-1.1-21.7-3.4c-6.5-2.3-12.1-5.5-16.6-9.6c-4.6-4.1-8.2-9.2-10.7-15.1
		s-3.8-12.5-3.8-19.7v-67.7h23.5v67.5c0,5.7,1,10.4,3,14.1c2,3.7,4.5,6.7,7.5,8.8c3,2.2,6.2,3.7,9.6,4.5c3.4,0.8,6.5,1.2,9.2,1.2
		s5.7-0.4,9.2-1.2c3.4-0.8,6.6-2.3,9.6-4.5c3-2.2,5.5-5.1,7.5-8.8c2-3.7,3-8.4,3-14.1v-67.5h23.5V971c0,7.2-1.2,13.8-3.7,19.7
		c-2.5,5.9-6,10.9-10.6,15.1c-4.6,4.1-10.1,7.3-16.6,9.6C1604.5,1017.7,1597.2,1018.8,1589.2,1018.8z"/>
</g>
<g>
	<path class="st0" d="M1885.1,986.9c-2.7,4.6-6.1,8.7-10.1,12.3c-4,3.7-8.4,6.8-13.3,9.5c-4.9,2.6-10.1,4.7-15.8,6.1
		c-5.7,1.4-11.5,2.2-17.6,2.2c-8.9,0-17.4-1.6-25.3-4.7c-7.9-3.1-14.8-7.3-20.7-12.6c-5.9-5.3-10.6-11.6-14-18.7
		c-3.4-7.1-5.2-14.7-5.2-22.8c0-8.1,1.7-15.7,5.2-22.8c3.4-7.1,8.1-13.4,14-18.7c5.9-5.3,12.8-9.5,20.7-12.6
		c7.9-3.1,16.3-4.7,25.3-4.7c6.1,0,11.9,0.7,17.6,2.2c5.7,1.5,10.9,3.5,15.8,6.1c4.9,2.6,9.3,5.8,13.3,9.5c4,3.7,7.4,7.7,10.1,12.2
		l-22.5,8.2c-1.8-2.5-4-4.8-6.4-7c-2.5-2.2-5.2-4.1-8.2-5.7c-3-1.7-6.1-2.9-9.4-3.9c-3.3-0.9-6.8-1.4-10.3-1.4
		c-5.7,0-11.1,1.1-16.1,3.2c-5,2.1-9.3,4.9-13,8.5c-3.7,3.5-6.6,7.6-8.8,12.3c-2.2,4.7-3.3,9.6-3.3,14.7c0,5.2,1.1,10.1,3.3,14.7
		c2.2,4.7,5.1,8.7,8.8,12.3c3.7,3.5,8,6.3,13,8.5c5,2.1,10.3,3.2,16.1,3.2c3.5,0,7-0.5,10.3-1.4c3.3-0.9,6.5-2.2,9.4-3.9
		c3-1.7,5.7-3.6,8.2-5.8c2.5-2.2,4.6-4.6,6.4-7.1L1885.1,986.9z"/>
	<path class="st0" d="M2020.3,901.4v113.4h-24.1v-57.4l-39.3,42.7l-39.2-42.7v57.4h-24.1V901.4h1.5l61.7,65.5l61.8-65.5H2020.3z"/>
</g>
<g>
	<path class="st0" d="M527.5,923.8v28.1h59.4v20h-59.4v46.2H504V904.6h90.5v19.2H527.5z"/>
	<path class="st0" d="M692.3,923.8h-35.1v94.3h-23.5v-94.3h-35.3v-19.2h94V923.8z"/>
</g>
<g>
	<path class="st0" d="M289.3,904.7c-3.1,4.8-6.8,10.2-10.8,16.3c-4.1,6.1-8.3,12.3-12.5,18.7c-4.3,6.4-8.5,12.6-12.6,18.8
		c-4.1,6.2-7.8,11.7-10.9,16.7v43h-23.5v-43c-7.3-11.8-15-23.5-23.2-35.2c-8.2-11.7-16-23.4-23.4-35.2h27.4
		c5,7.8,10.2,15.8,15.5,24.1c5.3,8.3,10.4,16.3,15.5,24.1c2.5-3.6,5-7.5,7.7-11.6c2.7-4.1,5.4-8.3,8.1-12.5c2.7-4.2,5.4-8.3,8-12.4
		c2.6-4.1,5.1-7.9,7.5-11.6H289.3z"/>
	<path class="st0" d="M342.3,1018.2h-48.5V904.6h48.5c17.6,0,32,4.8,43.3,14.3c6,5.1,10.6,11.2,13.7,18.4c3.1,7.2,4.6,15.2,4.6,24.1
		c0,9-1.5,17.1-4.6,24.3c-3.1,7.2-7.6,13.3-13.7,18.4c-5.5,4.7-11.9,8.2-19.2,10.6C359.1,1017,351.1,1018.2,342.3,1018.2z
		 M317.3,998.9h25.1c4.4,0,8.8-0.5,13.3-1.4c4.5-0.9,8.5-2.8,12.2-5.5c3.6-2.7,6.6-6.5,9-11.4c2.4-4.9,3.5-11.2,3.5-19.1
		c0-7.9-1.2-14.2-3.5-19.2c-2.4-4.9-5.4-8.7-9.1-11.4c-3.7-2.7-7.8-4.5-12.3-5.4c-4.5-0.9-8.9-1.4-13.1-1.4h-25.1V998.9z"/>
</g>
<g>
	<path class="st0" d="M110.3,904.7v113.4H90.5v-57.4l-32.4,42.7l-32.2-42.7v57.4H6.1V904.7h1.3l50.8,65.5l50.9-65.5H110.3z"/>
</g>
<g>
	<path class="st0" d="M2142,155l-51.6-51.7V155h-23.5V41.4h23.5v57.7l48.9-57.6h28.9l-50.6,58.7l55.5,54.8H2142z"/>
	<path class="st0" d="M2304.6,41.5V155h-23.5V97.5l-38.5,42.7l-38.3-42.7V155h-23.5V41.5h1.5l60.4,65.5l60.5-65.5H2304.6z"/>
</g>
<g>
	<path class="st0" d="M2560.1,41.1v113.4h-23.5V97.2l-38.5,42.7l-38.3-42.7v57.4h-23.5V41.1h1.5l60.4,65.5l60.5-65.5H2560.1z"/>
</g>
<g>
	<path class="st0" d="M2327.2,331.7l-51.6-51.7v51.7H2252V218.1h23.5v57.7l48.9-57.6h28.9l-50.6,58.7l55.5,54.8H2327.2z"/>
	<path class="st0" d="M2489.8,218.2v113.4h-23.5v-57.4l-38.5,42.7l-38.3-42.7v57.4h-23.5V218.2h1.5l60.4,65.5l60.5-65.5H2489.8z"/>
</g>
<g>
	<path class="st0" d="M2385,513l-51.6-51.7V513h-23.5V399.4h23.5v57.7l48.9-57.6h28.9l-50.6,58.7l55.5,54.8H2385z"/>
	<path class="st0" d="M2547.6,399.6V513H2524v-57.4l-38.5,42.7l-38.3-42.7V513h-23.5V399.6h1.5l60.4,65.5l60.5-65.5H2547.6z"/>
</g>
<g>
	<path class="st0" d="M2043.8,419.6v28.1h59.4v20h-59.4V514h-23.5V400.4h90.5v19.2H2043.8z"/>
	<path class="st0" d="M2208.6,419.6h-35.1V514h-23.5v-94.3h-35.3v-19.2h94V419.6z"/>
</g>
<g>
	<path class="st0" d="M2505.8,683.7l-51.6-51.7v51.7h-23.5V570.1h23.5v57.7l48.9-57.6h28.9l-50.6,58.7l55.5,54.8H2505.8z"/>
</g>
<g>
	<path class="st0" d="M2160.1,590.3v28.1h59.4v20h-59.4v46.2h-23.5V571.1h90.5v19.2H2160.1z"/>
	<path class="st0" d="M2324.9,590.3h-35.1v94.3h-23.5v-94.3h-35.3v-19.2h94V590.3z"/>
</g>
<g>
	<path class="st0" d="M1985.8,216v113.4h-23.5V272l-38.5,42.7l-38.3-42.7v57.4h-23.5V216h1.5l60.4,65.5l60.5-65.5H1985.8z"/>
	<path class="st0" d="M2127.1,216v113.4h-23.5V272l-38.5,42.7l-38.3-42.7v57.4h-23.5V216h1.5l60.4,65.5l60.5-65.5H2127.1z"/>
</g>
<g>
	<path class="st0" d="M2028.5,846.9H2005V733.5h23.5V846.9z"/>
	<path class="st0" d="M2153.5,846.9l-80.9-67.5v67.5h-23.5V733.5h2.5l80.9,68.6v-68.6h23.5v113.4H2153.5z"/>
</g>
<g>
	<path class="st0" d="M2342.7,752.5v28.1h59.4v20h-59.4v46.2h-23.5V733.3h90.5v19.2H2342.7z"/>
	<path class="st0" d="M2507.5,752.5h-35.1v94.3h-23.5v-94.3h-35.3v-19.2h94V752.5z"/>
</g>
<g>
	<path class="st0" d="M2172.1,1018.2h-23.5V904.7h23.5V1018.2z"/>
	<path class="st0" d="M2297.1,1018.2l-80.9-67.5v67.5h-23.5V904.7h2.5l80.9,68.6v-68.6h23.5v113.4H2297.1z"/>
</g>
<g>
	<path class="st0" d="M2486.2,923.8v28.1h59.4v20h-59.4v46.2h-23.5V904.6h90.5v19.2H2486.2z"/>
</g>
</svg>
