<?xml version="1.0" encoding="utf-8"?>
<!-- Generator: Adobe Illustrator 23.0.1, SVG Export Plug-In . SVG Version: 6.00 Build 0)  -->
<svg version="1.1" id="Layer_1" xmlns="http://www.w3.org/2000/svg" xmlns:xlink="http://www.w3.org/1999/xlink" x="0px" y="0px"
	 viewBox="0 0 425.8 82.9" style="enable-background:new 0 0 425.8 82.9;" xml:space="preserve">
<style type="text/css">
	.st0{fill:#1B75BC;}
</style>
<title>Asset 3</title>
<g>
	<polygon points="105.2,41.4 90.9,10.4 90.2,10.4 75.9,41.3 64.9,10.4 57.8,22.2 74.2,66.8 75.2,66.8 90.6,33.9 105.8,66.7 
		106.9,66.7 127.9,10.4 116.4,10.4 	"/>
	<polygon points="136.3,66.7 147.1,66.7 147.1,19.6 136.3,10.4 	"/>
	<polygon points="152.2,10.4 152.2,19.9 168.4,19.9 168.4,58.1 179.2,69.2 179.2,19.9 195.2,19.9 195.2,10.4 	"/>
	<path d="M214.7,25.8c1.6-1.7,3.6-3.2,5.8-4.3c2.2-1.1,4.6-1.6,7.2-1.6c1.6,0,3.1,0.2,4.6,0.7c1.5,0.4,2.9,1.1,4.2,1.9
		c1.4,0.8,2.6,1.7,3.7,2.9c1.1,1.1,2.1,2.3,2.9,3.6l10.1-4.2c-1.2-2.2-2.7-4.3-4.5-6.1s-3.8-3.5-6-4.8c-2.2-1.3-4.6-2.3-7.1-3.1
		c-2.5-0.7-5.2-1.1-7.9-1.1c-4,0-7.8,0.8-11.3,2.3c-3.6,1.6-6.7,3.8-9.3,6.4c-2.7,2.8-4.8,5.9-6.3,9.5s-2.3,7.4-2.3,11.5
		s0.8,8,2.3,11.5c1.6,3.7,3.7,6.8,6.3,9.5c2.7,2.8,5.8,4.9,9.3,6.4s7.3,2.3,11.3,2.3c2.7,0,5.3-0.4,7.9-1.1c2.6-0.7,4.9-1.7,7.1-3.1
		c2.2-1.3,4.2-3,6-4.8c1.8-1.8,3.3-3.9,4.5-6.2l-10.1-4.2c-0.8,1.2-1.8,2.4-2.9,3.6c-1.1,1.1-2.4,2.1-3.7,3s-2.7,1.4-4.2,1.9
		s-3,0.7-4.6,0.7c-2.6,0-5-0.5-7.2-1.6s-4.2-2.5-5.8-4.3c-1.6-1.8-2.9-3.9-3.9-6.2s-1.5-4.8-1.5-7.4c0-2.5,0.5-5.1,1.5-7.4
		C211.7,29.7,213.1,27.5,214.7,25.8z"/>
	<polygon points="301.1,34.8 273.3,34.8 273.3,10.4 262.5,10.4 262.5,69.2 273.3,55.7 273.3,44.3 301.1,44.3 301.1,66.8 311.9,66.8 
		311.9,10.4 301.1,10.4 	"/>
	<polygon points="324.1,66.7 365.6,66.7 365.6,57 334.9,57 334.9,43.8 362.2,43.8 362.2,34 334.9,34 334.9,19.9 365.6,19.9 
		354.9,10.4 324.1,10.4 	"/>
	<path class="st0" d="M393.9,10.4c-2.9,0-5.5,0.5-7.9,1.4c-2.4,0.9-4.4,2.3-6.1,4c-1.7,1.8-3,3.8-4,6.2c-0.9,2.4-1.4,5-1.4,7.8
		c0,4.3,1.1,8,3.2,11.2c2.1,3.2,5,5.5,8.5,6.9c-4.7,6.2-9.4,12.5-14,18.9h12.9c2.3-3,4.5-5.9,6.6-8.9c2.1-3,4.3-6,6.4-9.1h10.6v18
		l10.8-18.3V10.4H393.9z M408.8,39.3H394c-0.9,0-2-0.2-3-0.6c-1-0.4-2-1-2.8-1.8s-1.5-1.8-2-3s-0.8-2.6-0.8-4.2
		c0-0.8,0.1-1.8,0.3-2.9c0.2-1.1,0.6-2.2,1.2-3.2c0.6-1,1.5-1.9,2.6-2.6c1.1-0.7,2.6-1.1,4.5-1.1h14.8V39.3z"/>
	<path d="M49.7,39.7c-1.2-1.2-2.5-2.2-4-3s-3-1.4-4.6-1.8c-1.5-0.5-3-0.8-4.4-1.1c-1.4-0.3-2.7-0.5-3.7-0.8
		c-1.4-0.4-2.9-0.7-4.4-1.1c-1.5-0.4-2.9-0.8-4.1-1.3c-1.3-0.5-2.3-1.2-3.1-1.9c-0.8-0.8-1.2-1.7-1.2-2.8c0-1.1,0.3-2.1,1-2.9
		c0.7-0.8,1.5-1.4,2.6-2c1-0.5,2.1-0.9,3.3-1.1c1.2-0.2,2.2-0.3,3.1-0.3c2.7,0,5.3,0.4,7.6,1.5c2.4,1.1,0,0,2.9,1.4l10.5-5.6
		c-1.7-1.2-3.3-2.3-4.8-3.2c-1.5-0.9-3-1.6-4.6-2.2c-1.6-0.6-3.2-1-5-1.3c-1.8-0.3-3.9-0.5-6.2-0.5c-2.3,0-4.7,0.3-7.2,0.8
		c-2.5,0.5-4.7,1.4-6.8,2.7c-2,1.3-3.7,3-5,5.2c-1.3,2.2-2,4.9-2,8.2c0,2.3,0.4,4.2,1.1,5.9c0.7,1.7,1.7,3.1,2.9,4.3
		c1.2,1.2,2.6,2.2,4.1,3c1.5,0.8,3,1.4,4.6,1.9c1.6,0.5,3.1,0.9,4.5,1.2c1.5,0.3,2.7,0.5,3.8,0.7c1.7,0.3,3.3,0.6,4.8,1
		c1.5,0.4,2.9,0.8,4,1.3c1.1,0.5,2,1.2,2.7,2c0.7,0.8,1,1.8,1,2.9c0,0.9-0.2,1.8-0.7,2.7c-0.5,0.9-1.1,1.7-2,2.4
		c-0.9,0.7-2,1.3-3.3,1.7c-1.3,0.4-2.8,0.7-4.5,0.7c-3.2,0-6.3-0.7-9.2-2.1c-2.9-1.4-0.7-0.3-3.7-2L9,59.3c1.7,1.2,3.4,2.4,5,3.4
		c1.6,1,3.3,1.9,5.1,2.7c1.8,0.7,3.8,1.3,6,1.8c2.2,0.4,4.7,0.7,7.6,0.7c3.1,0,6-0.4,8.5-1.1s4.8-1.8,6.6-3.2
		c1.9-1.4,3.3-3.2,4.3-5.4c1-2.2,1.5-4.7,1.5-7.6c0-2.5-0.4-4.7-1.1-6.4C51.8,42.4,50.8,40.9,49.7,39.7z"/>
</g>
</svg>
