<?xml version="1.0" encoding="utf-8"?>
<!-- Generator: Adobe Illustrator 23.0.1, SVG Export Plug-In . SVG Version: 6.00 Build 0)  -->
<svg version="1.1" id="Layer_1" xmlns="http://www.w3.org/2000/svg" xmlns:xlink="http://www.w3.org/1999/xlink" x="0px" y="0px"
	 viewBox="0 0 2569.8 1371.6" style="enable-background:new 0 0 2569.8 1371.6;" xml:space="preserve">
<style type="text/css">
	.st0{fill:#1B75BC;}
</style>
<title>5Asset 12</title>
<g>
	<path class="st0" d="M114.9,32.2v132.3H94.7v-67l-33.1,49.8L28.8,97.5v67H8.5V32.2h1.3l51.8,76.4l52-76.4H114.9z"/>
	<path class="st0" d="M152.9,164.5h-20.2V32.2h20.2V164.5z"/>
	<path class="st0" d="M260.1,164.5l-69.4-78.8v78.8h-20.2V32.2h2.2l69.4,80v-80h20.2v132.3H260.1z"/>
</g>
<g>
	<path class="st0" d="M416.9,54.5v32.8h51v23.4h-51v53.9h-20.2V32h77.7v22.4H416.9z"/>
	<path class="st0" d="M478.3,147.1l11-20.3c5.3,4.6,10.8,8.5,16.4,11.9c5.6,3.3,11.5,5,17.7,5c3.3,0,6.2-0.5,8.7-1.5
		c2.5-1,4.6-2.4,6.4-4s3-3.5,3.9-5.6c0.9-2.1,1.3-4.2,1.3-6.2c0-2.7-0.6-4.9-1.9-6.8c-1.3-1.9-3-3.4-5.2-4.6
		c-2.2-1.2-4.7-2.2-7.6-3.1c-2.9-0.8-6-1.6-9.2-2.4c-2.1-0.5-4.6-1.1-7.4-1.7c-2.8-0.7-5.7-1.6-8.7-2.7c-3-1.1-5.9-2.7-8.8-4.5
		c-2.9-1.9-5.5-4.2-7.8-7.1c-2.3-2.8-4.2-6.2-5.6-10.1c-1.4-3.9-2.1-8.5-2.1-13.8c0-7.7,1.2-14.1,3.8-19.3c2.5-5.1,5.7-9.2,9.6-12.1
		c3.9-3,8.2-5,13-6.2c4.8-1.2,9.4-1.8,13.8-1.8c4.4,0,8.4,0.4,11.8,1.1c3.5,0.7,6.7,1.8,9.7,3.2c3,1.4,5.9,3.1,8.7,5.3
		c2.8,2.1,5.9,4.6,9.2,7.5l-11.3,19.9c-5-4.3-9.8-7.7-14.4-10c-4.6-2.3-9.5-3.4-14.6-3.4c-1.7,0-3.7,0.3-5.9,0.8
		c-2.2,0.5-4.3,1.4-6.3,2.6c-2,1.2-3.6,2.7-4.9,4.6c-1.3,1.9-1.9,4.1-1.9,6.8c0,2.7,0.8,4.9,2.3,6.7c1.5,1.8,3.5,3.3,5.9,4.5
		c2.4,1.2,5.1,2.2,7.9,3.1c2.9,0.8,5.7,1.7,8.4,2.5c2,0.6,4.4,1.2,7.1,1.8c2.7,0.6,5.6,1.4,8.5,2.5c2.9,1.1,5.8,2.5,8.7,4.3
		c2.9,1.8,5.5,4.1,7.7,7c2.3,2.8,4.1,6.3,5.5,10.5c1.4,4.2,2.1,9.2,2.1,15.1c0,6.9-1,12.9-2.9,17.9c-1.9,5.1-4.7,9.3-8.2,12.6
		c-3.6,3.3-7.8,5.8-12.7,7.5c-4.9,1.7-10.3,2.5-16.3,2.5c-5.5,0-10.3-0.5-14.5-1.5c-4.2-1-8-2.4-11.5-4.2c-3.5-1.7-6.7-3.8-9.8-6.2
		C484.7,152.7,481.5,150,478.3,147.1z"/>
</g>
<g>
	<path class="st0" d="M803,164.5l-69.4-78.8v78.8h-20.2V32.2h2.2l69.4,80v-80h20.2v132.3H803z"/>
	<path class="st0" d="M815.7,147.1l11-20.3c5.3,4.6,10.8,8.5,16.4,11.9c5.6,3.3,11.5,5,17.7,5c3.3,0,6.2-0.5,8.7-1.5
		c2.5-1,4.6-2.4,6.4-4s3-3.5,3.9-5.6c0.9-2.1,1.3-4.2,1.3-6.2c0-2.7-0.6-4.9-1.9-6.8c-1.3-1.9-3-3.4-5.2-4.6
		c-2.2-1.2-4.7-2.2-7.6-3.1c-2.9-0.8-6-1.6-9.2-2.4c-2.1-0.5-4.6-1.1-7.4-1.7c-2.8-0.7-5.7-1.6-8.7-2.7c-3-1.1-5.9-2.7-8.8-4.5
		c-2.9-1.9-5.5-4.2-7.8-7.1c-2.3-2.8-4.2-6.2-5.6-10.1c-1.4-3.9-2.1-8.5-2.1-13.8c0-7.7,1.2-14.1,3.8-19.3c2.5-5.1,5.7-9.2,9.6-12.1
		c3.9-3,8.2-5,13-6.2c4.8-1.2,9.4-1.8,13.8-1.8c4.4,0,8.4,0.4,11.8,1.1c3.5,0.7,6.7,1.8,9.7,3.2c3,1.4,5.9,3.1,8.7,5.3
		c2.8,2.1,5.9,4.6,9.2,7.5L885,66.9c-5-4.3-9.8-7.7-14.4-10c-4.6-2.3-9.5-3.4-14.6-3.4c-1.7,0-3.7,0.3-5.9,0.8
		c-2.2,0.5-4.3,1.4-6.3,2.6c-2,1.2-3.6,2.7-4.9,4.6c-1.3,1.9-1.9,4.1-1.9,6.8c0,2.7,0.8,4.9,2.3,6.7c1.5,1.8,3.5,3.3,5.9,4.5
		c2.4,1.2,5.1,2.2,7.9,3.1c2.9,0.8,5.7,1.7,8.4,2.5c2,0.6,4.4,1.2,7.1,1.8c2.7,0.6,5.6,1.4,8.5,2.5c2.9,1.1,5.8,2.5,8.7,4.3
		c2.9,1.8,5.5,4.1,7.7,7c2.3,2.8,4.1,6.3,5.5,10.5c1.4,4.2,2.1,9.2,2.1,15.1c0,6.9-1,12.9-2.9,17.9c-1.9,5.1-4.7,9.3-8.2,12.6
		c-3.6,3.3-7.8,5.8-12.7,7.5c-4.9,1.7-10.3,2.5-16.3,2.5c-5.5,0-10.3-0.5-14.5-1.5c-4.2-1-8-2.4-11.5-4.2c-3.5-1.7-6.7-3.8-9.8-6.2
		C822.1,152.7,818.9,150,815.7,147.1z"/>
</g>
<g>
	<path class="st0" d="M1129.8,32.2c-2.7,5.6-5.8,11.9-9.3,19c-3.5,7.1-7.1,14.4-10.8,21.8c-3.7,7.4-7.3,14.7-10.8,21.9
		c-3.6,7.2-6.7,13.7-9.4,19.5v50.1h-20.2v-50.1c-6.3-13.8-12.9-27.5-19.9-41.1c-7-13.6-13.7-27.3-20.1-41.1h23.5
		c4.3,9.1,8.8,18.4,13.3,28.1c4.5,9.7,8.9,19,13.3,28.1c2.1-4.2,4.3-8.7,6.6-13.6c2.3-4.8,4.6-9.7,6.9-14.6s4.6-9.7,6.9-14.5
		c2.3-4.8,4.4-9.3,6.4-13.5H1129.8z"/>
	<path class="st0" d="M1154,164.5h-20.2V32h48c5.4,0,10.3,1.1,14.8,3.3c4.5,2.2,8.3,5.4,11.5,9.4c3.2,4,5.7,8.9,7.4,14.5
		c1.8,5.6,2.7,11.7,2.7,18.4c0,10-2,18.8-6,26.3c-4,7.5-9.3,12.9-16,16.1c8.9,14.7,17.6,29.6,26.3,44.5h-24.1
		c-4.2-6.9-8.3-13.8-12.4-20.8c-4-7-8.1-14.1-12.1-21.4h-20V164.5z M1154,99.9h27.8c1.8,0,3.7-0.5,5.7-1.4c2-0.9,3.7-2.3,5.3-4.2
		c1.5-1.9,2.8-4.2,3.8-7c1-2.8,1.5-6,1.5-9.8c0-1.9-0.2-4.2-0.6-6.9c-0.4-2.7-1.2-5.2-2.3-7.6c-1.1-2.4-2.8-4.5-4.9-6.2
		c-2.1-1.7-4.9-2.5-8.5-2.5H1154V99.9z"/>
	<path class="st0" d="M1225.1,147.1l11-20.3c5.3,4.6,10.8,8.5,16.4,11.9c5.6,3.3,11.5,5,17.7,5c3.3,0,6.2-0.5,8.7-1.5
		c2.5-1,4.6-2.4,6.4-4c1.7-1.6,3-3.5,3.9-5.6c0.9-2.1,1.3-4.2,1.3-6.2c0-2.7-0.6-4.9-1.9-6.8c-1.3-1.9-3-3.4-5.2-4.6
		c-2.2-1.2-4.7-2.2-7.6-3.1c-2.9-0.8-6-1.6-9.2-2.4c-2.1-0.5-4.6-1.1-7.4-1.7c-2.8-0.7-5.7-1.6-8.7-2.7c-3-1.1-5.9-2.7-8.8-4.5
		c-2.9-1.9-5.5-4.2-7.8-7.1c-2.3-2.8-4.2-6.2-5.6-10.1c-1.4-3.9-2.1-8.5-2.1-13.8c0-7.7,1.2-14.1,3.8-19.3c2.5-5.1,5.7-9.2,9.6-12.1
		c3.9-3,8.2-5,13-6.2c4.8-1.2,9.4-1.8,13.8-1.8c4.4,0,8.4,0.4,11.8,1.1c3.5,0.7,6.7,1.8,9.7,3.2c3,1.4,5.9,3.1,8.7,5.3
		c2.8,2.1,5.9,4.6,9.2,7.5l-11.3,19.9c-5-4.3-9.8-7.7-14.4-10c-4.6-2.3-9.5-3.4-14.6-3.4c-1.7,0-3.7,0.3-5.9,0.8
		c-2.2,0.5-4.3,1.4-6.3,2.6c-2,1.2-3.6,2.7-4.9,4.6c-1.3,1.9-1.9,4.1-1.9,6.8c0,2.7,0.8,4.9,2.3,6.7c1.5,1.8,3.5,3.3,5.9,4.5
		c2.4,1.2,5.1,2.2,7.9,3.1c2.9,0.8,5.7,1.7,8.4,2.5c2,0.6,4.4,1.2,7.1,1.8c2.7,0.6,5.6,1.4,8.5,2.5c2.9,1.1,5.8,2.5,8.7,4.3
		c2.9,1.8,5.5,4.1,7.7,7c2.3,2.8,4.1,6.3,5.5,10.5c1.4,4.2,2.1,9.2,2.1,15.1c0,6.9-1,12.9-2.9,17.9c-1.9,5.1-4.7,9.3-8.2,12.6
		c-3.6,3.3-7.8,5.8-12.7,7.5c-4.9,1.7-10.3,2.5-16.3,2.5c-5.5,0-10.3-0.5-14.5-1.5c-4.2-1-8-2.4-11.5-4.2c-3.5-1.7-6.7-3.8-9.8-6.2
		C1231.6,152.7,1228.4,150,1225.1,147.1z"/>
</g>
<g>
	<path class="st0" d="M1484.9,164.5h-41.7V32h41.7c15.1,0,27.5,5.6,37.2,16.7c5.2,5.9,9.1,13.1,11.7,21.5c2.6,8.4,4,17.8,4,28.2
		c0,10.5-1.3,19.9-4,28.3c-2.6,8.4-6.6,15.5-11.7,21.5c-4.7,5.4-10.2,9.5-16.5,12.3C1499.3,163.1,1492.4,164.5,1484.9,164.5z
		 M1463.5,142.1h21.5c3.8,0,7.6-0.5,11.4-1.6c3.8-1.1,7.3-3.2,10.5-6.4c3.1-3.2,5.7-7.6,7.7-13.3c2-5.7,3-13.1,3-22.3
		c0-9.2-1-16.6-3-22.4c-2-5.7-4.6-10.2-7.8-13.3c-3.2-3.1-6.7-5.3-10.5-6.3c-3.8-1.1-7.6-1.6-11.3-1.6h-21.5V142.1z"/>
	<path class="st0" d="M1526.4,164.5l54-132.3h2l54,132.3h-21.9l-8.2-20.8h-49.8l-8.1,20.8H1526.4z M1566.3,121.6h30.2l-15-40
		L1566.3,121.6z"/>
	<path class="st0" d="M1706.9,32.2c-2.7,5.6-5.8,11.9-9.3,19c-3.5,7.1-7.1,14.4-10.8,21.8c-3.7,7.4-7.3,14.7-10.8,21.9
		c-3.6,7.2-6.7,13.7-9.4,19.5v50.1h-20.2v-50.1c-6.3-13.8-12.9-27.5-19.9-41.1c-7-13.6-13.7-27.3-20.1-41.1h23.5
		c4.3,9.1,8.8,18.4,13.3,28.1c4.5,9.7,8.9,19,13.3,28.1c2.1-4.2,4.3-8.7,6.6-13.6c2.3-4.8,4.6-9.7,6.9-14.6s4.6-9.7,6.9-14.5
		c2.3-4.8,4.4-9.3,6.4-13.5H1706.9z"/>
</g>
<g>
	<path class="st0" d="M1824.2,147.1l11-20.3c5.3,4.6,10.8,8.5,16.4,11.9c5.6,3.3,11.5,5,17.7,5c3.3,0,6.2-0.5,8.7-1.5
		c2.5-1,4.6-2.4,6.4-4c1.7-1.6,3-3.5,3.9-5.6c0.9-2.1,1.3-4.2,1.3-6.2c0-2.7-0.6-4.9-1.9-6.8c-1.3-1.9-3-3.4-5.2-4.6
		c-2.2-1.2-4.7-2.2-7.7-3.1c-2.9-0.8-6-1.6-9.2-2.4c-2.1-0.5-4.6-1.1-7.4-1.7c-2.8-0.7-5.7-1.6-8.7-2.7c-3-1.1-5.9-2.7-8.8-4.5
		c-2.9-1.9-5.5-4.2-7.8-7.1c-2.3-2.8-4.2-6.2-5.6-10.1c-1.4-3.9-2.1-8.5-2.1-13.8c0-7.7,1.2-14.1,3.8-19.3c2.5-5.1,5.7-9.2,9.6-12.1
		c3.9-3,8.2-5,13-6.2c4.8-1.2,9.4-1.8,13.8-1.8c4.4,0,8.4,0.4,11.8,1.1c3.5,0.7,6.7,1.8,9.7,3.2c3,1.4,5.9,3.1,8.7,5.3
		c2.8,2.1,5.9,4.6,9.2,7.5l-11.3,19.9c-5-4.3-9.8-7.7-14.4-10c-4.6-2.3-9.5-3.4-14.6-3.4c-1.7,0-3.7,0.3-5.9,0.8
		c-2.2,0.5-4.3,1.4-6.3,2.6c-2,1.2-3.6,2.7-4.9,4.6c-1.3,1.9-1.9,4.1-1.9,6.8c0,2.7,0.8,4.9,2.3,6.7c1.5,1.8,3.5,3.3,5.9,4.5
		c2.4,1.2,5.1,2.2,7.9,3.1c2.9,0.8,5.7,1.7,8.4,2.5c2,0.6,4.4,1.2,7.1,1.8c2.7,0.6,5.6,1.4,8.5,2.5c2.9,1.1,5.8,2.5,8.7,4.3
		c2.9,1.8,5.5,4.1,7.7,7c2.3,2.8,4.1,6.3,5.5,10.5c1.4,4.2,2.1,9.2,2.1,15.1c0,6.9-1,12.9-2.9,17.9c-1.9,5.1-4.7,9.3-8.2,12.6
		c-3.6,3.3-7.8,5.8-12.7,7.5c-4.9,1.7-10.3,2.5-16.3,2.5c-5.5,0-10.3-0.5-14.5-1.5s-8-2.4-11.5-4.2c-3.5-1.7-6.7-3.8-9.8-6.2
		C1830.7,152.7,1827.5,150,1824.2,147.1z"/>
</g>
<g>
	<path class="st0" d="M2155,32.2v132.3h-20.2v-67l-33.1,49.8l-32.9-49.8v67h-20.2V32.2h1.3l51.8,76.4l52-76.4H2155z"/>
	<path class="st0" d="M2165.7,147.1l11-20.3c5.3,4.6,10.8,8.5,16.4,11.9c5.6,3.3,11.5,5,17.7,5c3.3,0,6.2-0.5,8.7-1.5
		c2.5-1,4.6-2.4,6.4-4c1.7-1.6,3-3.5,3.9-5.6c0.9-2.1,1.3-4.2,1.3-6.2c0-2.7-0.6-4.9-1.9-6.8c-1.3-1.9-3-3.4-5.2-4.6
		c-2.2-1.2-4.7-2.2-7.7-3.1c-2.9-0.8-6-1.6-9.2-2.4c-2.1-0.5-4.6-1.1-7.4-1.7c-2.8-0.7-5.7-1.6-8.7-2.7c-3-1.1-5.9-2.7-8.8-4.5
		c-2.9-1.9-5.5-4.2-7.8-7.1c-2.3-2.8-4.2-6.2-5.6-10.1c-1.4-3.9-2.1-8.5-2.1-13.8c0-7.7,1.2-14.1,3.8-19.3c2.5-5.1,5.7-9.2,9.6-12.1
		c3.9-3,8.2-5,13-6.2c4.8-1.2,9.4-1.8,13.8-1.8c4.4,0,8.4,0.4,11.8,1.1c3.5,0.7,6.7,1.8,9.7,3.2c3,1.4,5.9,3.1,8.7,5.3
		c2.8,2.1,5.9,4.6,9.2,7.5L2235,66.9c-5-4.3-9.8-7.7-14.4-10c-4.6-2.3-9.5-3.4-14.6-3.4c-1.7,0-3.7,0.3-5.9,0.8
		c-2.2,0.5-4.3,1.4-6.3,2.6c-2,1.2-3.6,2.7-4.9,4.6c-1.3,1.9-1.9,4.1-1.9,6.8c0,2.7,0.8,4.9,2.3,6.7c1.5,1.8,3.5,3.3,5.9,4.5
		c2.4,1.2,5.1,2.2,7.9,3.1c2.9,0.8,5.7,1.7,8.4,2.5c2,0.6,4.4,1.2,7.1,1.8c2.7,0.6,5.6,1.4,8.5,2.5c2.9,1.1,5.8,2.5,8.7,4.3
		c2.9,1.8,5.5,4.1,7.7,7c2.3,2.8,4.1,6.3,5.5,10.5c1.4,4.2,2.1,9.2,2.1,15.1c0,6.9-1,12.9-2.9,17.9c-1.9,5.1-4.7,9.3-8.2,12.6
		c-3.6,3.3-7.8,5.8-12.7,7.5c-4.9,1.7-10.3,2.5-16.3,2.5c-5.5,0-10.3-0.5-14.5-1.5s-8-2.4-11.5-4.2c-3.5-1.7-6.7-3.8-9.8-6.2
		C2172.2,152.7,2169,150,2165.7,147.1z"/>
</g>
<g>
	<path class="st0" d="M2462.9,32v132.5h-20.2v-52.7h-52.1v52.7h-20.2V32h20.2v57.4h52.1V32H2462.9z"/>
	<path class="st0" d="M2497.7,164.5h-20.2V32h48c5.4,0,10.3,1.1,14.8,3.3c4.5,2.2,8.3,5.4,11.5,9.4c3.2,4,5.7,8.9,7.4,14.5
		c1.8,5.6,2.7,11.7,2.7,18.4c0,10-2,18.8-6,26.3c-4,7.5-9.3,12.9-16,16.1c8.9,14.7,17.6,29.6,26.3,44.5h-24.1
		c-4.2-6.9-8.3-13.8-12.4-20.8c-4-7-8.1-14.1-12.1-21.4h-20V164.5z M2497.7,99.9h27.8c1.8,0,3.7-0.5,5.7-1.4s3.7-2.3,5.3-4.2
		c1.5-1.9,2.8-4.2,3.8-7c1-2.8,1.5-6,1.5-9.8c0-1.9-0.2-4.2-0.6-6.9c-0.4-2.7-1.2-5.2-2.3-7.6c-1.2-2.4-2.8-4.5-4.9-6.2
		c-2.1-1.7-4.9-2.5-8.5-2.5h-27.8V99.9z"/>
</g>
<g>
	<path class="st0" d="M325.9,235v132.3h-20.2v-67l-33.1,49.8l-32.9-49.8v67h-20.2V235h1.3l51.8,76.4l52-76.4H325.9z"/>
	<path class="st0" d="M363.8,367.4h-20.2V235h20.2V367.4z"/>
	<path class="st0" d="M471.1,367.4l-69.4-78.8v78.8h-20.2V235h2.2l69.4,80v-80h20.2v132.3H471.1z"/>
</g>
<g>
	<path class="st0" d="M627.9,257.3v32.8h51v23.4h-51v53.9h-20.2V234.9h77.7v22.4H627.9z"/>
	<path class="st0" d="M689.2,350l11-20.3c5.3,4.6,10.8,8.5,16.4,11.9c5.6,3.3,11.5,5,17.7,5c3.3,0,6.2-0.5,8.7-1.5
		c2.5-1,4.6-2.4,6.4-4s3-3.5,3.9-5.6c0.9-2.1,1.3-4.2,1.3-6.2c0-2.7-0.6-4.9-1.9-6.8c-1.3-1.9-3-3.4-5.2-4.6
		c-2.2-1.2-4.7-2.2-7.6-3.1c-2.9-0.8-6-1.6-9.2-2.4c-2.1-0.5-4.6-1.1-7.4-1.7c-2.8-0.7-5.7-1.6-8.7-2.7c-3-1.1-5.9-2.7-8.8-4.5
		c-2.9-1.9-5.5-4.2-7.8-7.1c-2.3-2.8-4.2-6.2-5.6-10.1c-1.4-3.9-2.1-8.5-2.1-13.8c0-7.7,1.2-14.1,3.8-19.3c2.5-5.1,5.7-9.2,9.6-12.1
		c3.9-3,8.2-5,13-6.2c4.8-1.2,9.4-1.8,13.8-1.8c4.4,0,8.4,0.4,11.8,1.1c3.5,0.7,6.7,1.8,9.7,3.2c3,1.4,5.9,3.1,8.7,5.3
		c2.8,2.1,5.9,4.6,9.2,7.5l-11.3,19.9c-5-4.3-9.8-7.7-14.4-10c-4.6-2.3-9.5-3.4-14.6-3.4c-1.7,0-3.7,0.3-5.9,0.8
		c-2.2,0.5-4.3,1.4-6.3,2.6c-2,1.2-3.6,2.7-4.9,4.6c-1.3,1.9-1.9,4.1-1.9,6.8c0,2.7,0.8,4.9,2.3,6.7c1.5,1.8,3.5,3.3,5.9,4.5
		c2.4,1.2,5.1,2.2,7.9,3.1c2.9,0.8,5.7,1.7,8.4,2.5c2,0.6,4.4,1.2,7.1,1.8c2.7,0.6,5.6,1.4,8.5,2.5c2.9,1.1,5.8,2.5,8.7,4.3
		c2.9,1.8,5.5,4.1,7.7,7c2.3,2.8,4.1,6.3,5.5,10.5c1.4,4.2,2.1,9.2,2.1,15.1c0,6.9-1,12.9-2.9,17.9c-1.9,5.1-4.7,9.3-8.2,12.6
		c-3.6,3.3-7.8,5.8-12.7,7.5c-4.9,1.7-10.3,2.5-16.3,2.5c-5.5,0-10.3-0.5-14.5-1.5c-4.2-1-8-2.4-11.5-4.2c-3.5-1.7-6.7-3.8-9.8-6.2
		C695.6,355.6,692.5,352.9,689.2,350z"/>
</g>
<g>
	<path class="st0" d="M1013.9,367.4l-69.4-78.8v78.8h-20.2V235h2.2l69.4,80v-80h20.2v132.3H1013.9z"/>
	<path class="st0" d="M1026.6,350l11-20.3c5.3,4.6,10.8,8.5,16.4,11.9c5.6,3.3,11.5,5,17.7,5c3.3,0,6.2-0.5,8.7-1.5
		c2.5-1,4.6-2.4,6.4-4s3-3.5,3.9-5.6c0.9-2.1,1.3-4.2,1.3-6.2c0-2.7-0.6-4.9-1.9-6.8c-1.3-1.9-3-3.4-5.2-4.6
		c-2.2-1.2-4.7-2.2-7.6-3.1c-2.9-0.8-6-1.6-9.2-2.4c-2.1-0.5-4.6-1.1-7.4-1.7c-2.8-0.7-5.7-1.6-8.7-2.7c-3-1.1-5.9-2.7-8.8-4.5
		c-2.9-1.9-5.5-4.2-7.8-7.1c-2.3-2.8-4.2-6.2-5.6-10.1c-1.4-3.9-2.1-8.5-2.1-13.8c0-7.7,1.2-14.1,3.8-19.3c2.5-5.1,5.7-9.2,9.6-12.1
		c3.9-3,8.2-5,13-6.2c4.8-1.2,9.4-1.8,13.8-1.8c4.4,0,8.4,0.4,11.8,1.1c3.5,0.7,6.7,1.8,9.7,3.2c3,1.4,5.9,3.1,8.7,5.3
		c2.8,2.1,5.9,4.6,9.2,7.5l-11.3,19.9c-5-4.3-9.8-7.7-14.4-10c-4.6-2.3-9.5-3.4-14.6-3.4c-1.7,0-3.7,0.3-5.9,0.8
		c-2.2,0.5-4.3,1.4-6.3,2.6c-2,1.2-3.6,2.7-4.9,4.6c-1.3,1.9-1.9,4.1-1.9,6.8c0,2.7,0.8,4.9,2.3,6.7c1.5,1.8,3.5,3.3,5.9,4.5
		c2.4,1.2,5.1,2.2,7.9,3.1c2.9,0.8,5.7,1.7,8.4,2.5c2,0.6,4.4,1.2,7.1,1.8c2.7,0.6,5.6,1.4,8.5,2.5c2.9,1.1,5.8,2.5,8.7,4.3
		c2.9,1.8,5.5,4.1,7.7,7c2.3,2.8,4.1,6.3,5.5,10.5c1.4,4.2,2.1,9.2,2.1,15.1c0,6.9-1,12.9-2.9,17.9c-1.9,5.1-4.7,9.3-8.2,12.6
		c-3.6,3.3-7.8,5.8-12.7,7.5c-4.9,1.7-10.3,2.5-16.3,2.5c-5.5,0-10.3-0.5-14.5-1.5c-4.2-1-8-2.4-11.5-4.2c-3.5-1.7-6.7-3.8-9.8-6.2
		C1033,355.6,1029.9,352.9,1026.6,350z"/>
</g>
<g>
	<path class="st0" d="M1340.8,235c-2.7,5.6-5.8,11.9-9.3,19c-3.5,7.1-7.1,14.4-10.8,21.8c-3.7,7.4-7.3,14.7-10.8,21.9
		c-3.6,7.2-6.7,13.7-9.4,19.5v50.1h-20.2v-50.1c-6.3-13.8-12.9-27.5-19.9-41.1c-7-13.6-13.7-27.3-20.1-41.1h23.5
		c4.3,9.1,8.8,18.4,13.3,28.1c4.5,9.7,8.9,19,13.3,28.1c2.1-4.2,4.3-8.7,6.6-13.6c2.3-4.8,4.6-9.7,6.9-14.6s4.6-9.7,6.9-14.5
		c2.3-4.8,4.4-9.3,6.4-13.5H1340.8z"/>
	<path class="st0" d="M1364.9,367.4h-20.2V234.9h48c5.4,0,10.3,1.1,14.8,3.3c4.5,2.2,8.3,5.4,11.5,9.4c3.2,4,5.7,8.9,7.4,14.5
		c1.8,5.6,2.7,11.7,2.7,18.4c0,10-2,18.8-6,26.3c-4,7.5-9.3,12.9-16,16.1c8.9,14.7,17.6,29.6,26.3,44.5h-24.1
		c-4.2-6.9-8.3-13.8-12.4-20.8c-4-7-8.1-14.1-12.1-21.4h-20V367.4z M1364.9,302.8h27.8c1.8,0,3.7-0.5,5.7-1.4s3.7-2.3,5.3-4.2
		c1.5-1.9,2.8-4.2,3.8-7c1-2.8,1.5-6,1.5-9.8c0-1.9-0.2-4.2-0.6-6.9c-0.4-2.7-1.2-5.2-2.3-7.6c-1.2-2.4-2.8-4.5-4.9-6.2
		c-2.1-1.7-4.9-2.5-8.5-2.5h-27.8V302.8z"/>
	<path class="st0" d="M1436,350l11-20.3c5.3,4.6,10.8,8.5,16.4,11.9c5.6,3.3,11.5,5,17.7,5c3.3,0,6.2-0.5,8.7-1.5
		c2.5-1,4.6-2.4,6.4-4c1.7-1.6,3-3.5,3.9-5.6c0.9-2.1,1.3-4.2,1.3-6.2c0-2.7-0.6-4.9-1.9-6.8c-1.3-1.9-3-3.4-5.2-4.6
		c-2.2-1.2-4.7-2.2-7.7-3.1c-2.9-0.8-6-1.6-9.2-2.4c-2.1-0.5-4.6-1.1-7.4-1.7c-2.8-0.7-5.7-1.6-8.7-2.7c-3-1.1-5.9-2.7-8.8-4.5
		c-2.9-1.9-5.5-4.2-7.8-7.1c-2.3-2.8-4.2-6.2-5.6-10.1c-1.4-3.9-2.1-8.5-2.1-13.8c0-7.7,1.2-14.1,3.8-19.3c2.5-5.1,5.7-9.2,9.6-12.1
		c3.9-3,8.2-5,13-6.2c4.8-1.2,9.4-1.8,13.8-1.8c4.4,0,8.4,0.4,11.8,1.1c3.5,0.7,6.7,1.8,9.7,3.2c3,1.4,5.9,3.1,8.7,5.3
		c2.8,2.1,5.9,4.6,9.2,7.5l-11.3,19.9c-5-4.3-9.8-7.7-14.4-10c-4.6-2.3-9.5-3.4-14.6-3.4c-1.7,0-3.7,0.3-5.9,0.8
		c-2.2,0.5-4.3,1.4-6.3,2.6c-2,1.2-3.6,2.7-4.9,4.6c-1.3,1.9-1.9,4.1-1.9,6.8c0,2.7,0.8,4.9,2.3,6.7c1.5,1.8,3.5,3.3,5.9,4.5
		c2.4,1.2,5.1,2.2,7.9,3.1c2.9,0.8,5.7,1.7,8.4,2.5c2,0.6,4.4,1.2,7.1,1.8c2.7,0.6,5.6,1.4,8.5,2.5c2.9,1.1,5.8,2.5,8.7,4.3
		c2.9,1.8,5.5,4.1,7.7,7c2.3,2.8,4.1,6.3,5.5,10.5c1.4,4.2,2.1,9.2,2.1,15.1c0,6.9-1,12.9-2.9,17.9c-1.9,5.1-4.7,9.3-8.2,12.6
		c-3.6,3.3-7.8,5.8-12.7,7.5c-4.9,1.7-10.3,2.5-16.3,2.5c-5.5,0-10.3-0.5-14.5-1.5s-8-2.4-11.5-4.2c-3.5-1.7-6.7-3.8-9.8-6.2
		C1442.5,355.6,1439.3,352.9,1436,350z"/>
</g>
<g>
	<path class="st0" d="M1695.9,367.4h-41.7V234.9h41.7c15.1,0,27.5,5.6,37.2,16.7c5.2,5.9,9.1,13.1,11.7,21.5c2.6,8.4,4,17.8,4,28.2
		c0,10.5-1.3,19.9-4,28.3c-2.6,8.4-6.6,15.5-11.7,21.5c-4.7,5.4-10.2,9.5-16.5,12.3C1710.3,366,1703.4,367.4,1695.9,367.4z
		 M1674.4,344.9h21.5c3.8,0,7.6-0.5,11.4-1.6c3.8-1.1,7.3-3.2,10.5-6.4c3.1-3.2,5.7-7.6,7.7-13.3c2-5.7,3-13.1,3-22.3
		c0-9.2-1-16.6-3-22.4c-2-5.7-4.6-10.2-7.8-13.3c-3.2-3.1-6.7-5.3-10.5-6.3c-3.8-1.1-7.6-1.6-11.3-1.6h-21.5V344.9z"/>
	<path class="st0" d="M1737.4,367.4l54-132.3h2l54,132.3h-21.9l-8.2-20.8h-49.8l-8.1,20.8H1737.4z M1777.2,324.5h30.2l-15-40
		L1777.2,324.5z"/>
	<path class="st0" d="M1917.8,235c-2.7,5.6-5.8,11.9-9.3,19c-3.5,7.1-7.1,14.4-10.8,21.8c-3.7,7.4-7.3,14.7-10.8,21.9
		c-3.6,7.2-6.7,13.7-9.4,19.5v50.1h-20.2v-50.1c-6.3-13.8-12.9-27.5-19.9-41.1c-7-13.6-13.7-27.3-20.1-41.1h23.5
		c4.3,9.1,8.8,18.4,13.3,28.1c4.5,9.7,8.9,19,13.3,28.1c2.1-4.2,4.3-8.7,6.6-13.6c2.3-4.8,4.6-9.7,6.9-14.6s4.6-9.7,6.9-14.5
		c2.3-4.8,4.4-9.3,6.4-13.5H1917.8z"/>
</g>
<g>
	<path class="st0" d="M2035.2,350l11-20.3c5.3,4.6,10.8,8.5,16.4,11.9c5.6,3.3,11.5,5,17.7,5c3.3,0,6.2-0.5,8.7-1.5
		c2.5-1,4.6-2.4,6.4-4c1.7-1.6,3-3.5,3.9-5.6c0.9-2.1,1.3-4.2,1.3-6.2c0-2.7-0.6-4.9-1.9-6.8c-1.3-1.9-3-3.4-5.2-4.6
		c-2.2-1.2-4.7-2.2-7.7-3.1c-2.9-0.8-6-1.6-9.2-2.4c-2.1-0.5-4.6-1.1-7.4-1.7c-2.8-0.7-5.7-1.6-8.7-2.7c-3-1.1-5.9-2.7-8.8-4.5
		c-2.9-1.9-5.5-4.2-7.8-7.1c-2.3-2.8-4.2-6.2-5.6-10.1c-1.4-3.9-2.1-8.5-2.1-13.8c0-7.7,1.2-14.1,3.8-19.3c2.5-5.1,5.7-9.2,9.6-12.1
		c3.9-3,8.2-5,13-6.2c4.8-1.2,9.4-1.8,13.8-1.8c4.4,0,8.4,0.4,11.8,1.1c3.5,0.7,6.7,1.8,9.7,3.2c3,1.4,5.9,3.1,8.7,5.3
		c2.8,2.1,5.9,4.6,9.2,7.5l-11.3,19.9c-5-4.3-9.8-7.7-14.4-10c-4.6-2.3-9.5-3.4-14.6-3.4c-1.7,0-3.7,0.3-5.9,0.8
		c-2.2,0.5-4.3,1.4-6.3,2.6c-2,1.2-3.6,2.7-4.9,4.6c-1.3,1.9-1.9,4.1-1.9,6.8c0,2.7,0.8,4.9,2.3,6.7c1.5,1.8,3.5,3.3,5.9,4.5
		c2.4,1.2,5.1,2.2,7.9,3.1c2.9,0.8,5.7,1.7,8.4,2.5c2,0.6,4.4,1.2,7.1,1.8c2.7,0.6,5.6,1.4,8.5,2.5c2.9,1.1,5.8,2.5,8.7,4.3
		c2.9,1.8,5.5,4.1,7.7,7c2.3,2.8,4.1,6.3,5.5,10.5c1.4,4.2,2.1,9.2,2.1,15.1c0,6.9-1,12.9-2.9,17.9c-1.9,5.1-4.7,9.3-8.2,12.6
		c-3.6,3.3-7.8,5.8-12.7,7.5c-4.9,1.7-10.3,2.5-16.3,2.5c-5.5,0-10.3-0.5-14.5-1.5s-8-2.4-11.5-4.2c-3.5-1.7-6.7-3.8-9.8-6.2
		C2041.6,355.6,2038.4,352.9,2035.2,350z"/>
</g>
<g>
	<path class="st0" d="M2366,235v132.3h-20.2v-67l-33.1,49.8l-32.9-49.8v67h-20.2V235h1.3l51.8,76.4l52-76.4H2366z"/>
	<path class="st0" d="M2376.7,350l11-20.3c5.3,4.6,10.8,8.5,16.4,11.9c5.6,3.3,11.5,5,17.7,5c3.3,0,6.2-0.5,8.7-1.5
		c2.5-1,4.6-2.4,6.4-4c1.7-1.6,3-3.5,3.9-5.6c0.9-2.1,1.3-4.2,1.3-6.2c0-2.7-0.6-4.9-1.9-6.8c-1.3-1.9-3-3.4-5.2-4.6
		c-2.2-1.2-4.7-2.2-7.7-3.1c-2.9-0.8-6-1.6-9.2-2.4c-2.1-0.5-4.6-1.1-7.4-1.7c-2.8-0.7-5.7-1.6-8.7-2.7c-3-1.1-5.9-2.7-8.8-4.5
		c-2.9-1.9-5.5-4.2-7.8-7.1c-2.3-2.8-4.2-6.2-5.6-10.1c-1.4-3.9-2.1-8.5-2.1-13.8c0-7.7,1.2-14.1,3.8-19.3c2.5-5.1,5.7-9.2,9.6-12.1
		c3.9-3,8.2-5,13-6.2c4.8-1.2,9.4-1.8,13.8-1.8c4.4,0,8.4,0.4,11.8,1.1c3.5,0.7,6.7,1.8,9.7,3.2c3,1.4,5.9,3.1,8.7,5.3
		c2.8,2.1,5.9,4.6,9.2,7.5l-11.3,19.9c-5-4.3-9.8-7.7-14.4-10c-4.6-2.3-9.5-3.4-14.6-3.4c-1.7,0-3.7,0.3-5.9,0.8
		c-2.2,0.5-4.3,1.4-6.3,2.6c-2,1.2-3.6,2.7-4.9,4.6c-1.3,1.9-1.9,4.1-1.9,6.8c0,2.7,0.8,4.9,2.3,6.7c1.5,1.8,3.5,3.3,5.9,4.5
		c2.4,1.2,5.1,2.2,7.9,3.1c2.9,0.8,5.7,1.7,8.4,2.5c2,0.6,4.4,1.2,7.1,1.8c2.7,0.6,5.6,1.4,8.5,2.5c2.9,1.1,5.8,2.5,8.7,4.3
		c2.9,1.8,5.5,4.1,7.7,7c2.3,2.8,4.1,6.3,5.5,10.5c1.4,4.2,2.1,9.2,2.1,15.1c0,6.9-1,12.9-2.9,17.9c-1.9,5.1-4.7,9.3-8.2,12.6
		c-3.6,3.3-7.8,5.8-12.7,7.5c-4.9,1.7-10.3,2.5-16.3,2.5c-5.5,0-10.3-0.5-14.5-1.5s-8-2.4-11.5-4.2c-3.5-1.7-6.7-3.8-9.8-6.2
		C2383.1,355.6,2379.9,352.9,2376.7,350z"/>
</g>
<g>
	<path class="st0" d="M513.1,431.3v132.3h-20.2v-67l-33.1,49.8l-32.9-49.8v67h-20.2V431.3h1.3l51.8,76.4l52-76.4H513.1z"/>
	<path class="st0" d="M551.1,563.6h-20.2V431.3h20.2V563.6z"/>
	<path class="st0" d="M658.3,563.6l-69.4-78.8v78.8h-20.2V431.3h2.2l69.4,80v-80h20.2v132.3H658.3z"/>
</g>
<g>
	<path class="st0" d="M815.1,453.5v32.8h51v23.4h-51v53.9h-20.2V431.1h77.7v22.4H815.1z"/>
	<path class="st0" d="M876.4,546.2l11-20.3c5.3,4.6,10.8,8.5,16.4,11.9c5.6,3.3,11.5,5,17.7,5c3.3,0,6.2-0.5,8.7-1.5
		c2.5-1,4.6-2.4,6.4-4s3-3.5,3.9-5.6c0.9-2.1,1.3-4.2,1.3-6.2c0-2.7-0.6-4.9-1.9-6.8c-1.3-1.9-3-3.4-5.2-4.6
		c-2.2-1.2-4.7-2.2-7.6-3.1c-2.9-0.8-6-1.6-9.2-2.4c-2.1-0.5-4.6-1.1-7.4-1.7c-2.8-0.7-5.7-1.6-8.7-2.7c-3-1.1-5.9-2.7-8.8-4.5
		c-2.9-1.9-5.5-4.2-7.8-7.1c-2.3-2.8-4.2-6.2-5.6-10.1c-1.4-3.9-2.1-8.5-2.1-13.8c0-7.7,1.2-14.1,3.8-19.3c2.5-5.1,5.7-9.2,9.6-12.1
		c3.9-3,8.2-5,13-6.2c4.8-1.2,9.4-1.8,13.8-1.8c4.4,0,8.4,0.4,11.8,1.1c3.5,0.7,6.7,1.8,9.7,3.2c3,1.4,5.9,3.1,8.7,5.3
		c2.8,2.1,5.9,4.6,9.2,7.5L945.7,466c-5-4.3-9.8-7.7-14.4-10c-4.6-2.3-9.5-3.4-14.6-3.4c-1.7,0-3.7,0.3-5.9,0.8
		c-2.2,0.5-4.3,1.4-6.3,2.6c-2,1.2-3.6,2.7-4.9,4.6c-1.3,1.9-1.9,4.1-1.9,6.8c0,2.7,0.8,4.9,2.3,6.7c1.5,1.8,3.5,3.3,5.9,4.5
		c2.4,1.2,5.1,2.2,7.9,3.1c2.9,0.8,5.7,1.7,8.4,2.5c2,0.6,4.4,1.2,7.1,1.8c2.7,0.6,5.6,1.4,8.5,2.5c2.9,1.1,5.8,2.5,8.7,4.3
		c2.9,1.8,5.5,4.1,7.7,7c2.3,2.8,4.1,6.3,5.5,10.5c1.4,4.2,2.1,9.2,2.1,15.1c0,6.9-1,12.9-2.9,17.9c-1.9,5.1-4.7,9.3-8.2,12.6
		c-3.6,3.3-7.8,5.8-12.7,7.5c-4.9,1.7-10.3,2.5-16.3,2.5c-5.5,0-10.3-0.5-14.5-1.5c-4.2-1-8-2.4-11.5-4.2c-3.5-1.7-6.7-3.8-9.8-6.2
		C882.9,551.8,879.7,549.1,876.4,546.2z"/>
</g>
<g>
	<path class="st0" d="M1201.2,563.6l-69.4-78.8v78.8h-20.2V431.3h2.2l69.4,80v-80h20.2v132.3H1201.2z"/>
	<path class="st0" d="M1213.8,546.2l11-20.3c5.3,4.6,10.8,8.5,16.4,11.9c5.6,3.3,11.5,5,17.7,5c3.3,0,6.2-0.5,8.7-1.5
		c2.5-1,4.6-2.4,6.4-4s3-3.5,3.9-5.6c0.9-2.1,1.3-4.2,1.3-6.2c0-2.7-0.6-4.9-1.9-6.8c-1.3-1.9-3-3.4-5.2-4.6
		c-2.2-1.2-4.7-2.2-7.6-3.1c-2.9-0.8-6-1.6-9.2-2.4c-2.1-0.5-4.6-1.1-7.4-1.7c-2.8-0.7-5.7-1.6-8.7-2.7c-3-1.1-5.9-2.7-8.8-4.5
		c-2.9-1.9-5.5-4.2-7.8-7.1c-2.3-2.8-4.2-6.2-5.6-10.1c-1.4-3.9-2.1-8.5-2.1-13.8c0-7.7,1.2-14.1,3.8-19.3c2.5-5.1,5.7-9.2,9.6-12.1
		c3.9-3,8.2-5,13-6.2c4.8-1.2,9.4-1.8,13.8-1.8c4.4,0,8.4,0.4,11.8,1.1c3.5,0.7,6.7,1.8,9.7,3.2c3,1.4,5.9,3.1,8.7,5.3
		c2.8,2.1,5.9,4.6,9.2,7.5l-11.3,19.9c-5-4.3-9.8-7.7-14.4-10c-4.6-2.3-9.5-3.4-14.6-3.4c-1.7,0-3.7,0.3-5.9,0.8
		c-2.2,0.5-4.3,1.4-6.3,2.6c-2,1.2-3.6,2.7-4.9,4.6c-1.3,1.9-1.9,4.1-1.9,6.8c0,2.7,0.8,4.9,2.3,6.7c1.5,1.8,3.5,3.3,5.9,4.5
		c2.4,1.2,5.1,2.2,7.9,3.1c2.9,0.8,5.7,1.7,8.4,2.5c2,0.6,4.4,1.2,7.1,1.8c2.7,0.6,5.6,1.4,8.5,2.5c2.9,1.1,5.8,2.5,8.7,4.3
		c2.9,1.8,5.5,4.1,7.7,7c2.3,2.8,4.1,6.3,5.5,10.5c1.4,4.2,2.1,9.2,2.1,15.1c0,6.9-1,12.9-2.9,17.9c-1.9,5.1-4.7,9.3-8.2,12.6
		c-3.6,3.3-7.8,5.8-12.7,7.5c-4.9,1.7-10.3,2.5-16.3,2.5c-5.5,0-10.3-0.5-14.5-1.5c-4.2-1-8-2.4-11.5-4.2c-3.5-1.7-6.7-3.8-9.8-6.2
		C1220.3,551.8,1217.1,549.1,1213.8,546.2z"/>
</g>
<g>
	<path class="st0" d="M1528,431.3c-2.7,5.6-5.8,11.9-9.3,19c-3.5,7.1-7.1,14.4-10.8,21.8c-3.7,7.4-7.3,14.7-10.8,21.9
		c-3.6,7.2-6.7,13.7-9.4,19.5v50.1h-20.2v-50.1c-6.3-13.8-12.9-27.5-19.9-41.1c-7-13.6-13.7-27.3-20.1-41.1h23.5
		c4.3,9.1,8.8,18.4,13.3,28.1c4.5,9.7,8.9,19,13.3,28.1c2.1-4.2,4.3-8.7,6.6-13.6c2.3-4.8,4.6-9.7,6.9-14.6s4.6-9.7,6.9-14.5
		c2.3-4.8,4.4-9.3,6.4-13.5H1528z"/>
	<path class="st0" d="M1552.1,563.6h-20.2V431.1h48c5.4,0,10.3,1.1,14.8,3.3c4.5,2.2,8.3,5.4,11.5,9.4c3.2,4,5.7,8.9,7.4,14.5
		c1.8,5.6,2.7,11.7,2.7,18.4c0,10-2,18.8-6,26.3c-4,7.5-9.3,12.9-16,16.1c8.9,14.7,17.6,29.6,26.3,44.5h-24.1
		c-4.2-6.9-8.3-13.8-12.4-20.8c-4-7-8.1-14.1-12.1-21.4h-20V563.6z M1552.1,499h27.8c1.8,0,3.7-0.5,5.7-1.4s3.7-2.3,5.3-4.2
		c1.5-1.9,2.8-4.2,3.8-7c1-2.8,1.5-6,1.5-9.8c0-1.9-0.2-4.2-0.6-6.9c-0.4-2.7-1.2-5.2-2.3-7.6c-1.2-2.4-2.8-4.5-4.9-6.2
		c-2.1-1.7-4.9-2.5-8.5-2.5h-27.8V499z"/>
	<path class="st0" d="M1623.3,546.2l11-20.3c5.3,4.6,10.8,8.5,16.4,11.9c5.6,3.3,11.5,5,17.7,5c3.3,0,6.2-0.5,8.7-1.5
		c2.5-1,4.6-2.4,6.4-4c1.7-1.6,3-3.5,3.9-5.6c0.9-2.1,1.3-4.2,1.3-6.2c0-2.7-0.6-4.9-1.9-6.8c-1.3-1.9-3-3.4-5.2-4.6
		c-2.2-1.2-4.7-2.2-7.7-3.1c-2.9-0.8-6-1.6-9.2-2.4c-2.1-0.5-4.6-1.1-7.4-1.7c-2.8-0.7-5.7-1.6-8.7-2.7c-3-1.1-5.9-2.7-8.8-4.5
		c-2.9-1.9-5.5-4.2-7.8-7.1c-2.3-2.8-4.2-6.2-5.6-10.1c-1.4-3.9-2.1-8.5-2.1-13.8c0-7.7,1.2-14.1,3.8-19.3c2.5-5.1,5.7-9.2,9.6-12.1
		c3.9-3,8.2-5,13-6.2c4.8-1.2,9.4-1.8,13.8-1.8c4.4,0,8.4,0.4,11.8,1.1c3.5,0.7,6.7,1.8,9.7,3.2c3,1.4,5.9,3.1,8.7,5.3
		c2.8,2.1,5.9,4.6,9.2,7.5l-11.3,19.9c-5-4.3-9.8-7.7-14.4-10c-4.6-2.3-9.5-3.4-14.6-3.4c-1.7,0-3.7,0.3-5.9,0.8
		c-2.2,0.5-4.3,1.4-6.3,2.6c-2,1.2-3.6,2.7-4.9,4.6c-1.3,1.9-1.9,4.1-1.9,6.8c0,2.7,0.8,4.9,2.3,6.7c1.5,1.8,3.5,3.3,5.9,4.5
		c2.4,1.2,5.1,2.2,7.9,3.1c2.9,0.8,5.7,1.7,8.4,2.5c2,0.6,4.4,1.2,7.1,1.8c2.7,0.6,5.6,1.4,8.5,2.5c2.9,1.1,5.8,2.5,8.7,4.3
		c2.9,1.8,5.5,4.1,7.7,7c2.3,2.8,4.1,6.3,5.5,10.5c1.4,4.2,2.1,9.2,2.1,15.1c0,6.9-1,12.9-2.9,17.9c-1.9,5.1-4.7,9.3-8.2,12.6
		c-3.6,3.3-7.8,5.8-12.7,7.5c-4.9,1.7-10.3,2.5-16.3,2.5c-5.5,0-10.3-0.5-14.5-1.5s-8-2.4-11.5-4.2c-3.5-1.7-6.7-3.8-9.8-6.2
		C1629.7,551.8,1626.6,549.1,1623.3,546.2z"/>
</g>
<g>
	<path class="st0" d="M1883.1,563.6h-41.7V431.1h41.7c15.1,0,27.5,5.6,37.2,16.7c5.2,5.9,9.1,13.1,11.7,21.5c2.6,8.4,4,17.8,4,28.2
		c0,10.5-1.3,19.9-4,28.3c-2.6,8.4-6.6,15.5-11.7,21.5c-4.7,5.4-10.2,9.5-16.5,12.3C1897.5,562.2,1890.6,563.6,1883.1,563.6z
		 M1861.7,541.2h21.5c3.8,0,7.6-0.5,11.4-1.6c3.8-1.1,7.3-3.2,10.5-6.4c3.1-3.2,5.7-7.6,7.7-13.3c2-5.7,3-13.1,3-22.3
		c0-9.2-1-16.6-3-22.4c-2-5.7-4.6-10.2-7.8-13.3c-3.2-3.1-6.7-5.3-10.5-6.3c-3.8-1.1-7.6-1.6-11.3-1.6h-21.5V541.2z"/>
	<path class="st0" d="M1924.6,563.6l54-132.3h2l54,132.3h-21.9l-8.2-20.8h-49.8l-8.1,20.8H1924.6z M1964.4,520.7h30.2l-15-40
		L1964.4,520.7z"/>
	<path class="st0" d="M2105,431.3c-2.7,5.6-5.8,11.9-9.3,19c-3.5,7.1-7.1,14.4-10.8,21.8c-3.7,7.4-7.3,14.7-10.8,21.9
		c-3.6,7.2-6.7,13.7-9.4,19.5v50.1h-20.2v-50.1c-6.3-13.8-12.9-27.5-19.9-41.1c-7-13.6-13.7-27.3-20.1-41.1h23.5
		c4.3,9.1,8.8,18.4,13.3,28.1c4.5,9.7,8.9,19,13.3,28.1c2.1-4.2,4.3-8.7,6.6-13.6c2.3-4.8,4.6-9.7,6.9-14.6s4.6-9.7,6.9-14.5
		c2.3-4.8,4.4-9.3,6.4-13.5H2105z"/>
</g>
<g>
	<path class="st0" d="M2222.4,546.2l11-20.3c5.3,4.6,10.8,8.5,16.4,11.9c5.6,3.3,11.5,5,17.7,5c3.3,0,6.2-0.5,8.7-1.5
		c2.5-1,4.6-2.4,6.4-4c1.7-1.6,3-3.5,3.9-5.6c0.9-2.1,1.3-4.2,1.3-6.2c0-2.7-0.6-4.9-1.9-6.8c-1.3-1.9-3-3.4-5.2-4.6
		c-2.2-1.2-4.7-2.2-7.7-3.1c-2.9-0.8-6-1.6-9.2-2.4c-2.1-0.5-4.6-1.1-7.4-1.7c-2.8-0.7-5.7-1.6-8.7-2.7c-3-1.1-5.9-2.7-8.8-4.5
		c-2.9-1.9-5.5-4.2-7.8-7.1c-2.3-2.8-4.2-6.2-5.6-10.1c-1.4-3.9-2.1-8.5-2.1-13.8c0-7.7,1.2-14.1,3.8-19.3c2.5-5.1,5.7-9.2,9.6-12.1
		c3.9-3,8.2-5,13-6.2c4.8-1.2,9.4-1.8,13.8-1.8c4.4,0,8.4,0.4,11.8,1.1c3.5,0.7,6.7,1.8,9.7,3.2c3,1.4,5.9,3.1,8.7,5.3
		c2.8,2.1,5.9,4.6,9.2,7.5l-11.3,19.9c-5-4.3-9.8-7.7-14.4-10c-4.6-2.3-9.5-3.4-14.6-3.4c-1.7,0-3.7,0.3-5.9,0.8
		c-2.2,0.5-4.3,1.4-6.3,2.6c-2,1.2-3.6,2.7-4.9,4.6c-1.3,1.9-1.9,4.1-1.9,6.8c0,2.7,0.8,4.9,2.3,6.7c1.5,1.8,3.5,3.3,5.9,4.5
		c2.4,1.2,5.1,2.2,7.9,3.1c2.9,0.8,5.7,1.7,8.4,2.5c2,0.6,4.4,1.2,7.1,1.8c2.7,0.6,5.6,1.4,8.5,2.5c2.9,1.1,5.8,2.5,8.7,4.3
		c2.9,1.8,5.5,4.1,7.7,7c2.3,2.8,4.1,6.3,5.5,10.5c1.4,4.2,2.1,9.2,2.1,15.1c0,6.9-1,12.9-2.9,17.9c-1.9,5.1-4.7,9.3-8.2,12.6
		c-3.6,3.3-7.8,5.8-12.7,7.5c-4.9,1.7-10.3,2.5-16.3,2.5c-5.5,0-10.3-0.5-14.5-1.5s-8-2.4-11.5-4.2c-3.5-1.7-6.7-3.8-9.8-6.2
		C2228.9,551.8,2225.7,549.1,2222.4,546.2z"/>
</g>
<g>
	<path class="st0" d="M2553.2,431.3v132.3H2533v-67l-33.1,49.8l-32.9-49.8v67h-20.2V431.3h1.3l51.8,76.4l52-76.4H2553.2z"/>
</g>
<g>
	<path class="st0" d="M714,636.8v132.3h-20.2v-67l-33.1,49.8l-32.9-49.8v67h-20.2V636.8h1.3l51.8,76.4l52-76.4H714z"/>
	<path class="st0" d="M752,769.1h-20.2V636.8H752V769.1z"/>
	<path class="st0" d="M859.2,769.1l-69.4-78.8v78.8h-20.2V636.8h2.2l69.4,80v-80h20.2v132.3H859.2z"/>
</g>
<g>
	<path class="st0" d="M1016,659v32.8h51v23.4h-51v54h-20.2V636.6h77.7V659H1016z"/>
	<path class="st0" d="M1077.4,751.7l11-20.3c5.3,4.6,10.8,8.5,16.4,11.9c5.6,3.3,11.5,5,17.7,5c3.3,0,6.2-0.5,8.7-1.5
		c2.5-1,4.6-2.4,6.4-4c1.7-1.6,3-3.5,3.9-5.6c0.9-2.1,1.3-4.2,1.3-6.2c0-2.7-0.6-4.9-1.9-6.8c-1.3-1.9-3-3.4-5.2-4.6
		c-2.2-1.2-4.7-2.2-7.6-3.1c-2.9-0.8-6-1.6-9.2-2.4c-2.1-0.5-4.6-1.1-7.4-1.7c-2.8-0.7-5.7-1.6-8.7-2.7c-3-1.1-5.9-2.7-8.8-4.5
		c-2.9-1.9-5.5-4.2-7.8-7.1c-2.3-2.8-4.2-6.2-5.6-10.1c-1.4-3.9-2.1-8.5-2.1-13.8c0-7.7,1.2-14.1,3.8-19.3c2.5-5.1,5.7-9.2,9.6-12.1
		c3.9-3,8.2-5,13-6.2c4.8-1.2,9.4-1.8,13.8-1.8c4.4,0,8.4,0.4,11.8,1.1c3.5,0.7,6.7,1.8,9.7,3.2c3,1.4,5.9,3.1,8.7,5.3
		c2.8,2.1,5.9,4.6,9.2,7.5l-11.3,19.9c-5-4.3-9.8-7.7-14.4-10c-4.6-2.3-9.5-3.4-14.6-3.4c-1.7,0-3.7,0.3-5.9,0.8
		c-2.2,0.5-4.3,1.4-6.3,2.6c-2,1.2-3.6,2.7-4.9,4.6c-1.3,1.9-1.9,4.1-1.9,6.8c0,2.7,0.8,4.9,2.3,6.7c1.5,1.8,3.5,3.3,5.9,4.5
		c2.4,1.2,5.1,2.2,7.9,3.1c2.9,0.8,5.7,1.7,8.4,2.5c2,0.6,4.4,1.2,7.1,1.8c2.7,0.6,5.6,1.4,8.5,2.5c2.9,1.1,5.8,2.5,8.7,4.3
		c2.9,1.8,5.5,4.1,7.7,7c2.3,2.8,4.1,6.3,5.5,10.5c1.4,4.2,2.1,9.2,2.1,15.1c0,6.9-1,12.9-2.9,17.9c-1.9,5.1-4.7,9.3-8.2,12.6
		c-3.6,3.3-7.8,5.8-12.7,7.5c-4.9,1.7-10.3,2.5-16.3,2.5c-5.5,0-10.3-0.5-14.5-1.5c-4.2-1-8-2.4-11.5-4.2c-3.5-1.7-6.7-3.8-9.8-6.2
		C1083.8,757.3,1080.6,754.6,1077.4,751.7z"/>
</g>
<g>
	<path class="st0" d="M1402.1,769.1l-69.4-78.8v78.8h-20.2V636.8h2.2l69.4,80v-80h20.2v132.3H1402.1z"/>
	<path class="st0" d="M1414.8,751.7l11-20.3c5.3,4.6,10.8,8.5,16.4,11.9c5.6,3.3,11.5,5,17.7,5c3.3,0,6.2-0.5,8.7-1.5
		c2.5-1,4.6-2.4,6.4-4c1.7-1.6,3-3.5,3.9-5.6c0.9-2.1,1.3-4.2,1.3-6.2c0-2.7-0.6-4.9-1.9-6.8c-1.3-1.9-3-3.4-5.2-4.6
		c-2.2-1.2-4.7-2.2-7.7-3.1c-2.9-0.8-6-1.6-9.2-2.4c-2.1-0.5-4.6-1.1-7.4-1.7c-2.8-0.7-5.7-1.6-8.7-2.7c-3-1.1-5.9-2.7-8.8-4.5
		c-2.9-1.9-5.5-4.2-7.8-7.1c-2.3-2.8-4.2-6.2-5.6-10.1c-1.4-3.9-2.1-8.5-2.1-13.8c0-7.7,1.2-14.1,3.8-19.3c2.5-5.1,5.7-9.2,9.6-12.1
		c3.9-3,8.2-5,13-6.2c4.8-1.2,9.4-1.8,13.8-1.8c4.4,0,8.4,0.4,11.8,1.1c3.5,0.7,6.7,1.8,9.7,3.2c3,1.4,5.9,3.1,8.7,5.3
		c2.8,2.1,5.9,4.6,9.2,7.5l-11.3,19.9c-5-4.3-9.8-7.7-14.4-10c-4.6-2.3-9.5-3.4-14.6-3.4c-1.7,0-3.7,0.3-5.9,0.8
		c-2.2,0.5-4.3,1.4-6.3,2.6c-2,1.2-3.6,2.7-4.9,4.6c-1.3,1.9-1.9,4.1-1.9,6.8c0,2.7,0.8,4.9,2.3,6.7c1.5,1.8,3.5,3.3,5.9,4.5
		c2.4,1.2,5.1,2.2,7.9,3.1c2.9,0.8,5.7,1.7,8.4,2.5c2,0.6,4.4,1.2,7.1,1.8c2.7,0.6,5.6,1.4,8.5,2.5c2.9,1.1,5.8,2.5,8.7,4.3
		s5.5,4.1,7.7,7c2.3,2.8,4.1,6.3,5.5,10.5c1.4,4.2,2.1,9.2,2.1,15.1c0,6.9-1,12.9-2.9,17.9c-1.9,5.1-4.7,9.3-8.2,12.6
		c-3.6,3.3-7.8,5.8-12.7,7.5c-4.9,1.7-10.3,2.5-16.3,2.5c-5.5,0-10.3-0.5-14.5-1.5c-4.2-1-8-2.4-11.5-4.2c-3.5-1.7-6.7-3.8-9.8-6.2
		C1421.2,757.3,1418,754.6,1414.8,751.7z"/>
</g>
<g>
	<path class="st0" d="M1728.9,636.8c-2.7,5.6-5.8,11.9-9.3,19c-3.5,7.1-7.1,14.4-10.8,21.8c-3.7,7.4-7.3,14.7-10.8,21.9
		c-3.6,7.2-6.7,13.7-9.4,19.5v50.1h-20.2v-50.1c-6.3-13.8-12.9-27.5-19.9-41.1c-7-13.6-13.7-27.3-20.1-41.1h23.5
		c4.3,9.1,8.8,18.4,13.3,28.1c4.5,9.7,8.9,19,13.3,28.1c2.1-4.2,4.3-8.7,6.6-13.6c2.3-4.8,4.6-9.7,6.9-14.6s4.6-9.7,6.9-14.5
		c2.3-4.8,4.4-9.3,6.4-13.5H1728.9z"/>
	<path class="st0" d="M1753.1,769.1h-20.2V636.6h48c5.4,0,10.3,1.1,14.8,3.3c4.5,2.2,8.3,5.4,11.5,9.4c3.2,4,5.7,8.9,7.4,14.5
		c1.8,5.6,2.7,11.7,2.7,18.4c0,10-2,18.8-6,26.3c-4,7.5-9.3,12.9-16,16.1c8.9,14.7,17.6,29.6,26.3,44.5h-24.1
		c-4.2-6.9-8.3-13.8-12.4-20.8c-4-7-8.1-14.1-12.1-21.4h-20V769.1z M1753.1,704.5h27.8c1.8,0,3.7-0.5,5.7-1.4s3.7-2.3,5.3-4.2
		c1.5-1.9,2.8-4.2,3.8-7c1-2.8,1.5-6,1.5-9.8c0-1.9-0.2-4.2-0.6-6.9c-0.4-2.7-1.2-5.2-2.3-7.6c-1.2-2.4-2.8-4.5-4.9-6.2
		c-2.1-1.7-4.9-2.5-8.5-2.5h-27.8V704.5z"/>
	<path class="st0" d="M1824.2,751.7l11-20.3c5.3,4.6,10.8,8.5,16.4,11.9c5.6,3.3,11.5,5,17.7,5c3.3,0,6.2-0.5,8.7-1.5
		c2.5-1,4.6-2.4,6.4-4c1.7-1.6,3-3.5,3.9-5.6c0.9-2.1,1.3-4.2,1.3-6.2c0-2.7-0.6-4.9-1.9-6.8c-1.3-1.9-3-3.4-5.2-4.6
		c-2.2-1.2-4.7-2.2-7.7-3.1c-2.9-0.8-6-1.6-9.2-2.4c-2.1-0.5-4.6-1.1-7.4-1.7c-2.8-0.7-5.7-1.6-8.7-2.7c-3-1.1-5.9-2.7-8.8-4.5
		c-2.9-1.9-5.5-4.2-7.8-7.1c-2.3-2.8-4.2-6.2-5.6-10.1c-1.4-3.9-2.1-8.5-2.1-13.8c0-7.7,1.2-14.1,3.8-19.3c2.5-5.1,5.7-9.2,9.6-12.1
		c3.9-3,8.2-5,13-6.2c4.8-1.2,9.4-1.8,13.8-1.8c4.4,0,8.4,0.4,11.8,1.1c3.5,0.7,6.7,1.8,9.7,3.2c3,1.4,5.9,3.1,8.7,5.3
		c2.8,2.1,5.9,4.6,9.2,7.5l-11.3,19.9c-5-4.3-9.8-7.7-14.4-10c-4.6-2.3-9.5-3.4-14.6-3.4c-1.7,0-3.7,0.3-5.9,0.8
		c-2.2,0.5-4.3,1.4-6.3,2.6c-2,1.2-3.6,2.7-4.9,4.6c-1.3,1.9-1.9,4.1-1.9,6.8c0,2.7,0.8,4.9,2.3,6.7c1.5,1.8,3.5,3.3,5.9,4.5
		c2.4,1.2,5.1,2.2,7.9,3.1c2.9,0.8,5.7,1.7,8.4,2.5c2,0.6,4.4,1.2,7.1,1.8c2.7,0.6,5.6,1.4,8.5,2.5c2.9,1.1,5.8,2.5,8.7,4.3
		s5.5,4.1,7.7,7c2.3,2.8,4.1,6.3,5.5,10.5c1.4,4.2,2.1,9.2,2.1,15.1c0,6.9-1,12.9-2.9,17.9c-1.9,5.1-4.7,9.3-8.2,12.6
		c-3.6,3.3-7.8,5.8-12.7,7.5c-4.9,1.7-10.3,2.5-16.3,2.5c-5.5,0-10.3-0.5-14.5-1.5c-4.2-1-8-2.4-11.5-4.2c-3.5-1.7-6.7-3.8-9.8-6.2
		C1830.7,757.3,1827.5,754.6,1824.2,751.7z"/>
</g>
<g>
	<path class="st0" d="M2084,769.1h-41.7V636.6h41.7c15.1,0,27.5,5.6,37.2,16.7c5.2,5.9,9.1,13.1,11.7,21.5c2.6,8.4,4,17.8,4,28.2
		c0,10.5-1.3,19.9-4,28.3c-2.6,8.4-6.6,15.5-11.7,21.5c-4.7,5.4-10.2,9.5-16.5,12.3C2098.4,767.7,2091.5,769.1,2084,769.1z
		 M2062.6,746.6h21.5c3.8,0,7.6-0.5,11.4-1.6c3.8-1.1,7.3-3.2,10.5-6.4c3.1-3.2,5.7-7.6,7.7-13.3c2-5.7,3-13.1,3-22.3
		c0-9.2-1-16.6-3-22.4c-2-5.7-4.6-10.2-7.8-13.3c-3.2-3.1-6.7-5.3-10.5-6.3c-3.8-1.1-7.6-1.6-11.3-1.6h-21.5V746.6z"/>
	<path class="st0" d="M2125.5,769.1l54-132.3h2l54,132.3h-21.9l-8.2-20.8h-49.8l-8.1,20.8H2125.5z M2165.4,726.2h30.2l-15-40
		L2165.4,726.2z"/>
	<path class="st0" d="M2306,636.8c-2.7,5.6-5.8,11.9-9.3,19c-3.5,7.1-7.1,14.4-10.8,21.8c-3.7,7.4-7.3,14.7-10.8,21.9
		c-3.6,7.2-6.7,13.7-9.4,19.5v50.1h-20.2v-50.1c-6.3-13.8-12.9-27.5-19.9-41.1c-7-13.6-13.7-27.3-20.1-41.1h23.5
		c4.3,9.1,8.8,18.4,13.3,28.1c4.5,9.7,8.9,19,13.3,28.1c2.1-4.2,4.3-8.7,6.6-13.6c2.3-4.8,4.6-9.7,6.9-14.6s4.6-9.7,6.9-14.5
		c2.3-4.8,4.4-9.3,6.4-13.5H2306z"/>
</g>
<g>
	<path class="st0" d="M2423.3,751.7l11-20.3c5.3,4.6,10.8,8.5,16.4,11.9c5.6,3.3,11.5,5,17.7,5c3.3,0,6.2-0.5,8.7-1.5
		c2.5-1,4.6-2.4,6.4-4c1.7-1.6,3-3.5,3.9-5.6c0.9-2.1,1.3-4.2,1.3-6.2c0-2.7-0.6-4.9-1.9-6.8c-1.3-1.9-3-3.4-5.2-4.6
		c-2.2-1.2-4.7-2.2-7.7-3.1c-2.9-0.8-6-1.6-9.2-2.4c-2.1-0.5-4.6-1.1-7.4-1.7c-2.8-0.7-5.7-1.6-8.7-2.7c-3-1.1-5.9-2.7-8.8-4.5
		c-2.9-1.9-5.5-4.2-7.8-7.1c-2.3-2.8-4.2-6.2-5.6-10.1c-1.4-3.9-2.1-8.5-2.1-13.8c0-7.7,1.2-14.1,3.8-19.3c2.5-5.1,5.7-9.2,9.6-12.1
		c3.9-3,8.2-5,13-6.2c4.8-1.2,9.4-1.8,13.8-1.8c4.4,0,8.4,0.4,11.8,1.1c3.5,0.7,6.7,1.8,9.7,3.2c3,1.4,5.9,3.1,8.7,5.3
		c2.8,2.1,5.9,4.6,9.2,7.5l-11.3,19.9c-5-4.3-9.8-7.7-14.4-10c-4.6-2.3-9.5-3.4-14.6-3.4c-1.7,0-3.7,0.3-5.9,0.8
		c-2.2,0.5-4.3,1.4-6.3,2.6c-2,1.2-3.6,2.7-4.9,4.6c-1.3,1.9-1.9,4.1-1.9,6.8c0,2.7,0.8,4.9,2.3,6.7c1.5,1.8,3.5,3.3,5.9,4.5
		c2.4,1.2,5.1,2.2,7.9,3.1c2.9,0.8,5.7,1.7,8.4,2.5c2,0.6,4.4,1.2,7.1,1.8c2.7,0.6,5.6,1.4,8.5,2.5c2.9,1.1,5.8,2.5,8.7,4.3
		s5.5,4.1,7.7,7c2.3,2.8,4.1,6.3,5.5,10.5c1.4,4.2,2.1,9.2,2.1,15.1c0,6.9-1,12.9-2.9,17.9c-1.9,5.1-4.7,9.3-8.2,12.6
		c-3.6,3.3-7.8,5.8-12.7,7.5c-4.9,1.7-10.3,2.5-16.3,2.5c-5.5,0-10.3-0.5-14.5-1.5c-4.2-1-8-2.4-11.5-4.2c-3.5-1.7-6.7-3.8-9.8-6.2
		C2429.8,757.3,2426.6,754.6,2423.3,751.7z"/>
</g>
<g>
	<path class="st0" d="M915.7,823v132.3h-20.2v-67l-33.1,49.8l-32.9-49.8v67h-20.2V823h1.3l51.8,76.4l52-76.4H915.7z"/>
	<path class="st0" d="M953.7,955.3h-20.2V823h20.2V955.3z"/>
	<path class="st0" d="M1060.9,955.3l-69.4-78.8v78.8h-20.2V823h2.2l69.4,80v-80h20.2v132.3H1060.9z"/>
</g>
<g>
	<path class="st0" d="M1217.7,845.2V878h51v23.4h-51v54h-20.2V822.8h77.7v22.4H1217.7z"/>
	<path class="st0" d="M1279.1,937.9l11-20.3c5.3,4.6,10.8,8.5,16.4,11.9c5.6,3.3,11.5,5,17.7,5c3.3,0,6.2-0.5,8.7-1.5
		c2.5-1,4.6-2.4,6.4-4c1.7-1.6,3-3.5,3.9-5.6c0.9-2.1,1.3-4.2,1.3-6.2c0-2.7-0.6-4.9-1.9-6.8c-1.3-1.9-3-3.4-5.2-4.6
		c-2.2-1.2-4.7-2.2-7.7-3.1c-2.9-0.8-6-1.6-9.2-2.4c-2.1-0.5-4.6-1.1-7.4-1.7c-2.8-0.7-5.7-1.6-8.7-2.7c-3-1.1-5.9-2.7-8.8-4.5
		c-2.9-1.9-5.5-4.2-7.8-7.1c-2.3-2.8-4.2-6.2-5.6-10.1c-1.4-3.9-2.1-8.5-2.1-13.8c0-7.7,1.2-14.1,3.8-19.3c2.5-5.1,5.7-9.2,9.6-12.1
		c3.9-3,8.2-5,13-6.2c4.8-1.2,9.4-1.8,13.8-1.8c4.4,0,8.4,0.4,11.8,1.1c3.5,0.7,6.7,1.8,9.7,3.2c3,1.4,5.9,3.1,8.7,5.3
		c2.8,2.1,5.9,4.6,9.2,7.5l-11.3,19.9c-5-4.3-9.8-7.7-14.4-10c-4.6-2.3-9.5-3.4-14.6-3.4c-1.7,0-3.7,0.3-5.9,0.8
		c-2.2,0.5-4.3,1.4-6.3,2.6c-2,1.2-3.6,2.7-4.9,4.6c-1.3,1.9-1.9,4.1-1.9,6.8c0,2.7,0.8,4.9,2.3,6.7c1.5,1.8,3.5,3.3,5.9,4.5
		c2.4,1.2,5.1,2.2,7.9,3.1c2.9,0.8,5.7,1.7,8.4,2.5c2,0.6,4.4,1.2,7.1,1.8c2.7,0.6,5.6,1.4,8.5,2.5c2.9,1.1,5.8,2.5,8.7,4.3
		s5.5,4.1,7.7,7c2.3,2.8,4.1,6.3,5.5,10.5c1.4,4.2,2.1,9.2,2.1,15.1c0,6.9-1,12.9-2.9,17.9c-1.9,5.1-4.7,9.3-8.2,12.6
		c-3.6,3.3-7.8,5.8-12.7,7.5c-4.9,1.7-10.3,2.5-16.3,2.5c-5.5,0-10.3-0.5-14.5-1.5c-4.2-1-8-2.4-11.5-4.2c-3.5-1.7-6.7-3.8-9.8-6.2
		C1285.5,943.5,1282.3,940.8,1279.1,937.9z"/>
</g>
<g>
	<path class="st0" d="M1603.8,955.3l-69.4-78.8v78.8h-20.2V823h2.2l69.4,80v-80h20.2v132.3H1603.8z"/>
	<path class="st0" d="M1616.5,937.9l11-20.3c5.3,4.6,10.8,8.5,16.4,11.9c5.6,3.3,11.5,5,17.7,5c3.3,0,6.2-0.5,8.7-1.5
		c2.5-1,4.6-2.4,6.4-4c1.7-1.6,3-3.5,3.9-5.6c0.9-2.1,1.3-4.2,1.3-6.2c0-2.7-0.6-4.9-1.9-6.8c-1.3-1.9-3-3.4-5.2-4.6
		c-2.2-1.2-4.7-2.2-7.7-3.1c-2.9-0.8-6-1.6-9.2-2.4c-2.1-0.5-4.6-1.1-7.4-1.7c-2.8-0.7-5.7-1.6-8.7-2.7c-3-1.1-5.9-2.7-8.8-4.5
		c-2.9-1.9-5.5-4.2-7.8-7.1c-2.3-2.8-4.2-6.2-5.6-10.1c-1.4-3.9-2.1-8.5-2.1-13.8c0-7.7,1.2-14.1,3.8-19.3c2.5-5.1,5.7-9.2,9.6-12.1
		c3.9-3,8.2-5,13-6.2c4.8-1.2,9.4-1.8,13.8-1.8c4.4,0,8.4,0.4,11.8,1.1c3.5,0.7,6.7,1.8,9.7,3.2c3,1.4,5.9,3.1,8.7,5.3
		c2.8,2.1,5.9,4.6,9.2,7.5l-11.3,19.9c-5-4.3-9.8-7.7-14.4-10c-4.6-2.3-9.5-3.4-14.6-3.4c-1.7,0-3.7,0.3-5.9,0.8
		c-2.2,0.5-4.3,1.4-6.3,2.6c-2,1.2-3.6,2.7-4.9,4.6c-1.3,1.9-1.9,4.1-1.9,6.8c0,2.7,0.8,4.9,2.3,6.7c1.5,1.8,3.5,3.3,5.9,4.5
		c2.4,1.2,5.1,2.2,7.9,3.1c2.9,0.8,5.7,1.7,8.4,2.5c2,0.6,4.4,1.2,7.1,1.8c2.7,0.6,5.6,1.4,8.5,2.5c2.9,1.1,5.8,2.5,8.7,4.3
		s5.5,4.1,7.7,7c2.3,2.8,4.1,6.3,5.5,10.5c1.4,4.2,2.1,9.2,2.1,15.1c0,6.9-1,12.9-2.9,17.9c-1.9,5.1-4.7,9.3-8.2,12.6
		c-3.6,3.3-7.8,5.8-12.7,7.5c-4.9,1.7-10.3,2.5-16.3,2.5c-5.5,0-10.3-0.5-14.5-1.5c-4.2-1-8-2.4-11.5-4.2c-3.5-1.7-6.7-3.8-9.8-6.2
		C1622.9,943.5,1619.7,940.8,1616.5,937.9z"/>
</g>
<g>
	<path class="st0" d="M1930.6,823c-2.7,5.6-5.8,11.9-9.3,19c-3.5,7.1-7.1,14.4-10.8,21.8c-3.7,7.4-7.3,14.7-10.8,21.9
		c-3.6,7.2-6.7,13.7-9.4,19.5v50.1h-20.2v-50.1c-6.3-13.8-12.9-27.5-19.9-41.1c-7-13.6-13.7-27.3-20.1-41.1h23.5
		c4.3,9.1,8.8,18.4,13.3,28.1c4.5,9.7,8.9,19,13.3,28.1c2.1-4.2,4.3-8.7,6.6-13.6c2.3-4.8,4.6-9.7,6.9-14.6s4.6-9.7,6.9-14.5
		c2.3-4.8,4.4-9.3,6.4-13.5H1930.6z"/>
	<path class="st0" d="M1954.7,955.3h-20.2V822.8h48c5.4,0,10.3,1.1,14.8,3.3c4.5,2.2,8.3,5.4,11.5,9.4c3.2,4,5.7,8.9,7.4,14.5
		c1.8,5.6,2.7,11.7,2.7,18.4c0,10-2,18.8-6,26.3c-4,7.5-9.3,12.9-16,16.1c8.9,14.7,17.6,29.6,26.3,44.5h-24.1
		c-4.2-6.9-8.3-13.8-12.4-20.8c-4-7-8.1-14.1-12.1-21.4h-20V955.3z M1954.7,890.7h27.8c1.8,0,3.7-0.5,5.7-1.4s3.7-2.3,5.3-4.2
		c1.5-1.9,2.8-4.2,3.8-7c1-2.8,1.5-6,1.5-9.8c0-1.9-0.2-4.2-0.6-6.9c-0.4-2.7-1.2-5.2-2.3-7.6c-1.2-2.4-2.8-4.5-4.9-6.2
		c-2.1-1.7-4.9-2.5-8.5-2.5h-27.8V890.7z"/>
	<path class="st0" d="M2025.9,937.9l11-20.3c5.3,4.6,10.8,8.5,16.4,11.9c5.6,3.3,11.5,5,17.7,5c3.3,0,6.2-0.5,8.7-1.5
		c2.5-1,4.6-2.4,6.4-4c1.7-1.6,3-3.5,3.9-5.6c0.9-2.1,1.3-4.2,1.3-6.2c0-2.7-0.6-4.9-1.9-6.8c-1.3-1.9-3-3.4-5.2-4.6
		c-2.2-1.2-4.7-2.2-7.7-3.1c-2.9-0.8-6-1.6-9.2-2.4c-2.1-0.5-4.6-1.1-7.4-1.7c-2.8-0.7-5.7-1.6-8.7-2.7c-3-1.1-5.9-2.7-8.8-4.5
		c-2.9-1.9-5.5-4.2-7.8-7.1c-2.3-2.8-4.2-6.2-5.6-10.1c-1.4-3.9-2.1-8.5-2.1-13.8c0-7.7,1.2-14.1,3.8-19.3c2.5-5.1,5.7-9.2,9.6-12.1
		c3.9-3,8.2-5,13-6.2c4.8-1.2,9.4-1.8,13.8-1.8c4.4,0,8.4,0.4,11.8,1.1c3.5,0.7,6.7,1.8,9.7,3.2c3,1.4,5.9,3.1,8.7,5.3
		c2.8,2.1,5.9,4.6,9.2,7.5l-11.3,19.9c-5-4.3-9.8-7.7-14.4-10c-4.6-2.3-9.5-3.4-14.6-3.4c-1.7,0-3.7,0.3-5.9,0.8
		c-2.2,0.5-4.3,1.4-6.3,2.6c-2,1.2-3.6,2.7-4.9,4.6c-1.3,1.9-1.9,4.1-1.9,6.8c0,2.7,0.8,4.9,2.3,6.7c1.5,1.8,3.5,3.3,5.9,4.5
		c2.4,1.2,5.1,2.2,7.9,3.1c2.9,0.8,5.7,1.7,8.4,2.5c2,0.6,4.4,1.2,7.1,1.8c2.7,0.6,5.6,1.4,8.5,2.5c2.9,1.1,5.8,2.5,8.7,4.3
		s5.5,4.1,7.7,7c2.3,2.8,4.1,6.3,5.5,10.5c1.4,4.2,2.1,9.2,2.1,15.1c0,6.9-1,12.9-2.9,17.9c-1.9,5.1-4.7,9.3-8.2,12.6
		c-3.6,3.3-7.8,5.8-12.7,7.5c-4.9,1.7-10.3,2.5-16.3,2.5c-5.5,0-10.3-0.5-14.5-1.5c-4.2-1-8-2.4-11.5-4.2c-3.5-1.7-6.7-3.8-9.8-6.2
		C2032.3,943.5,2029.2,940.8,2025.9,937.9z"/>
</g>
<g>
	<path class="st0" d="M2285.7,955.3h-41.7V822.8h41.7c15.1,0,27.5,5.6,37.2,16.7c5.2,5.9,9.1,13.1,11.7,21.5c2.6,8.4,4,17.8,4,28.2
		c0,10.5-1.3,19.9-4,28.3c-2.6,8.4-6.6,15.5-11.7,21.5c-4.7,5.4-10.2,9.5-16.5,12.3C2300.1,953.9,2293.2,955.3,2285.7,955.3z
		 M2264.3,932.9h21.5c3.8,0,7.6-0.5,11.4-1.6c3.8-1.1,7.3-3.2,10.5-6.4c3.1-3.2,5.7-7.6,7.7-13.3c2-5.7,3-13.1,3-22.3
		c0-9.2-1-16.6-3-22.4c-2-5.7-4.6-10.2-7.8-13.3c-3.2-3.1-6.7-5.3-10.5-6.3c-3.8-1.1-7.6-1.6-11.3-1.6h-21.5V932.9z"/>
	<path class="st0" d="M2327.2,955.3l54-132.3h2l54,132.3h-21.9l-8.2-20.8h-49.8l-8.1,20.8H2327.2z M2367.1,912.4h30.2l-15-40
		L2367.1,912.4z"/>
	<path class="st0" d="M2507.6,823c-2.7,5.6-5.8,11.9-9.3,19c-3.5,7.1-7.1,14.4-10.8,21.8c-3.7,7.4-7.3,14.7-10.8,21.9
		c-3.6,7.2-6.7,13.7-9.4,19.5v50.1h-20.2v-50.1c-6.3-13.8-12.9-27.5-19.9-41.1c-7-13.6-13.7-27.3-20.1-41.1h23.5
		c4.3,9.1,8.8,18.4,13.3,28.1c4.5,9.7,8.9,19,13.3,28.1c2.1-4.2,4.3-8.7,6.6-13.6c2.3-4.8,4.6-9.7,6.9-14.6s4.6-9.7,6.9-14.5
		c2.3-4.8,4.4-9.3,6.4-13.5H2507.6z"/>
</g>
<g>
	<path class="st0" d="M1102.2,1017v132.3H1082v-67l-33.1,49.8l-32.9-49.8v67h-20.2V1017h1.3l51.8,76.4l52-76.4H1102.2z"/>
	<path class="st0" d="M1140.2,1149.3H1120V1017h20.2V1149.3z"/>
	<path class="st0" d="M1247.4,1149.3l-69.4-78.8v78.8h-20.2V1017h2.2l69.4,80v-80h20.2v132.3H1247.4z"/>
</g>
<g>
	<path class="st0" d="M1404.2,1039.3v32.8h51v23.4h-51v54H1384v-132.5h77.7v22.4H1404.2z"/>
	<path class="st0" d="M1465.5,1131.9l11-20.3c5.3,4.6,10.8,8.5,16.4,11.9c5.6,3.3,11.5,5,17.7,5c3.3,0,6.2-0.5,8.7-1.5
		c2.5-1,4.6-2.4,6.4-4c1.7-1.6,3-3.5,3.9-5.6c0.9-2.1,1.3-4.2,1.3-6.2c0-2.7-0.6-4.9-1.9-6.8c-1.3-1.9-3-3.4-5.2-4.6
		c-2.2-1.2-4.7-2.2-7.7-3.1c-2.9-0.8-6-1.6-9.2-2.4c-2.1-0.5-4.6-1.1-7.4-1.7c-2.8-0.7-5.7-1.6-8.7-2.7c-3-1.1-5.9-2.7-8.8-4.5
		c-2.9-1.9-5.5-4.2-7.8-7.1c-2.3-2.8-4.2-6.2-5.6-10.1c-1.4-3.9-2.1-8.5-2.1-13.8c0-7.7,1.2-14.1,3.8-19.3c2.5-5.1,5.7-9.2,9.6-12.1
		c3.9-3,8.2-5,13-6.2c4.8-1.2,9.4-1.8,13.8-1.8c4.4,0,8.4,0.4,11.8,1.1c3.5,0.7,6.7,1.8,9.7,3.2c3,1.4,5.9,3.1,8.7,5.3
		c2.8,2.1,5.9,4.6,9.2,7.5l-11.3,19.9c-5-4.3-9.8-7.7-14.4-10c-4.6-2.3-9.5-3.4-14.6-3.4c-1.7,0-3.7,0.3-5.9,0.8
		c-2.2,0.5-4.3,1.4-6.3,2.6c-2,1.2-3.6,2.7-4.9,4.6c-1.3,1.9-1.9,4.1-1.9,6.8c0,2.7,0.8,4.9,2.3,6.7c1.5,1.8,3.5,3.3,5.9,4.5
		c2.4,1.2,5.1,2.2,7.9,3.1c2.9,0.8,5.7,1.7,8.4,2.5c2,0.6,4.4,1.2,7.1,1.8c2.7,0.6,5.6,1.4,8.5,2.5c2.9,1.1,5.8,2.5,8.7,4.3
		s5.5,4.1,7.7,7c2.3,2.8,4.1,6.3,5.5,10.5c1.4,4.2,2.1,9.2,2.1,15.1c0,6.9-1,12.9-2.9,17.9c-1.9,5.1-4.7,9.3-8.2,12.6
		c-3.6,3.3-7.8,5.8-12.7,7.5c-4.9,1.7-10.3,2.5-16.3,2.5c-5.5,0-10.3-0.5-14.5-1.5c-4.2-1-8-2.4-11.5-4.2c-3.5-1.7-6.7-3.8-9.8-6.2
		C1472,1137.5,1468.8,1134.8,1465.5,1131.9z"/>
</g>
<g>
	<path class="st0" d="M1790.3,1149.3l-69.4-78.8v78.8h-20.2V1017h2.2l69.4,80v-80h20.2v132.3H1790.3z"/>
	<path class="st0" d="M1802.9,1131.9l11-20.3c5.3,4.6,10.8,8.5,16.4,11.9c5.6,3.3,11.5,5,17.7,5c3.3,0,6.2-0.5,8.7-1.5
		c2.5-1,4.6-2.4,6.4-4c1.7-1.6,3-3.5,3.9-5.6c0.9-2.1,1.3-4.2,1.3-6.2c0-2.7-0.6-4.9-1.9-6.8c-1.3-1.9-3-3.4-5.2-4.6
		c-2.2-1.2-4.7-2.2-7.7-3.1c-2.9-0.8-6-1.6-9.2-2.4c-2.1-0.5-4.6-1.1-7.4-1.7c-2.8-0.7-5.7-1.6-8.7-2.7c-3-1.1-5.9-2.7-8.8-4.5
		c-2.9-1.9-5.5-4.2-7.8-7.1c-2.3-2.8-4.2-6.2-5.6-10.1c-1.4-3.9-2.1-8.5-2.1-13.8c0-7.7,1.2-14.1,3.8-19.3c2.5-5.1,5.7-9.2,9.6-12.1
		c3.9-3,8.2-5,13-6.2c4.8-1.2,9.4-1.8,13.8-1.8c4.4,0,8.4,0.4,11.8,1.1c3.5,0.7,6.7,1.8,9.7,3.2c3,1.4,5.9,3.1,8.7,5.3
		c2.8,2.1,5.9,4.6,9.2,7.5l-11.3,19.9c-5-4.3-9.8-7.7-14.4-10c-4.6-2.3-9.5-3.4-14.6-3.4c-1.7,0-3.7,0.3-5.9,0.8
		c-2.2,0.5-4.3,1.4-6.3,2.6c-2,1.2-3.6,2.7-4.9,4.6c-1.3,1.9-1.9,4.1-1.9,6.8c0,2.7,0.8,4.9,2.3,6.7c1.5,1.8,3.5,3.3,5.9,4.5
		c2.4,1.2,5.1,2.2,7.9,3.1c2.9,0.8,5.7,1.7,8.4,2.5c2,0.6,4.4,1.2,7.1,1.8c2.7,0.6,5.6,1.4,8.5,2.5c2.9,1.1,5.8,2.5,8.7,4.3
		s5.5,4.1,7.7,7c2.3,2.8,4.1,6.3,5.5,10.5c1.4,4.2,2.1,9.2,2.1,15.1c0,6.9-1,12.9-2.9,17.9c-1.9,5.1-4.7,9.3-8.2,12.6
		c-3.6,3.3-7.8,5.8-12.7,7.5c-4.9,1.7-10.3,2.5-16.3,2.5c-5.5,0-10.3-0.5-14.5-1.5c-4.2-1-8-2.4-11.5-4.2c-3.5-1.7-6.7-3.8-9.8-6.2
		C1809.4,1137.5,1806.2,1134.8,1802.9,1131.9z"/>
</g>
<g>
	<path class="st0" d="M2117.1,1017c-2.7,5.6-5.8,11.9-9.3,19c-3.5,7.1-7.1,14.4-10.8,21.8c-3.7,7.4-7.3,14.7-10.8,21.9
		c-3.6,7.2-6.7,13.7-9.4,19.5v50.1h-20.2v-50.1c-6.3-13.8-12.9-27.5-19.9-41.1c-7-13.6-13.7-27.3-20.1-41.1h23.5
		c4.3,9.1,8.8,18.4,13.3,28.1c4.5,9.7,8.9,19,13.3,28.1c2.1-4.2,4.3-8.7,6.6-13.6c2.3-4.8,4.6-9.7,6.9-14.6s4.6-9.7,6.9-14.5
		c2.3-4.8,4.4-9.3,6.4-13.5H2117.1z"/>
	<path class="st0" d="M2141.2,1149.3H2121v-132.5h48c5.4,0,10.3,1.1,14.8,3.3c4.5,2.2,8.3,5.4,11.5,9.4c3.2,4,5.7,8.9,7.4,14.5
		c1.8,5.6,2.7,11.7,2.7,18.4c0,10-2,18.8-6,26.3c-4,7.5-9.3,12.9-16,16.1c8.9,14.7,17.6,29.6,26.3,44.5h-24.1
		c-4.2-6.9-8.3-13.8-12.4-20.8c-4-7-8.1-14.1-12.1-21.4h-20V1149.3z M2141.2,1084.7h27.8c1.8,0,3.7-0.5,5.7-1.4s3.7-2.3,5.3-4.2
		c1.5-1.9,2.8-4.2,3.8-7c1-2.8,1.5-6,1.5-9.8c0-1.9-0.2-4.2-0.6-6.9c-0.4-2.7-1.2-5.2-2.3-7.6c-1.2-2.4-2.8-4.5-4.9-6.2
		c-2.1-1.7-4.9-2.5-8.5-2.5h-27.8V1084.7z"/>
	<path class="st0" d="M2212.4,1131.9l11-20.3c5.3,4.6,10.8,8.5,16.4,11.9c5.6,3.3,11.5,5,17.7,5c3.3,0,6.2-0.5,8.7-1.5
		c2.5-1,4.6-2.4,6.4-4c1.7-1.6,3-3.5,3.9-5.6c0.9-2.1,1.3-4.2,1.3-6.2c0-2.7-0.6-4.9-1.9-6.8c-1.3-1.9-3-3.4-5.2-4.6
		c-2.2-1.2-4.7-2.2-7.7-3.1c-2.9-0.8-6-1.6-9.2-2.4c-2.1-0.5-4.6-1.1-7.4-1.7c-2.8-0.7-5.7-1.6-8.7-2.7c-3-1.1-5.9-2.7-8.8-4.5
		c-2.9-1.9-5.5-4.2-7.8-7.1c-2.3-2.8-4.2-6.2-5.6-10.1c-1.4-3.9-2.1-8.5-2.1-13.8c0-7.7,1.2-14.1,3.8-19.3c2.5-5.1,5.7-9.2,9.6-12.1
		c3.9-3,8.2-5,13-6.2c4.8-1.2,9.4-1.8,13.8-1.8c4.4,0,8.4,0.4,11.8,1.1c3.5,0.7,6.7,1.8,9.7,3.2c3,1.4,5.9,3.1,8.7,5.3
		c2.8,2.1,5.9,4.6,9.2,7.5l-11.3,19.9c-5-4.3-9.8-7.7-14.4-10c-4.6-2.3-9.5-3.4-14.6-3.4c-1.7,0-3.7,0.3-5.9,0.8
		c-2.2,0.5-4.3,1.4-6.3,2.6c-2,1.2-3.6,2.7-4.9,4.6c-1.3,1.9-1.9,4.1-1.9,6.8c0,2.7,0.8,4.9,2.3,6.7c1.5,1.8,3.5,3.3,5.9,4.5
		c2.4,1.2,5.1,2.2,7.9,3.1c2.9,0.8,5.7,1.7,8.4,2.5c2,0.6,4.4,1.2,7.1,1.8c2.7,0.6,5.6,1.4,8.5,2.5c2.9,1.1,5.8,2.5,8.7,4.3
		s5.5,4.1,7.7,7c2.3,2.8,4.1,6.3,5.5,10.5c1.4,4.2,2.1,9.2,2.1,15.1c0,6.9-1,12.9-2.9,17.9c-1.9,5.1-4.7,9.3-8.2,12.6
		c-3.6,3.3-7.8,5.8-12.7,7.5c-4.9,1.7-10.3,2.5-16.3,2.5c-5.5,0-10.3-0.5-14.5-1.5c-4.2-1-8-2.4-11.5-4.2c-3.5-1.7-6.7-3.8-9.8-6.2
		C2218.8,1137.5,2215.7,1134.8,2212.4,1131.9z"/>
</g>
<g>
	<path class="st0" d="M2443.4,1149.3h-34.8v-132.5h34.8c12.6,0,22.9,5.6,31,16.7c4.3,5.9,7.6,13.1,9.8,21.5
		c2.2,8.4,3.3,17.8,3.3,28.2c0,10.5-1.1,19.9-3.3,28.3c-2.2,8.4-5.5,15.5-9.8,21.5c-3.9,5.4-8.5,9.5-13.8,12.3
		C2455.4,1147.9,2449.7,1149.3,2443.4,1149.3z M2425.5,1126.9h17.9c3.1,0,6.3-0.5,9.5-1.6c3.2-1.1,6.1-3.2,8.7-6.4
		c2.6-3.2,4.8-7.6,6.4-13.3c1.7-5.7,2.5-13.1,2.5-22.3c0-9.2-0.8-16.6-2.5-22.4c-1.7-5.7-3.9-10.2-6.5-13.3
		c-2.6-3.1-5.6-5.3-8.8-6.3c-3.2-1.1-6.3-1.6-9.4-1.6h-17.9V1126.9z"/>
	<path class="st0" d="M2478,1149.3l45-132.3h1.7l45,132.3h-18.3l-6.9-20.8h-41.6l-6.7,20.8H2478z M2511.3,1106.4h25.2l-12.5-40
		L2511.3,1106.4z"/>
</g>
<g>
	<path class="st0" d="M4.4,350l11-20.3c5.3,4.6,10.8,8.5,16.4,11.9c5.6,3.3,11.5,5,17.7,5c3.3,0,6.2-0.5,8.7-1.5
		c2.5-1,4.6-2.4,6.4-4s3-3.5,3.9-5.6c0.9-2.1,1.3-4.2,1.3-6.2c0-2.7-0.6-4.9-1.9-6.8c-1.3-1.9-3-3.4-5.2-4.6
		c-2.2-1.2-4.7-2.2-7.6-3.1c-2.9-0.8-6-1.6-9.2-2.4c-2.1-0.5-4.6-1.1-7.4-1.7c-2.8-0.7-5.7-1.6-8.7-2.7c-3-1.1-5.9-2.7-8.8-4.5
		c-2.9-1.9-5.5-4.2-7.8-7.1c-2.3-2.8-4.2-6.2-5.6-10.1c-1.4-3.9-2.1-8.5-2.1-13.8c0-7.7,1.2-14.1,3.8-19.3c2.5-5.1,5.7-9.2,9.6-12.1
		c3.9-3,8.2-5,13-6.2c4.8-1.2,9.4-1.8,13.8-1.8c4.4,0,8.4,0.4,11.8,1.1c3.5,0.7,6.7,1.8,9.7,3.2c3,1.4,5.9,3.1,8.7,5.3
		c2.8,2.1,5.9,4.6,9.2,7.5l-11.3,19.9c-5-4.3-9.8-7.7-14.4-10c-4.6-2.3-9.5-3.4-14.6-3.4c-1.7,0-3.7,0.3-5.9,0.8
		c-2.2,0.5-4.3,1.4-6.3,2.6c-2,1.2-3.6,2.7-4.9,4.6c-1.3,1.9-1.9,4.1-1.9,6.8c0,2.7,0.8,4.9,2.3,6.7c1.5,1.8,3.5,3.3,5.9,4.5
		c2.4,1.2,5.1,2.2,7.9,3.1c2.9,0.8,5.7,1.7,8.4,2.5c2,0.6,4.4,1.2,7.1,1.8c2.7,0.6,5.6,1.4,8.5,2.5c2.9,1.1,5.8,2.5,8.7,4.3
		c2.9,1.8,5.5,4.1,7.7,7c2.3,2.8,4.1,6.3,5.5,10.5c1.4,4.2,2.1,9.2,2.1,15.1c0,6.9-1,12.9-2.9,17.9c-1.9,5.1-4.7,9.3-8.2,12.6
		c-3.6,3.3-7.8,5.8-12.7,7.5c-4.9,1.7-10.3,2.5-16.3,2.5c-5.5,0-10.3-0.5-14.5-1.5c-4.2-1-8-2.4-11.5-4.2c-3.5-1.7-6.7-3.8-9.8-6.2
		C10.8,355.6,7.6,352.9,4.4,350z"/>
</g>
<g>
	<path class="st0" d="M165,437.7c5.2,0,10.1,1.2,14.7,3.7c4.6,2.5,8.5,5.8,11.9,10c3.4,4.2,6,9.2,8,14.9c2,5.7,3,11.9,3,18.4
		c0,6.5-0.9,12.6-2.6,18.1c-1.7,5.6-4.3,10.4-7.6,14.6c-3.4,4.2-7.6,7.4-12.8,9.8c-5.1,2.4-11.1,3.5-17.8,3.5h-23.5v39.5h-20.2
		V437.7H165z M165,508c3,0,5.6-0.6,7.8-1.9c2.2-1.3,4-3,5.4-5.2c1.4-2.2,2.4-4.6,3.1-7.4c0.7-2.8,1-5.7,1-8.7c0-3-0.4-6-1.3-9
		c-0.9-3-2.1-5.6-3.8-7.9c-1.6-2.3-3.7-4.2-6.1-5.6c-2.4-1.4-5.2-2.2-8.4-2.2h-24.7V508H165z"/>
	<path class="st0" d="M203.2,552.9l11-20.3c5.3,4.6,10.8,8.5,16.4,11.9c5.6,3.3,11.5,5,17.7,5c3.3,0,6.2-0.5,8.7-1.5
		c2.5-1,4.6-2.4,6.4-4s3-3.5,3.9-5.6c0.9-2.1,1.3-4.2,1.3-6.2c0-2.7-0.6-4.9-1.9-6.8c-1.3-1.9-3-3.4-5.2-4.6
		c-2.2-1.2-4.7-2.2-7.6-3.1c-2.9-0.8-6-1.6-9.2-2.4c-2.1-0.5-4.6-1.1-7.4-1.7c-2.8-0.7-5.7-1.6-8.7-2.7c-3-1.1-5.9-2.7-8.8-4.5
		c-2.9-1.9-5.5-4.2-7.8-7.1c-2.3-2.8-4.2-6.2-5.6-10.1c-1.4-3.9-2.1-8.5-2.1-13.8c0-7.7,1.2-14.1,3.8-19.3c2.5-5.1,5.7-9.2,9.6-12.1
		c3.9-3,8.2-5,13-6.2c4.8-1.2,9.4-1.8,13.8-1.8c4.4,0,8.4,0.4,11.8,1.1c3.5,0.7,6.7,1.8,9.7,3.2c3,1.4,5.9,3.1,8.7,5.3
		c2.8,2.1,5.9,4.6,9.2,7.5l-11.3,19.9c-5-4.3-9.8-7.7-14.4-10c-4.6-2.3-9.5-3.4-14.6-3.4c-1.7,0-3.7,0.3-5.9,0.8
		c-2.2,0.5-4.3,1.4-6.3,2.6c-2,1.2-3.6,2.7-4.9,4.6c-1.3,1.9-1.9,4.1-1.9,6.8c0,2.7,0.8,4.9,2.3,6.7c1.5,1.8,3.5,3.3,5.9,4.5
		c2.4,1.2,5.1,2.2,7.9,3.1c2.9,0.8,5.7,1.7,8.4,2.5c2,0.6,4.4,1.2,7.1,1.8c2.7,0.6,5.6,1.4,8.5,2.5c2.9,1.1,5.8,2.5,8.7,4.3
		c2.9,1.8,5.5,4.1,7.7,7c2.3,2.8,4.1,6.3,5.5,10.5c1.4,4.2,2.1,9.2,2.1,15.1c0,6.9-1,12.9-2.9,17.9c-1.9,5.1-4.7,9.3-8.2,12.6
		c-3.6,3.3-7.8,5.8-12.7,7.5c-4.9,1.7-10.3,2.5-16.3,2.5c-5.5,0-10.3-0.5-14.5-1.5c-4.2-1-8-2.4-11.5-4.2c-3.5-1.7-6.7-3.8-9.8-6.2
		C209.7,558.4,206.5,555.8,203.2,552.9z"/>
</g>
<g>
	<path class="st0" d="M352.2,633.9c5.2,0,10.1,1.2,14.7,3.7c4.6,2.5,8.5,5.8,11.9,10c3.4,4.2,6,9.2,8,14.9c2,5.7,3,11.9,3,18.4
		s-0.9,12.6-2.6,18.1c-1.7,5.6-4.3,10.4-7.6,14.6c-3.4,4.2-7.6,7.4-12.8,9.8c-5.1,2.4-11.1,3.5-17.8,3.5h-23.5v39.5h-20.2V633.9
		H352.2z M352.2,704.2c3,0,5.6-0.6,7.8-1.9c2.2-1.3,4-3,5.4-5.2c1.4-2.2,2.4-4.6,3.1-7.4c0.7-2.8,1-5.7,1-8.7c0-3-0.4-6-1.3-9
		c-0.9-3-2.1-5.6-3.8-7.9c-1.6-2.3-3.7-4.2-6.1-5.6c-2.4-1.4-5.2-2.2-8.4-2.2h-24.7v47.8H352.2z"/>
	<path class="st0" d="M390.5,749.1l11-20.3c5.3,4.6,10.8,8.5,16.4,11.9c5.6,3.3,11.5,5,17.7,5c3.3,0,6.2-0.5,8.7-1.5
		c2.5-1,4.6-2.4,6.4-4c1.7-1.6,3-3.5,3.9-5.6c0.9-2.1,1.3-4.2,1.3-6.2c0-2.7-0.6-4.9-1.9-6.8c-1.3-1.9-3-3.4-5.2-4.6
		c-2.2-1.2-4.7-2.2-7.6-3.1c-2.9-0.8-6-1.6-9.2-2.4c-2.1-0.5-4.6-1.1-7.4-1.7c-2.8-0.7-5.7-1.6-8.7-2.7c-3-1.1-5.9-2.7-8.8-4.5
		c-2.9-1.9-5.5-4.2-7.8-7.1c-2.3-2.8-4.2-6.2-5.6-10.1c-1.4-3.9-2.1-8.5-2.1-13.8c0-7.7,1.2-14.1,3.8-19.3c2.5-5.1,5.7-9.2,9.6-12.1
		c3.9-3,8.2-5,13-6.2c4.8-1.2,9.4-1.8,13.8-1.8c4.4,0,8.4,0.4,11.8,1.1c3.5,0.7,6.7,1.8,9.7,3.2c3,1.4,5.9,3.1,8.7,5.3
		c2.8,2.1,5.9,4.6,9.2,7.5l-11.3,19.9c-5-4.3-9.8-7.7-14.4-10c-4.6-2.3-9.5-3.4-14.6-3.4c-1.7,0-3.7,0.3-5.9,0.8
		c-2.2,0.5-4.3,1.4-6.3,2.6c-2,1.2-3.6,2.7-4.9,4.6c-1.3,1.9-1.9,4.1-1.9,6.8c0,2.7,0.8,4.9,2.3,6.7c1.5,1.8,3.5,3.3,5.9,4.5
		c2.4,1.2,5.1,2.2,7.9,3.1c2.9,0.8,5.7,1.7,8.4,2.5c2,0.6,4.4,1.2,7.1,1.8c2.7,0.6,5.6,1.4,8.5,2.5c2.9,1.1,5.8,2.5,8.7,4.3
		c2.9,1.8,5.5,4.1,7.7,7c2.3,2.8,4.1,6.3,5.5,10.5c1.4,4.2,2.1,9.2,2.1,15.1c0,6.9-1,12.9-2.9,17.9c-1.9,5.1-4.7,9.3-8.2,12.6
		c-3.6,3.3-7.8,5.8-12.7,7.5c-4.9,1.7-10.3,2.5-16.3,2.5c-5.5,0-10.3-0.5-14.5-1.5c-4.2-1-8-2.4-11.5-4.2c-3.5-1.7-6.7-3.8-9.8-6.2
		C396.9,754.6,393.7,752,390.5,749.1z"/>
</g>
<g>
	<path class="st0" d="M553.2,839.4c5.2,0,10.1,1.2,14.7,3.7c4.6,2.5,8.5,5.8,11.9,10c3.4,4.2,6,9.2,8,14.9c2,5.7,3,11.9,3,18.4
		c0,6.5-0.9,12.6-2.6,18.1c-1.7,5.6-4.3,10.4-7.6,14.6c-3.4,4.2-7.6,7.4-12.8,9.8c-5.1,2.4-11.1,3.5-17.8,3.5h-23.5V972h-20.2V839.4
		H553.2z M553.2,909.7c3,0,5.6-0.6,7.8-1.9c2.2-1.3,4-3,5.4-5.2c1.4-2.2,2.4-4.6,3.1-7.4c0.7-2.8,1-5.7,1-8.7c0-3-0.4-6-1.3-9
		c-0.9-3-2.1-5.6-3.8-7.9c-1.6-2.3-3.7-4.2-6.1-5.6c-2.4-1.4-5.2-2.2-8.4-2.2h-24.7v47.8H553.2z"/>
	<path class="st0" d="M591.4,954.6l11-20.3c5.3,4.6,10.8,8.5,16.4,11.9c5.6,3.3,11.5,5,17.7,5c3.3,0,6.2-0.5,8.7-1.5
		c2.5-1,4.6-2.4,6.4-4c1.7-1.6,3-3.5,3.9-5.6c0.9-2.1,1.3-4.2,1.3-6.2c0-2.7-0.6-4.9-1.9-6.8c-1.3-1.9-3-3.4-5.2-4.6
		c-2.2-1.2-4.7-2.2-7.6-3.1c-2.9-0.8-6-1.6-9.2-2.4c-2.1-0.5-4.6-1.1-7.4-1.7c-2.8-0.7-5.7-1.6-8.7-2.7c-3-1.1-5.9-2.7-8.8-4.5
		c-2.9-1.9-5.5-4.2-7.8-7.1c-2.3-2.8-4.2-6.2-5.6-10.1c-1.4-3.9-2.1-8.5-2.1-13.8c0-7.7,1.2-14.1,3.8-19.3c2.5-5.1,5.7-9.2,9.6-12.1
		c3.9-3,8.2-5,13-6.2c4.8-1.2,9.4-1.8,13.8-1.8c4.4,0,8.4,0.4,11.8,1.1c3.5,0.7,6.7,1.8,9.7,3.2c3,1.4,5.9,3.1,8.7,5.3
		c2.8,2.1,5.9,4.6,9.2,7.5l-11.3,19.9c-5-4.3-9.8-7.7-14.4-10c-4.6-2.3-9.5-3.4-14.6-3.4c-1.7,0-3.7,0.3-5.9,0.8
		c-2.2,0.5-4.3,1.4-6.3,2.6c-2,1.2-3.6,2.7-4.9,4.6c-1.3,1.9-1.9,4.1-1.9,6.8c0,2.7,0.8,4.9,2.3,6.7c1.5,1.8,3.5,3.3,5.9,4.5
		c2.4,1.2,5.1,2.2,7.9,3.1c2.9,0.8,5.7,1.7,8.4,2.5c2,0.6,4.4,1.2,7.1,1.8c2.7,0.6,5.6,1.4,8.5,2.5c2.9,1.1,5.8,2.5,8.7,4.3
		c2.9,1.8,5.5,4.1,7.7,7c2.3,2.8,4.1,6.3,5.5,10.5c1.4,4.2,2.1,9.2,2.1,15.1c0,6.9-1,12.9-2.9,17.9c-1.9,5.1-4.7,9.3-8.2,12.6
		c-3.6,3.3-7.8,5.8-12.7,7.5c-4.9,1.7-10.3,2.5-16.3,2.5c-5.5,0-10.3-0.5-14.5-1.5c-4.2-1-8-2.4-11.5-4.2c-3.5-1.7-6.7-3.8-9.8-6.2
		C597.8,960.1,594.7,957.5,591.4,954.6z"/>
</g>
<g>
	<path class="st0" d="M754.8,1025.7c5.2,0,10.1,1.2,14.7,3.7c4.6,2.5,8.5,5.8,11.9,10c3.4,4.2,6,9.2,8,14.9c2,5.7,3,11.9,3,18.4
		c0,6.5-0.9,12.6-2.6,18.1c-1.7,5.6-4.3,10.4-7.6,14.6c-3.4,4.2-7.6,7.4-12.8,9.8c-5.1,2.4-11.1,3.5-17.8,3.5H728v39.5h-20.2v-132.5
		H754.8z M754.8,1095.9c3,0,5.6-0.6,7.8-1.9c2.2-1.3,4-3,5.4-5.2c1.4-2.2,2.4-4.6,3.1-7.4c0.7-2.8,1-5.7,1-8.7c0-3-0.4-6-1.3-9
		c-0.9-3-2.1-5.6-3.8-7.9c-1.6-2.3-3.7-4.2-6.1-5.6c-2.4-1.4-5.2-2.2-8.4-2.2H728v47.8H754.8z"/>
	<path class="st0" d="M793.1,1140.8l11-20.3c5.3,4.6,10.8,8.5,16.4,11.9c5.6,3.3,11.5,5,17.7,5c3.3,0,6.2-0.5,8.7-1.5
		c2.5-1,4.6-2.4,6.4-4c1.7-1.6,3-3.5,3.9-5.6c0.9-2.1,1.3-4.2,1.3-6.2c0-2.7-0.6-4.9-1.9-6.8c-1.3-1.9-3-3.4-5.2-4.6
		c-2.2-1.2-4.7-2.2-7.6-3.1c-2.9-0.8-6-1.6-9.2-2.4c-2.1-0.5-4.6-1.1-7.4-1.7c-2.8-0.7-5.7-1.6-8.7-2.7c-3-1.1-5.9-2.7-8.8-4.5
		c-2.9-1.9-5.5-4.2-7.8-7.1c-2.3-2.8-4.2-6.2-5.6-10.1c-1.4-3.9-2.1-8.5-2.1-13.8c0-7.7,1.2-14.1,3.8-19.3c2.5-5.1,5.7-9.2,9.6-12.1
		c3.9-3,8.2-5,13-6.2c4.8-1.2,9.4-1.8,13.8-1.8c4.4,0,8.4,0.4,11.8,1.1c3.5,0.7,6.7,1.8,9.7,3.2c3,1.4,5.9,3.1,8.7,5.3
		c2.8,2.1,5.9,4.6,9.2,7.5l-11.3,19.9c-5-4.3-9.8-7.7-14.4-10c-4.6-2.3-9.5-3.4-14.6-3.4c-1.7,0-3.7,0.3-5.9,0.8
		c-2.2,0.5-4.3,1.4-6.3,2.6c-2,1.2-3.6,2.7-4.9,4.6c-1.3,1.9-1.9,4.1-1.9,6.8c0,2.7,0.8,4.9,2.3,6.7c1.5,1.8,3.5,3.3,5.9,4.5
		c2.4,1.2,5.1,2.2,7.9,3.1c2.9,0.8,5.7,1.7,8.4,2.5c2,0.6,4.4,1.2,7.1,1.8c2.7,0.6,5.6,1.4,8.5,2.5c2.9,1.1,5.8,2.5,8.7,4.3
		c2.9,1.8,5.5,4.1,7.7,7c2.3,2.8,4.1,6.3,5.5,10.5c1.4,4.2,2.1,9.2,2.1,15.1c0,6.9-1,12.9-2.9,17.9c-1.9,5.1-4.7,9.3-8.2,12.6
		c-3.6,3.3-7.8,5.8-12.7,7.5c-4.9,1.7-10.3,2.5-16.3,2.5c-5.5,0-10.3-0.5-14.5-1.5c-4.2-1-8-2.4-11.5-4.2c-3.5-1.7-6.7-3.8-9.8-6.2
		C799.5,1146.3,796.4,1143.7,793.1,1140.8z"/>
</g>
<g>
	<path class="st0" d="M23.1,766.5h-22V634.1h22V766.5z"/>
	<path class="st0" d="M37.7,749.1l11.9-20.3c5.7,4.6,11.7,8.5,17.8,11.9c6.1,3.3,12.5,5,19.2,5c3.6,0,6.7-0.5,9.4-1.5
		c2.7-1,5-2.4,6.9-4c1.9-1.6,3.3-3.5,4.2-5.6c0.9-2.1,1.4-4.2,1.4-6.2c0-2.7-0.7-4.9-2.1-6.8c-1.4-1.9-3.3-3.4-5.6-4.6
		c-2.4-1.2-5.1-2.2-8.3-3.1c-3.2-0.8-6.5-1.6-10-2.4c-2.3-0.5-5-1.1-8-1.7c-3-0.7-6.2-1.6-9.4-2.7c-3.2-1.1-6.4-2.7-9.6-4.5
		c-3.1-1.9-6-4.2-8.5-7.1c-2.5-2.8-4.5-6.2-6-10.1c-1.5-3.9-2.3-8.5-2.3-13.8c0-7.7,1.4-14.1,4.1-19.3C45.6,647,49,643,53.3,640
		c4.2-3,8.9-5,14.1-6.2c5.2-1.2,10.2-1.8,15-1.8c4.8,0,9.1,0.4,12.9,1.1c3.8,0.7,7.3,1.8,10.5,3.2c3.2,1.4,6.4,3.1,9.5,5.3
		c3.1,2.1,6.4,4.6,10,7.5l-12.2,19.9c-5.4-4.3-10.7-7.7-15.7-10c-5-2.3-10.3-3.4-15.8-3.4c-1.9,0-4,0.3-6.4,0.8
		c-2.4,0.5-4.7,1.4-6.8,2.6c-2.1,1.2-3.9,2.7-5.3,4.6c-1.4,1.9-2.1,4.1-2.1,6.8c0,2.7,0.8,4.9,2.5,6.7c1.7,1.8,3.8,3.3,6.4,4.5
		c2.6,1.2,5.5,2.2,8.6,3.1c3.1,0.8,6.2,1.7,9.1,2.5c2.2,0.6,4.8,1.2,7.8,1.8c3,0.6,6.1,1.4,9.3,2.5c3.2,1.1,6.4,2.5,9.5,4.3
		c3.1,1.8,5.9,4.1,8.4,7c2.5,2.8,4.4,6.3,6,10.5c1.5,4.2,2.3,9.2,2.3,15.1c0,6.9-1,12.9-3.1,17.9c-2.1,5.1-5.1,9.3-8.9,12.6
		c-3.9,3.3-8.5,5.8-13.8,7.5c-5.3,1.7-11.2,2.5-17.7,2.5c-6,0-11.2-0.5-15.8-1.5c-4.5-1-8.7-2.4-12.5-4.2c-3.8-1.7-7.3-3.8-10.7-6.2
		C44.7,754.6,41.2,752,37.7,749.1z"/>
</g>
<g>
	<path class="st0" d="M269.2,834.1v132.3H249v-67l-33.1,49.8L183,899.4v67h-20.2V834.1h1.3l51.8,76.4l52-76.4H269.2z"/>
	<path class="st0" d="M279.9,949l11-20.3c5.3,4.6,10.8,8.5,16.4,11.9c5.6,3.3,11.5,5,17.7,5c3.3,0,6.2-0.5,8.7-1.5
		c2.5-1,4.6-2.4,6.4-4c1.7-1.6,3-3.5,3.9-5.6c0.9-2.1,1.3-4.2,1.3-6.2c0-2.7-0.6-4.9-1.9-6.8c-1.3-1.9-3-3.4-5.2-4.6
		c-2.2-1.2-4.7-2.2-7.6-3.1c-2.9-0.8-6-1.6-9.2-2.4c-2.1-0.5-4.6-1.1-7.4-1.7c-2.8-0.7-5.7-1.6-8.7-2.7c-3-1.1-5.9-2.7-8.8-4.5
		c-2.9-1.9-5.5-4.2-7.8-7.1c-2.3-2.8-4.2-6.2-5.6-10.1c-1.4-3.9-2.1-8.5-2.1-13.8c0-7.7,1.2-14.1,3.8-19.3c2.5-5.1,5.7-9.2,9.6-12.1
		c3.9-3,8.2-5,13-6.2c4.8-1.2,9.4-1.8,13.8-1.8c4.4,0,8.4,0.4,11.8,1.1c3.5,0.7,6.7,1.8,9.7,3.2c3,1.4,5.9,3.1,8.7,5.3
		c2.8,2.1,5.9,4.6,9.2,7.5l-11.3,19.9c-5-4.3-9.8-7.7-14.4-10c-4.6-2.3-9.5-3.4-14.6-3.4c-1.7,0-3.7,0.3-5.9,0.8
		c-2.2,0.5-4.3,1.4-6.3,2.6c-2,1.2-3.6,2.7-4.9,4.6c-1.3,1.9-1.9,4.1-1.9,6.8c0,2.7,0.8,4.9,2.3,6.7c1.5,1.8,3.5,3.3,5.9,4.5
		c2.4,1.2,5.1,2.2,7.9,3.1c2.9,0.8,5.7,1.7,8.4,2.5c2,0.6,4.4,1.2,7.1,1.8c2.7,0.6,5.6,1.4,8.5,2.5c2.9,1.1,5.8,2.5,8.7,4.3
		c2.9,1.8,5.5,4.1,7.7,7c2.3,2.8,4.1,6.3,5.5,10.5c1.4,4.2,2.1,9.2,2.1,15.1c0,6.9-1,12.9-2.9,17.9c-1.9,5.1-4.7,9.3-8.2,12.6
		c-3.6,3.3-7.8,5.8-12.7,7.5c-4.9,1.7-10.3,2.5-16.3,2.5c-5.5,0-10.3-0.5-14.5-1.5c-4.2-1-8-2.4-11.5-4.2c-3.5-1.7-6.7-3.8-9.8-6.2
		C286.3,954.6,283.1,951.9,279.9,949z"/>
</g>
<g>
	<path class="st0" d="M456.4,1030.3v132.3h-20.2v-67l-33.1,49.8l-32.9-49.8v67h-20.2v-132.3h1.3l51.8,76.4l52-76.4H456.4z"/>
	<path class="st0" d="M467.1,1145.3l11-20.3c5.3,4.6,10.8,8.5,16.4,11.9c5.6,3.3,11.5,5,17.7,5c3.3,0,6.2-0.5,8.7-1.5
		c2.5-1,4.6-2.4,6.4-4c1.7-1.6,3-3.5,3.9-5.6c0.9-2.1,1.3-4.2,1.3-6.2c0-2.7-0.6-4.9-1.9-6.8c-1.3-1.9-3-3.4-5.2-4.6
		c-2.2-1.2-4.7-2.2-7.6-3.1c-2.9-0.8-6-1.6-9.2-2.4c-2.1-0.5-4.6-1.1-7.4-1.7c-2.8-0.7-5.7-1.6-8.7-2.7c-3-1.1-5.9-2.7-8.8-4.5
		c-2.9-1.9-5.5-4.2-7.8-7.1c-2.3-2.8-4.2-6.2-5.6-10.1c-1.4-3.9-2.1-8.5-2.1-13.8c0-7.7,1.2-14.1,3.8-19.3c2.5-5.1,5.7-9.2,9.6-12.1
		c3.9-3,8.2-5,13-6.2c4.8-1.2,9.4-1.8,13.8-1.8c4.4,0,8.4,0.4,11.8,1.1c3.5,0.7,6.7,1.8,9.7,3.2c3,1.4,5.9,3.1,8.7,5.3
		c2.8,2.1,5.9,4.6,9.2,7.5l-11.3,19.9c-5-4.3-9.8-7.7-14.4-10c-4.6-2.3-9.5-3.4-14.6-3.4c-1.7,0-3.7,0.3-5.9,0.8
		c-2.2,0.5-4.3,1.4-6.3,2.6c-2,1.2-3.6,2.7-4.9,4.6c-1.3,1.9-1.9,4.1-1.9,6.8c0,2.7,0.8,4.9,2.3,6.7c1.5,1.8,3.5,3.3,5.9,4.5
		c2.4,1.2,5.1,2.2,7.9,3.1c2.9,0.8,5.7,1.7,8.4,2.5c2,0.6,4.4,1.2,7.1,1.8c2.7,0.6,5.6,1.4,8.5,2.5c2.9,1.1,5.8,2.5,8.7,4.3
		c2.9,1.8,5.5,4.1,7.7,7c2.3,2.8,4.1,6.3,5.5,10.5c1.4,4.2,2.1,9.2,2.1,15.1c0,6.9-1,12.9-2.9,17.9c-1.9,5.1-4.7,9.3-8.2,12.6
		c-3.6,3.3-7.8,5.8-12.7,7.5c-4.9,1.7-10.3,2.5-16.3,2.5c-5.5,0-10.3-0.5-14.5-1.5c-4.2-1-8-2.4-11.5-4.2c-3.5-1.7-6.7-3.8-9.8-6.2
		C473.6,1150.8,470.4,1148.2,467.1,1145.3z"/>
</g>
<g>
	<path class="st0" d="M60.5,1145.3l11-20.3c5.3,4.6,10.8,8.5,16.4,11.9c5.6,3.3,11.5,5,17.7,5c3.3,0,6.2-0.5,8.7-1.5
		c2.5-1,4.6-2.4,6.4-4c1.7-1.6,3-3.5,3.9-5.6c0.9-2.1,1.3-4.2,1.3-6.2c0-2.7-0.6-4.9-1.9-6.8c-1.3-1.9-3-3.4-5.2-4.6
		c-2.2-1.2-4.7-2.2-7.6-3.1c-2.9-0.8-6-1.6-9.2-2.4c-2.1-0.5-4.6-1.1-7.4-1.7c-2.8-0.7-5.7-1.6-8.7-2.7c-3-1.1-5.9-2.7-8.8-4.5
		c-2.9-1.9-5.5-4.2-7.8-7.1c-2.3-2.8-4.2-6.2-5.6-10.1c-1.4-3.9-2.1-8.5-2.1-13.8c0-7.7,1.2-14.1,3.8-19.3c2.5-5.1,5.7-9.2,9.6-12.1
		c3.9-3,8.2-5,13-6.2c4.8-1.2,9.4-1.8,13.8-1.8c4.4,0,8.4,0.4,11.8,1.1c3.5,0.7,6.7,1.8,9.7,3.2c3,1.4,5.9,3.1,8.7,5.3
		c2.8,2.1,5.9,4.6,9.2,7.5l-11.3,19.9c-5-4.3-9.8-7.7-14.4-10c-4.6-2.3-9.5-3.4-14.6-3.4c-1.7,0-3.7,0.3-5.9,0.8
		c-2.2,0.5-4.3,1.4-6.3,2.6c-2,1.2-3.6,2.7-4.9,4.6c-1.3,1.9-1.9,4.1-1.9,6.8c0,2.7,0.8,4.9,2.3,6.7c1.5,1.8,3.5,3.3,5.9,4.5
		c2.4,1.2,5.1,2.2,7.9,3.1c2.9,0.8,5.7,1.7,8.4,2.5c2,0.6,4.4,1.2,7.1,1.8c2.7,0.6,5.6,1.4,8.5,2.5c2.9,1.1,5.8,2.5,8.7,4.3
		c2.9,1.8,5.5,4.1,7.7,7c2.3,2.8,4.1,6.3,5.5,10.5c1.4,4.2,2.1,9.2,2.1,15.1c0,6.9-1,12.9-2.9,17.9c-1.9,5.1-4.7,9.3-8.2,12.6
		c-3.6,3.3-7.8,5.8-12.7,7.5c-4.9,1.7-10.3,2.5-16.3,2.5c-5.5,0-10.3-0.5-14.5-1.5c-4.2-1-8-2.4-11.5-4.2c-3.5-1.7-6.7-3.8-9.8-6.2
		C66.9,1150.8,63.8,1148.2,60.5,1145.3z"/>
</g>
</svg>
