<?xml version="1.0" encoding="utf-8"?>
<!-- Generator: Adobe Illustrator 23.0.1, SVG Export Plug-In . SVG Version: 6.00 Build 0)  -->
<svg version="1.1" id="Layer_1" xmlns="http://www.w3.org/2000/svg" xmlns:xlink="http://www.w3.org/1999/xlink" x="0px" y="0px"
	 viewBox="0 0 2569.8 1371.6" style="enable-background:new 0 0 2569.8 1371.6;" xml:space="preserve">
<style type="text/css">
	.st0{fill:#1B75BC;}
</style>
<title>5Asset 12</title>
<g>
	<path class="st0" d="M88.9,65.9c0,2.4-0.4,5-1.3,7.7s-2,5.3-3.5,7.5c-1.5,2.3-3.3,4.2-5.4,5.8c-2.1,1.6-4.4,2.4-6.9,2.5
		c2.6,0.2,5.2,1.1,7.7,2.5c2.5,1.5,4.8,3.5,6.9,6c2,2.5,3.7,5.4,5,8.6c1.3,3.3,1.9,6.7,1.9,10.4c0,6.5-0.9,12-2.6,16.6
		c-1.7,4.5-4.1,8.2-7.1,10.9c-3,2.8-6.5,4.8-10.5,6c-4,1.2-8.3,1.8-12.8,1.8H11.5V32.6H58c4.2,0,8.2,0.5,12,1.4
		c3.8,0.9,7,2.6,9.8,5.1c2.8,2.5,5,5.9,6.6,10.2C88.1,53.5,88.9,59.1,88.9,65.9z M31.8,81.3h24.8c2,0,3.8-0.4,5.3-1.3
		c1.5-0.9,2.7-2,3.8-3.5c1-1.4,1.8-3,2.3-4.9c0.5-1.8,0.8-3.6,0.8-5.3c0-1.8-0.3-3.5-0.9-5.1c-0.6-1.6-1.3-3.1-2.3-4.3
		c-1-1.2-2.1-2.2-3.4-3c-1.3-0.8-2.7-1.2-4.1-1.2H31.8V81.3z M60.3,132c1.7,0,3.4-0.5,4.9-1.4c1.5-0.9,2.9-2.2,4-3.8
		c1.2-1.6,2.1-3.3,2.7-5.2c0.7-1.9,1-3.8,1-5.8c0-4-1.3-7.4-4-10.1c-2.6-2.7-6.3-4.1-10.9-4.1H31.8V132H60.3z"/>
	<path class="st0" d="M180.9,65.9c0,2.4-0.4,5-1.3,7.7s-2,5.3-3.5,7.5c-1.5,2.3-3.3,4.2-5.4,5.8c-2.1,1.6-4.4,2.4-6.9,2.5
		c2.6,0.2,5.2,1.1,7.7,2.5c2.5,1.5,4.8,3.5,6.9,6c2,2.5,3.7,5.4,5,8.6c1.3,3.3,1.9,6.7,1.9,10.4c0,6.5-0.9,12-2.6,16.6
		c-1.7,4.5-4.1,8.2-7.1,10.9c-3,2.8-6.5,4.8-10.5,6c-4,1.2-8.3,1.8-12.8,1.8h-48.8V32.6H150c4.2,0,8.2,0.5,12,1.4
		c3.8,0.9,7,2.6,9.8,5.1c2.8,2.5,5,5.9,6.6,10.2C180,53.5,180.9,59.1,180.9,65.9z M123.7,81.3h24.8c2,0,3.8-0.4,5.3-1.3
		c1.5-0.9,2.7-2,3.8-3.5c1-1.4,1.8-3,2.3-4.9c0.5-1.8,0.8-3.6,0.8-5.3c0-1.8-0.3-3.5-0.9-5.1c-0.6-1.6-1.3-3.1-2.3-4.3
		c-1-1.2-2.1-2.2-3.4-3c-1.3-0.8-2.7-1.2-4.1-1.2h-26.3V81.3z M152.3,132c1.7,0,3.4-0.5,4.9-1.4c1.5-0.9,2.9-2.2,4-3.8
		c1.2-1.6,2.1-3.3,2.7-5.2c0.7-1.9,1-3.8,1-5.8c0-4-1.3-7.4-4-10.1c-2.6-2.7-6.3-4.1-10.9-4.1h-26.4V132H152.3z"/>
	<path class="st0" d="M271.5,132v20.3h-76.1V32.6h20.2V132H271.5z"/>
</g>
<g>
	<path class="st0" d="M477.1,65.9c0,2.4-0.4,5-1.3,7.7s-2,5.3-3.5,7.5c-1.5,2.3-3.3,4.2-5.4,5.8c-2.1,1.6-4.4,2.4-6.9,2.5
		c2.6,0.2,5.2,1.1,7.7,2.5c2.5,1.5,4.8,3.5,6.9,6c2,2.5,3.7,5.4,5,8.6c1.3,3.3,1.9,6.7,1.9,10.4c0,6.5-0.9,12-2.6,16.6
		c-1.7,4.5-4.1,8.2-7.1,10.9c-3,2.8-6.5,4.8-10.5,6c-4,1.2-8.3,1.8-12.8,1.8h-48.8V32.6h46.5c4.2,0,8.2,0.5,12,1.4
		c3.8,0.9,7,2.6,9.8,5.1c2.8,2.5,5,5.9,6.6,10.2C476.3,53.5,477.1,59.1,477.1,65.9z M419.9,81.3h24.8c2,0,3.8-0.4,5.3-1.3
		c1.5-0.9,2.7-2,3.8-3.5c1-1.4,1.8-3,2.3-4.9c0.5-1.8,0.8-3.6,0.8-5.3c0-1.8-0.3-3.5-0.9-5.1c-0.6-1.6-1.3-3.1-2.3-4.3
		c-1-1.2-2.1-2.2-3.4-3c-1.3-0.8-2.7-1.2-4.1-1.2h-26.3V81.3z M448.5,132c1.7,0,3.4-0.5,4.9-1.4c1.5-0.9,2.9-2.2,4-3.8
		c1.2-1.6,2.1-3.3,2.7-5.2c0.7-1.9,1-3.8,1-5.8c0-4-1.3-7.4-4-10.1c-2.6-2.7-6.3-4.1-10.9-4.1h-26.4V132H448.5z"/>
	<path class="st0" d="M534.7,154.5c-6.8,0-13-1.2-18.6-3.6c-5.6-2.4-10.3-5.8-14.3-10.1c-3.9-4.4-7-9.7-9.2-15.9s-3.2-13.1-3.2-20.8
		V32.7h20.2v71.2c0,6,0.9,10.9,2.6,14.9c1.7,3.9,3.9,7,6.4,9.3c2.5,2.3,5.3,3.9,8.2,4.7c2.9,0.9,5.6,1.3,7.9,1.3
		c2.3,0,4.9-0.4,7.9-1.3c2.9-0.9,5.7-2.4,8.2-4.7c2.5-2.3,4.7-5.4,6.4-9.3c1.7-3.9,2.6-8.9,2.6-14.9V32.7H580v71.3
		c0,7.6-1.1,14.6-3.2,20.8c-2.1,6.2-5.1,11.5-9.1,15.9c-3.9,4.4-8.7,7.7-14.3,10.1C547.9,153.3,541.6,154.5,534.7,154.5z"/>
</g>
<g>
	<path class="st0" d="M765.7,154.6c-7.5,0-14.6-1.6-21.2-4.9c-6.6-3.3-12.4-7.7-17.4-13.3c-5-5.6-8.9-12.2-11.8-19.7
		c-2.9-7.5-4.3-15.6-4.3-24.2c0-8.5,1.4-16.6,4.3-24.1c2.9-7.6,6.8-14.2,11.8-19.8c5-5.6,10.8-10.1,17.4-13.3
		c6.6-3.3,13.7-4.9,21.2-4.9c7.6,0,14.7,1.6,21.4,4.9c6.6,3.3,12.4,7.7,17.4,13.3c5,5.6,8.9,12.2,11.8,19.8
		c2.9,7.6,4.3,15.6,4.3,24.1c0,8.6-1.4,16.7-4.3,24.2s-6.8,14.1-11.8,19.7c-5,5.6-10.8,10.1-17.4,13.3
		C780.4,153,773.3,154.6,765.7,154.6z M765.8,51.7c-4.8,0-9.3,1.1-13.5,3.4c-4.2,2.2-7.8,5.2-10.9,8.9c-3.1,3.7-5.6,8-7.4,13
		c-1.8,5-2.7,10.1-2.7,15.5c0,5.5,0.9,10.6,2.7,15.5s4.3,9.2,7.4,13c3.1,3.8,6.8,6.8,10.9,9c4.2,2.2,8.7,3.4,13.5,3.4
		c4.8,0,9.3-1.1,13.5-3.4c4.2-2.2,7.8-5.2,10.9-9c3.1-3.8,5.6-8.1,7.4-13s2.7-10.1,2.7-15.5c0-5.3-0.9-10.5-2.7-15.5
		c-1.8-5-4.3-9.3-7.4-13c-3.1-3.7-6.8-6.7-10.9-8.9C775.1,52.8,770.6,51.7,765.8,51.7z"/>
	<path class="st0" d="M911.3,35.5l-58.9,95.5h56.9v21.3h-92.4v-2.6l59-95.9h-54.6V32.7h89.9V35.5z"/>
</g>
<g>
	<path class="st0" d="M1145.4,86.9c-0.1,2.3-0.1,4.4-0.1,6.4c-0.1,1.7-0.1,3.5-0.1,5.2c0,1.7,0,3-0.1,3.8
		c-0.6,7.5-2.4,14.5-5.4,20.9c-3,6.4-6.9,12-11.7,16.6c-4.8,4.6-10.2,8.3-16.5,10.9s-12.7,3.9-19.6,3.9c-7.5,0-14.6-1.6-21.2-4.9
		c-6.6-3.3-12.5-7.7-17.4-13.3c-5-5.6-8.9-12.2-11.8-19.7c-2.9-7.5-4.4-15.5-4.4-24.1c0-8.5,1.5-16.6,4.4-24.1
		c2.9-7.6,6.9-14.2,11.8-19.8c5-5.6,10.8-10.1,17.4-13.3c6.6-3.3,13.7-4.9,21.2-4.9c9.5,0,18.3,2.5,26.2,7.5
		c7.9,5,14.4,11.7,19.3,20.1L1120,70c-3.1-5.1-7.1-9.4-12.1-12.9c-5-3.5-10.3-5.2-16.1-5.2c-4.8,0-9.3,1.1-13.5,3.4
		c-4.2,2.2-7.8,5.2-11,8.9c-3.1,3.7-5.6,8-7.4,13c-1.8,5-2.7,10.1-2.7,15.5c0,5.5,0.9,10.6,2.7,15.5c1.8,4.9,4.3,9.2,7.4,12.9
		c3.1,3.7,6.8,6.7,11,8.9c4.2,2.2,8.7,3.4,13.5,3.4c3.7,0,7.2-0.6,10.5-1.9c3.4-1.3,6.4-3,9.2-5.3c2.8-2.3,5.2-5,7.3-8.2
		c2.1-3.2,3.6-6.7,4.5-10.5h-39V86.9H1145.4z"/>
	<path class="st0" d="M1138.8,152.3l54-119.6h2l54,119.6h-21.9l-8.2-18.8h-49.8l-8.1,18.8H1138.8z M1178.6,113.5h30.2l-15-36.2
		L1178.6,113.5z"/>
	<path class="st0" d="M1325.4,132v20.3h-76.1V32.6h20.2V132H1325.4z"/>
</g>
<g>
	<path class="st0" d="M1487.9,152.3h-41.7V32.6h41.7c15.1,0,27.5,5,37.2,15.1c5.2,5.3,9.1,11.8,11.7,19.4c2.6,7.6,4,16.1,4,25.4
		c0,9.5-1.3,18-4,25.6c-2.6,7.6-6.6,14-11.7,19.4c-4.7,4.9-10.2,8.6-16.5,11.1C1502.3,151.1,1495.4,152.3,1487.9,152.3z M1466.5,132
		h21.5c3.8,0,7.6-0.5,11.4-1.5c3.8-1,7.3-2.9,10.5-5.8c3.1-2.9,5.7-6.9,7.7-12c2-5.1,3-11.8,3-20.1c0-8.3-1-15-3-20.2
		c-2-5.2-4.6-9.2-7.8-12c-3.2-2.8-6.7-4.7-10.5-5.7c-3.8-1-7.6-1.5-11.3-1.5h-21.5V132z"/>
	<path class="st0" d="M1529.4,152.3l54-119.6h2l54,119.6h-21.9l-8.2-18.8h-49.8l-8.1,18.8H1529.4z M1569.3,113.5h30.2l-15-36.2
		L1569.3,113.5z"/>
	<path class="st0" d="M1716.1,132v20.3H1640V32.6h20.2V132H1716.1z"/>
</g>
<g>
	<path class="st0" d="M1944,86.9c-0.1,2.3-0.1,4.4-0.1,6.4c-0.1,1.7-0.1,3.5-0.1,5.2c0,1.7,0,3-0.1,3.8c-0.6,7.5-2.4,14.5-5.4,20.9
		c-3,6.4-6.9,12-11.7,16.6c-4.8,4.6-10.2,8.3-16.5,10.9c-6.2,2.6-12.7,3.9-19.6,3.9c-7.5,0-14.6-1.6-21.2-4.9
		c-6.6-3.3-12.5-7.7-17.4-13.3c-5-5.6-8.9-12.2-11.8-19.7c-2.9-7.5-4.4-15.5-4.4-24.1c0-8.5,1.5-16.6,4.4-24.1
		c2.9-7.6,6.9-14.2,11.8-19.8c5-5.6,10.8-10.1,17.4-13.3c6.6-3.3,13.7-4.9,21.2-4.9c9.5,0,18.3,2.5,26.2,7.5
		c7.9,5,14.4,11.7,19.3,20.1L1918.6,70c-3.1-5.1-7.1-9.4-12.1-12.9c-5-3.5-10.3-5.2-16.1-5.2c-4.8,0-9.3,1.1-13.5,3.4
		c-4.2,2.2-7.8,5.2-11,8.9c-3.1,3.7-5.6,8-7.4,13c-1.8,5-2.7,10.1-2.7,15.5c0,5.5,0.9,10.6,2.7,15.5c1.8,4.9,4.3,9.2,7.4,12.9
		c3.1,3.7,6.8,6.7,11,8.9c4.2,2.2,8.7,3.4,13.5,3.4c3.7,0,7.2-0.6,10.5-1.9c3.4-1.3,6.4-3,9.2-5.3c2.8-2.3,5.2-5,7.3-8.2
		c2.1-3.2,3.6-6.7,4.5-10.5h-39V86.9H1944z"/>
	<path class="st0" d="M1975.7,152.3h-20.2V32.7h20.2V152.3z"/>
</g>
<g>
	<path class="st0" d="M2194.2,32.6v119.8H2174v-47.6h-52.1v47.6h-20.2V32.6h20.2v51.9h52.1V32.6H2194.2z"/>
	<path class="st0" d="M2284.8,132v20.3h-76.1V32.6h20.2V132H2284.8z"/>
</g>
<g>
	<path class="st0" d="M2454.5,32.6c5.2,0,10.1,1.1,14.7,3.4c4.6,2.2,8.5,5.3,11.9,9.1c3.4,3.8,6,8.3,8,13.5c2,5.2,3,10.7,3,16.6
		s-0.9,11.3-2.6,16.4c-1.7,5-4.3,9.4-7.7,13.2c-3.4,3.8-7.6,6.7-12.8,8.8c-5.1,2.1-11.1,3.2-17.8,3.2h-23.5v35.7h-20.2V32.6H2454.5z
		 M2454.5,96c3,0,5.6-0.6,7.8-1.7c2.2-1.1,4-2.7,5.4-4.7c1.4-2,2.4-4.2,3.1-6.7c0.7-2.5,1-5.1,1-7.9c0-2.7-0.4-5.4-1.3-8.1
		c-0.9-2.7-2.1-5-3.8-7.1c-1.6-2.1-3.7-3.8-6.1-5.1c-2.4-1.3-5.2-2-8.4-2h-24.7V96H2454.5z"/>
	<path class="st0" d="M2569.8,52.8h-30.2v99.5h-20.2V52.8h-30.3V32.6h80.7V52.8z"/>
</g>
<g>
	<path class="st0" d="M287.7,251.7c0,2.4-0.4,5-1.3,7.7s-2,5.3-3.5,7.5c-1.5,2.3-3.3,4.2-5.4,5.8c-2.1,1.6-4.4,2.4-6.9,2.5
		c2.6,0.2,5.2,1.1,7.7,2.5c2.5,1.5,4.8,3.5,6.9,6c2,2.5,3.7,5.4,5,8.6c1.3,3.3,1.9,6.7,1.9,10.4c0,6.5-0.9,12-2.6,16.6
		c-1.7,4.5-4.1,8.2-7.1,10.9c-3,2.8-6.5,4.8-10.5,6c-4,1.2-8.3,1.8-12.8,1.8h-48.8V218.4h46.5c4.2,0,8.2,0.5,12,1.4
		c3.8,0.9,7,2.6,9.8,5.1c2.8,2.5,5,5.9,6.6,10.2C286.9,239.4,287.7,245,287.7,251.7z M230.6,267.2h24.8c2,0,3.8-0.4,5.3-1.3
		c1.5-0.9,2.7-2,3.8-3.5c1-1.4,1.8-3,2.3-4.9c0.5-1.8,0.8-3.6,0.8-5.3c0-1.8-0.3-3.5-0.9-5.1c-0.6-1.6-1.3-3.1-2.3-4.3
		c-1-1.2-2.1-2.2-3.4-3c-1.3-0.8-2.7-1.2-4.1-1.2h-26.3V267.2z M259.1,317.9c1.7,0,3.4-0.5,4.9-1.4c1.5-0.9,2.9-2.2,4-3.8
		c1.2-1.6,2.1-3.3,2.7-5.2c0.7-1.9,1-3.8,1-5.8c0-4-1.3-7.4-4-10.1c-2.6-2.7-6.3-4.1-10.9-4.1h-26.4v30.4H259.1z"/>
	<path class="st0" d="M379.7,251.7c0,2.4-0.4,5-1.3,7.7s-2,5.3-3.5,7.5c-1.5,2.3-3.3,4.2-5.4,5.8c-2.1,1.6-4.4,2.4-6.9,2.5
		c2.6,0.2,5.2,1.1,7.7,2.5c2.5,1.5,4.8,3.5,6.9,6c2,2.5,3.7,5.4,5,8.6c1.3,3.3,1.9,6.7,1.9,10.4c0,6.5-0.9,12-2.6,16.6
		c-1.7,4.5-4.1,8.2-7.1,10.9c-3,2.8-6.5,4.8-10.5,6c-4,1.2-8.3,1.8-12.8,1.8h-48.8V218.4h46.5c4.2,0,8.2,0.5,12,1.4
		c3.8,0.9,7,2.6,9.8,5.1c2.8,2.5,5,5.9,6.6,10.2C378.8,239.4,379.7,245,379.7,251.7z M322.5,267.2h24.8c2,0,3.8-0.4,5.3-1.3
		c1.5-0.9,2.7-2,3.8-3.5c1-1.4,1.8-3,2.3-4.9c0.5-1.8,0.8-3.6,0.8-5.3c0-1.8-0.3-3.5-0.9-5.1c-0.6-1.6-1.3-3.1-2.3-4.3
		c-1-1.2-2.1-2.2-3.4-3c-1.3-0.8-2.7-1.2-4.1-1.2h-26.3V267.2z M351.1,317.9c1.7,0,3.4-0.5,4.9-1.4c1.5-0.9,2.9-2.2,4-3.8
		c1.2-1.6,2.1-3.3,2.7-5.2c0.7-1.9,1-3.8,1-5.8c0-4-1.3-7.4-4-10.1c-2.6-2.7-6.3-4.1-10.9-4.1h-26.4v30.4H351.1z"/>
	<path class="st0" d="M470.3,317.9v20.3h-76.1V218.4h20.2v99.5H470.3z"/>
</g>
<g>
	<path class="st0" d="M675.9,251.7c0,2.4-0.4,5-1.3,7.7s-2,5.3-3.5,7.5c-1.5,2.3-3.3,4.2-5.4,5.8c-2.1,1.6-4.4,2.4-6.9,2.5
		c2.6,0.2,5.2,1.1,7.7,2.5c2.5,1.5,4.8,3.5,6.9,6c2,2.5,3.7,5.4,5,8.6c1.3,3.3,1.9,6.7,1.9,10.4c0,6.5-0.9,12-2.6,16.6
		c-1.7,4.5-4.1,8.2-7.1,10.9c-3,2.8-6.5,4.8-10.5,6c-4,1.2-8.3,1.8-12.8,1.8h-48.8V218.4H645c4.2,0,8.2,0.5,12,1.4
		c3.8,0.9,7,2.6,9.8,5.1c2.8,2.5,5,5.9,6.6,10.2C675.1,239.4,675.9,245,675.9,251.7z M618.7,267.2h24.8c2,0,3.8-0.4,5.3-1.3
		c1.5-0.9,2.7-2,3.8-3.5c1-1.4,1.8-3,2.3-4.9c0.5-1.8,0.8-3.6,0.8-5.3c0-1.8-0.3-3.5-0.9-5.1c-0.6-1.6-1.3-3.1-2.3-4.3
		c-1-1.2-2.1-2.2-3.4-3c-1.3-0.8-2.7-1.2-4.1-1.2h-26.3V267.2z M647.3,317.9c1.7,0,3.4-0.5,4.9-1.4c1.5-0.9,2.9-2.2,4-3.8
		c1.2-1.6,2.1-3.3,2.7-5.2c0.7-1.9,1-3.8,1-5.8c0-4-1.3-7.4-4-10.1c-2.6-2.7-6.3-4.1-10.9-4.1h-26.4v30.4H647.3z"/>
	<path class="st0" d="M733.5,340.3c-6.8,0-13-1.2-18.6-3.6c-5.6-2.4-10.3-5.8-14.3-10.1c-3.9-4.4-7-9.7-9.2-15.9s-3.2-13.1-3.2-20.8
		v-71.3h20.2v71.2c0,6,0.9,10.9,2.6,14.9c1.7,3.9,3.9,7,6.4,9.3c2.5,2.3,5.3,3.9,8.2,4.7c2.9,0.9,5.6,1.3,7.9,1.3
		c2.3,0,4.9-0.4,7.9-1.3c2.9-0.9,5.7-2.4,8.2-4.7c2.5-2.3,4.7-5.4,6.4-9.3c1.7-3.9,2.6-8.9,2.6-14.9v-71.2h20.2v71.3
		c0,7.6-1.1,14.6-3.2,20.8c-2.1,6.2-5.1,11.5-9.1,15.9c-3.9,4.4-8.7,7.7-14.3,10.1C746.7,339.1,740.4,340.3,733.5,340.3z"/>
</g>
<g>
	<path class="st0" d="M964.5,340.5c-7.5,0-14.6-1.6-21.2-4.9c-6.6-3.3-12.4-7.7-17.4-13.3c-5-5.6-8.9-12.2-11.8-19.7
		c-2.9-7.5-4.3-15.6-4.3-24.2c0-8.5,1.4-16.6,4.3-24.1c2.9-7.6,6.8-14.2,11.8-19.8c5-5.6,10.8-10.1,17.4-13.3
		c6.6-3.3,13.7-4.9,21.2-4.9c7.6,0,14.7,1.6,21.4,4.9c6.6,3.3,12.4,7.7,17.4,13.3c5,5.6,8.9,12.2,11.8,19.8
		c2.9,7.6,4.3,15.6,4.3,24.1c0,8.6-1.4,16.7-4.3,24.2s-6.8,14.1-11.8,19.7c-5,5.6-10.8,10.1-17.4,13.3
		C979.2,338.8,972.1,340.5,964.5,340.5z M964.6,237.6c-4.8,0-9.3,1.1-13.5,3.4c-4.2,2.2-7.8,5.2-10.9,8.9c-3.1,3.7-5.6,8-7.4,13
		c-1.8,5-2.7,10.1-2.7,15.5c0,5.5,0.9,10.6,2.7,15.5s4.3,9.2,7.4,13c3.1,3.8,6.8,6.8,10.9,9c4.2,2.2,8.7,3.4,13.5,3.4
		c4.8,0,9.3-1.1,13.5-3.4c4.2-2.2,7.8-5.2,10.9-9c3.1-3.8,5.6-8.1,7.4-13s2.7-10.1,2.7-15.5c0-5.3-0.9-10.5-2.7-15.5
		c-1.8-5-4.3-9.3-7.4-13c-3.1-3.7-6.8-6.7-10.9-8.9C973.9,238.7,969.4,237.6,964.6,237.6z"/>
	<path class="st0" d="M1110.1,221.4l-58.9,95.5h56.9v21.3h-92.4v-2.6l59-95.9h-54.6v-21.1h89.9V221.4z"/>
</g>
<g>
	<path class="st0" d="M1344.2,272.7c-0.1,2.3-0.1,4.4-0.1,6.4c-0.1,1.7-0.1,3.5-0.1,5.2c0,1.7,0,3-0.1,3.8
		c-0.6,7.5-2.4,14.5-5.4,20.9c-3,6.4-6.9,12-11.7,16.6c-4.8,4.6-10.2,8.3-16.5,10.9c-6.2,2.6-12.7,3.9-19.6,3.9
		c-7.5,0-14.6-1.6-21.2-4.9c-6.6-3.3-12.5-7.7-17.4-13.3c-5-5.6-8.9-12.2-11.8-19.7c-2.9-7.5-4.4-15.5-4.4-24.1
		c0-8.5,1.5-16.6,4.4-24.1c2.9-7.6,6.9-14.2,11.8-19.8c5-5.6,10.8-10.1,17.4-13.3c6.6-3.3,13.7-4.9,21.2-4.9
		c9.5,0,18.3,2.5,26.2,7.5c7.9,5,14.4,11.7,19.3,20.1l-17.3,11.9c-3.1-5.1-7.1-9.4-12.1-12.9c-5-3.5-10.3-5.2-16.1-5.2
		c-4.8,0-9.3,1.1-13.5,3.4c-4.2,2.2-7.8,5.2-11,8.9c-3.1,3.7-5.6,8-7.4,13c-1.8,5-2.7,10.1-2.7,15.5c0,5.5,0.9,10.6,2.7,15.5
		c1.8,4.9,4.3,9.2,7.4,12.9c3.1,3.7,6.8,6.7,11,8.9c4.2,2.2,8.7,3.4,13.5,3.4c3.7,0,7.2-0.6,10.5-1.9c3.4-1.3,6.4-3,9.2-5.3
		c2.8-2.3,5.2-5,7.3-8.2c2.1-3.2,3.6-6.7,4.5-10.5h-39v-20.6H1344.2z"/>
	<path class="st0" d="M1337.6,338.2l54-119.6h2l54,119.6h-21.9l-8.2-18.8h-49.8l-8.1,18.8H1337.6z M1377.4,299.4h30.2l-15-36.2
		L1377.4,299.4z"/>
	<path class="st0" d="M1524.2,317.9v20.3h-76.1V218.4h20.2v99.5H1524.2z"/>
</g>
<g>
	<path class="st0" d="M1686.7,338.2h-41.7V218.4h41.7c15.1,0,27.5,5,37.2,15.1c5.2,5.3,9.1,11.8,11.7,19.4c2.6,7.6,4,16.1,4,25.4
		c0,9.5-1.3,18-4,25.6c-2.6,7.6-6.6,14-11.7,19.4c-4.7,4.9-10.2,8.6-16.5,11.1C1701.1,336.9,1694.2,338.2,1686.7,338.2z
		 M1665.3,317.9h21.5c3.8,0,7.6-0.5,11.4-1.5c3.8-1,7.3-2.9,10.5-5.8c3.1-2.9,5.7-6.9,7.7-12c2-5.1,3-11.8,3-20.1c0-8.3-1-15-3-20.2
		c-2-5.2-4.6-9.2-7.8-12c-3.2-2.8-6.7-4.7-10.5-5.7c-3.8-1-7.6-1.5-11.3-1.5h-21.5V317.9z"/>
	<path class="st0" d="M1728.2,338.2l54-119.6h2l54,119.6h-21.9l-8.2-18.8h-49.8l-8.1,18.8H1728.2z M1768.1,299.4h30.2l-15-36.2
		L1768.1,299.4z"/>
	<path class="st0" d="M1914.9,317.9v20.3h-76.1V218.4h20.2v99.5H1914.9z"/>
</g>
<g>
	<path class="st0" d="M2142.9,272.7c-0.1,2.3-0.1,4.4-0.1,6.4c-0.1,1.7-0.1,3.5-0.1,5.2c0,1.7,0,3-0.1,3.8
		c-0.6,7.5-2.4,14.5-5.4,20.9c-3,6.4-6.9,12-11.7,16.6c-4.8,4.6-10.2,8.3-16.5,10.9c-6.2,2.6-12.7,3.9-19.6,3.9
		c-7.5,0-14.6-1.6-21.2-4.9c-6.6-3.3-12.5-7.7-17.4-13.3c-5-5.6-8.9-12.2-11.8-19.7c-2.9-7.5-4.4-15.5-4.4-24.1
		c0-8.5,1.5-16.6,4.4-24.1c2.9-7.6,6.9-14.2,11.8-19.8c5-5.6,10.8-10.1,17.4-13.3c6.6-3.3,13.7-4.9,21.2-4.9
		c9.5,0,18.3,2.5,26.2,7.5c7.9,5,14.4,11.7,19.3,20.1l-17.3,11.9c-3.1-5.1-7.1-9.4-12.1-12.9c-5-3.5-10.3-5.2-16.1-5.2
		c-4.8,0-9.3,1.1-13.5,3.4c-4.2,2.2-7.8,5.2-11,8.9c-3.1,3.7-5.6,8-7.4,13c-1.8,5-2.7,10.1-2.7,15.5c0,5.5,0.9,10.6,2.7,15.5
		c1.8,4.9,4.3,9.2,7.4,12.9c3.1,3.7,6.8,6.7,11,8.9c4.2,2.2,8.7,3.4,13.5,3.4c3.7,0,7.2-0.6,10.5-1.9c3.4-1.3,6.4-3,9.2-5.3
		c2.8-2.3,5.2-5,7.3-8.2c2.1-3.2,3.6-6.7,4.5-10.5h-39v-20.6H2142.9z"/>
	<path class="st0" d="M2174.5,338.2h-20.2V218.6h20.2V338.2z"/>
</g>
<g>
	<path class="st0" d="M2393,218.4v119.8h-20.2v-47.6h-52.1v47.6h-20.2V218.4h20.2v51.9h52.1v-51.9H2393z"/>
	<path class="st0" d="M2483.6,317.9v20.3h-76.1V218.4h20.2v99.5H2483.6z"/>
</g>
<g>
	<path class="st0" d="M477.1,439.6c0,2.4-0.4,5-1.3,7.7s-2,5.3-3.5,7.5c-1.5,2.3-3.3,4.2-5.4,5.8c-2.1,1.6-4.4,2.4-6.9,2.5
		c2.6,0.2,5.2,1.1,7.7,2.5c2.5,1.5,4.8,3.5,6.9,6c2,2.5,3.7,5.4,5,8.6c1.3,3.3,1.9,6.7,1.9,10.4c0,6.5-0.9,12-2.6,16.6
		c-1.7,4.5-4.1,8.2-7.1,10.9c-3,2.8-6.5,4.8-10.5,6c-4,1.2-8.3,1.8-12.8,1.8h-48.8V406.3h46.5c4.2,0,8.2,0.5,12,1.4
		c3.8,0.9,7,2.6,9.8,5.1c2.8,2.5,5,5.9,6.6,10.2C476.3,427.3,477.1,432.9,477.1,439.6z M419.9,455.1h24.8c2,0,3.8-0.4,5.3-1.3
		c1.5-0.9,2.7-2,3.8-3.5c1-1.4,1.8-3,2.3-4.9c0.5-1.8,0.8-3.6,0.8-5.3c0-1.8-0.3-3.5-0.9-5.1c-0.6-1.6-1.3-3.1-2.3-4.3
		c-1-1.2-2.1-2.2-3.4-3c-1.3-0.8-2.7-1.2-4.1-1.2h-26.3V455.1z M448.5,505.8c1.7,0,3.4-0.5,4.9-1.4c1.5-0.9,2.9-2.2,4-3.8
		c1.2-1.6,2.1-3.3,2.7-5.2c0.7-1.9,1-3.8,1-5.8c0-4-1.3-7.4-4-10.1c-2.6-2.7-6.3-4.1-10.9-4.1h-26.4v30.4H448.5z"/>
	<path class="st0" d="M569,439.6c0,2.4-0.4,5-1.3,7.7s-2,5.3-3.5,7.5c-1.5,2.3-3.3,4.2-5.4,5.8c-2.1,1.6-4.4,2.4-6.9,2.5
		c2.6,0.2,5.2,1.1,7.7,2.5c2.5,1.5,4.8,3.5,6.9,6c2,2.5,3.7,5.4,5,8.6c1.3,3.3,1.9,6.7,1.9,10.4c0,6.5-0.9,12-2.6,16.6
		c-1.7,4.5-4.1,8.2-7.1,10.9c-3,2.8-6.5,4.8-10.5,6c-4,1.2-8.3,1.8-12.8,1.8h-48.8V406.3h46.5c4.2,0,8.2,0.5,12,1.4
		c3.8,0.9,7,2.6,9.8,5.1c2.8,2.5,5,5.9,6.6,10.2C568.2,427.3,569,432.9,569,439.6z M511.9,455.1h24.8c2,0,3.8-0.4,5.3-1.3
		c1.5-0.9,2.7-2,3.8-3.5c1-1.4,1.8-3,2.3-4.9c0.5-1.8,0.8-3.6,0.8-5.3c0-1.8-0.3-3.5-0.9-5.1c-0.6-1.6-1.3-3.1-2.3-4.3
		c-1-1.2-2.1-2.2-3.4-3c-1.3-0.8-2.7-1.2-4.1-1.2h-26.3V455.1z M540.4,505.8c1.7,0,3.4-0.5,4.9-1.4c1.5-0.9,2.9-2.2,4-3.8
		c1.2-1.6,2.1-3.3,2.7-5.2c0.7-1.9,1-3.8,1-5.8c0-4-1.3-7.4-4-10.1c-2.6-2.7-6.3-4.1-10.9-4.1h-26.4v30.4H540.4z"/>
	<path class="st0" d="M659.7,505.8v20.3h-76.1V406.3h20.2v99.5H659.7z"/>
</g>
<g>
	<path class="st0" d="M865.3,439.6c0,2.4-0.4,5-1.3,7.7s-2,5.3-3.5,7.5c-1.5,2.3-3.3,4.2-5.4,5.8c-2.1,1.6-4.4,2.4-6.9,2.5
		c2.6,0.2,5.2,1.1,7.7,2.5c2.5,1.5,4.8,3.5,6.9,6c2,2.5,3.7,5.4,5,8.6c1.3,3.3,1.9,6.7,1.9,10.4c0,6.5-0.9,12-2.6,16.6
		c-1.7,4.5-4.1,8.2-7.1,10.9c-3,2.8-6.5,4.8-10.5,6c-4,1.2-8.3,1.8-12.8,1.8h-48.8V406.3h46.5c4.2,0,8.2,0.5,12,1.4
		c3.8,0.9,7,2.6,9.8,5.1c2.8,2.5,5,5.9,6.6,10.2C864.4,427.3,865.3,432.9,865.3,439.6z M808.1,455.1h24.8c2,0,3.8-0.4,5.3-1.3
		c1.5-0.9,2.7-2,3.8-3.5c1-1.4,1.8-3,2.3-4.9c0.5-1.8,0.8-3.6,0.8-5.3c0-1.8-0.3-3.5-0.9-5.1c-0.6-1.6-1.3-3.1-2.3-4.3
		c-1-1.2-2.1-2.2-3.4-3c-1.3-0.8-2.7-1.2-4.1-1.2h-26.3V455.1z M836.7,505.8c1.7,0,3.4-0.5,4.9-1.4c1.5-0.9,2.9-2.2,4-3.8
		c1.2-1.6,2.1-3.3,2.7-5.2c0.7-1.9,1-3.8,1-5.8c0-4-1.3-7.4-4-10.1c-2.6-2.7-6.3-4.1-10.9-4.1h-26.4v30.4H836.7z"/>
	<path class="st0" d="M922.8,528.2c-6.8,0-13-1.2-18.6-3.6c-5.6-2.4-10.3-5.8-14.3-10.1c-3.9-4.4-7-9.7-9.2-15.9s-3.2-13.1-3.2-20.8
		v-71.3h20.2v71.2c0,6,0.9,10.9,2.6,14.9c1.7,3.9,3.9,7,6.4,9.3c2.5,2.3,5.3,3.9,8.2,4.7c2.9,0.9,5.6,1.3,7.9,1.3
		c2.3,0,4.9-0.4,7.9-1.3c2.9-0.9,5.7-2.4,8.2-4.7c2.5-2.3,4.7-5.4,6.4-9.3c1.7-3.9,2.6-8.9,2.6-14.9v-71.2h20.2v71.3
		c0,7.6-1.1,14.6-3.2,20.8c-2.1,6.2-5.1,11.5-9.1,15.9c-3.9,4.4-8.7,7.7-14.3,10.1C936,527,929.8,528.2,922.8,528.2z"/>
</g>
<g>
	<path class="st0" d="M1153.9,528.4c-7.5,0-14.6-1.6-21.2-4.9c-6.6-3.3-12.4-7.7-17.4-13.3c-5-5.6-8.9-12.2-11.8-19.7
		c-2.9-7.5-4.3-15.6-4.3-24.2c0-8.5,1.4-16.6,4.3-24.1c2.9-7.6,6.8-14.2,11.8-19.8c5-5.6,10.8-10.1,17.4-13.3
		c6.6-3.3,13.7-4.9,21.2-4.9c7.6,0,14.7,1.6,21.4,4.9c6.6,3.3,12.4,7.7,17.4,13.3c5,5.6,8.9,12.2,11.8,19.8
		c2.9,7.6,4.3,15.6,4.3,24.1c0,8.6-1.4,16.7-4.3,24.2s-6.8,14.1-11.8,19.7c-5,5.6-10.8,10.1-17.4,13.3
		C1168.6,526.8,1161.5,528.4,1153.9,528.4z M1153.9,425.5c-4.8,0-9.3,1.1-13.5,3.4c-4.2,2.2-7.8,5.2-10.9,8.9c-3.1,3.7-5.6,8-7.4,13
		c-1.8,5-2.7,10.1-2.7,15.5c0,5.5,0.9,10.6,2.7,15.5s4.3,9.2,7.4,13c3.1,3.8,6.8,6.8,10.9,9c4.2,2.2,8.7,3.4,13.5,3.4
		c4.8,0,9.3-1.1,13.5-3.4c4.2-2.2,7.8-5.2,10.9-9c3.1-3.8,5.6-8.1,7.4-13s2.7-10.1,2.7-15.5c0-5.3-0.9-10.5-2.7-15.5
		c-1.8-5-4.3-9.3-7.4-13c-3.1-3.7-6.8-6.7-10.9-8.9C1163.2,426.6,1158.7,425.5,1153.9,425.5z"/>
	<path class="st0" d="M1299.5,409.3l-58.9,95.5h56.9v21.3h-92.4v-2.6l59-95.9h-54.6v-21.1h89.9V409.3z"/>
</g>
<g>
	<path class="st0" d="M1533.6,460.7c-0.1,2.3-0.1,4.4-0.1,6.4c-0.1,1.7-0.1,3.5-0.1,5.2c0,1.7,0,3-0.1,3.8
		c-0.6,7.5-2.4,14.5-5.4,20.9c-3,6.4-6.9,12-11.7,16.6c-4.8,4.6-10.2,8.3-16.5,10.9c-6.2,2.6-12.7,3.9-19.6,3.9
		c-7.5,0-14.6-1.6-21.2-4.9c-6.6-3.3-12.5-7.7-17.4-13.3c-5-5.6-8.9-12.2-11.8-19.7c-2.9-7.5-4.4-15.5-4.4-24.1
		c0-8.5,1.5-16.6,4.4-24.1c2.9-7.6,6.9-14.2,11.8-19.8c5-5.6,10.8-10.1,17.4-13.3c6.6-3.3,13.7-4.9,21.2-4.9
		c9.5,0,18.3,2.5,26.2,7.5c7.9,5,14.4,11.7,19.3,20.1l-17.3,11.9c-3.1-5.1-7.1-9.4-12.1-12.9c-5-3.5-10.3-5.2-16.1-5.2
		c-4.8,0-9.3,1.1-13.5,3.4c-4.2,2.2-7.8,5.2-11,8.9c-3.1,3.7-5.6,8-7.4,13c-1.8,5-2.7,10.1-2.7,15.5c0,5.5,0.9,10.6,2.7,15.5
		c1.8,4.9,4.3,9.2,7.4,12.9c3.1,3.7,6.8,6.7,11,8.9c4.2,2.2,8.7,3.4,13.5,3.4c3.7,0,7.2-0.6,10.5-1.9c3.4-1.3,6.4-3,9.2-5.3
		c2.8-2.3,5.2-5,7.3-8.2c2.1-3.2,3.6-6.7,4.5-10.5h-39v-20.6H1533.6z"/>
	<path class="st0" d="M1526.9,526.1l54-119.6h2l54,119.6H1615l-8.2-18.8H1557l-8.1,18.8H1526.9z M1566.8,487.3h30.2l-15-36.2
		L1566.8,487.3z"/>
	<path class="st0" d="M1713.6,505.8v20.3h-76.1V406.3h20.2v99.5H1713.6z"/>
</g>
<g>
	<path class="st0" d="M1876.1,526.1h-41.7V406.3h41.7c15.1,0,27.5,5,37.2,15.1c5.2,5.3,9.1,11.8,11.7,19.4c2.6,7.6,4,16.1,4,25.4
		c0,9.5-1.3,18-4,25.6c-2.6,7.6-6.6,14-11.7,19.4c-4.7,4.9-10.2,8.6-16.5,11.1C1890.5,524.8,1883.6,526.1,1876.1,526.1z
		 M1854.7,505.8h21.5c3.8,0,7.6-0.5,11.4-1.5c3.8-1,7.3-2.9,10.5-5.8c3.1-2.9,5.7-6.9,7.7-12c2-5.1,3-11.8,3-20.1c0-8.3-1-15-3-20.2
		c-2-5.2-4.6-9.2-7.8-12c-3.2-2.8-6.7-4.7-10.5-5.7c-3.8-1-7.6-1.5-11.3-1.5h-21.5V505.8z"/>
	<path class="st0" d="M1917.6,526.1l54-119.6h2l54,119.6h-21.9l-8.2-18.8h-49.8l-8.1,18.8H1917.6z M1957.4,487.3h30.2l-15-36.2
		L1957.4,487.3z"/>
	<path class="st0" d="M2104.2,505.8v20.3h-76.1V406.3h20.2v99.5H2104.2z"/>
</g>
<g>
	<path class="st0" d="M2332.2,460.7c-0.1,2.3-0.1,4.4-0.1,6.4c-0.1,1.7-0.1,3.5-0.1,5.2c0,1.7,0,3-0.1,3.8
		c-0.6,7.5-2.4,14.5-5.4,20.9c-3,6.4-6.9,12-11.7,16.6c-4.8,4.6-10.2,8.3-16.5,10.9c-6.2,2.6-12.7,3.9-19.6,3.9
		c-7.5,0-14.6-1.6-21.2-4.9c-6.6-3.3-12.5-7.7-17.4-13.3c-5-5.6-8.9-12.2-11.8-19.7c-2.9-7.5-4.4-15.5-4.4-24.1
		c0-8.5,1.5-16.6,4.4-24.1c2.9-7.6,6.9-14.2,11.8-19.8c5-5.6,10.8-10.1,17.4-13.3c6.6-3.3,13.7-4.9,21.2-4.9
		c9.5,0,18.3,2.5,26.2,7.5c7.9,5,14.4,11.7,19.3,20.1l-17.3,11.9c-3.1-5.1-7.1-9.4-12.1-12.9c-5-3.5-10.3-5.2-16.1-5.2
		c-4.8,0-9.3,1.1-13.5,3.4c-4.2,2.2-7.8,5.2-11,8.9c-3.1,3.7-5.6,8-7.4,13c-1.8,5-2.7,10.1-2.7,15.5c0,5.5,0.9,10.6,2.7,15.5
		c1.8,4.9,4.3,9.2,7.4,12.9c3.1,3.7,6.8,6.7,11,8.9c4.2,2.2,8.7,3.4,13.5,3.4c3.7,0,7.2-0.6,10.5-1.9c3.4-1.3,6.4-3,9.2-5.3
		c2.8-2.3,5.2-5,7.3-8.2c2.1-3.2,3.6-6.7,4.5-10.5h-39v-20.6H2332.2z"/>
	<path class="st0" d="M2363.8,526.1h-20.2V406.5h20.2V526.1z"/>
</g>
<g>
	<path class="st0" d="M2567.2,406.3v119.8h-17.3v-47.6h-44.5v47.6h-17.3V406.3h17.3v51.9h44.5v-51.9H2567.2z"/>
</g>
<g>
	<path class="st0" d="M675.9,625.7c0,2.4-0.4,5-1.3,7.7s-2,5.3-3.5,7.5c-1.5,2.3-3.3,4.2-5.4,5.8c-2.1,1.6-4.4,2.4-6.9,2.5
		c2.6,0.2,5.2,1.1,7.7,2.5c2.5,1.5,4.8,3.5,6.9,6c2,2.5,3.7,5.4,5,8.6c1.3,3.3,1.9,6.7,1.9,10.4c0,6.5-0.9,12-2.6,16.6
		c-1.7,4.5-4.1,8.2-7.1,10.9c-3,2.8-6.5,4.8-10.5,6c-4,1.2-8.3,1.8-12.8,1.8h-48.8V592.4H645c4.2,0,8.2,0.5,12,1.4
		c3.8,0.9,7,2.6,9.8,5.1c2.8,2.5,5,5.9,6.6,10.2C675.1,613.4,675.9,619,675.9,625.7z M618.7,641.2h24.8c2,0,3.8-0.4,5.3-1.3
		c1.5-0.9,2.7-2,3.8-3.5c1-1.4,1.8-3,2.3-4.9c0.5-1.8,0.8-3.6,0.8-5.3c0-1.8-0.3-3.5-0.9-5.1c-0.6-1.6-1.3-3.1-2.3-4.3
		c-1-1.2-2.1-2.2-3.4-3c-1.3-0.8-2.7-1.2-4.1-1.2h-26.3V641.2z M647.3,691.9c1.7,0,3.4-0.5,4.9-1.4c1.5-0.9,2.9-2.2,4-3.8
		c1.2-1.6,2.1-3.3,2.7-5.2c0.7-1.9,1-3.8,1-5.8c0-4-1.3-7.4-4-10.1c-2.6-2.7-6.3-4.1-10.9-4.1h-26.4v30.4H647.3z"/>
	<path class="st0" d="M767.8,625.7c0,2.4-0.4,5-1.3,7.7s-2,5.3-3.5,7.5c-1.5,2.3-3.3,4.2-5.4,5.8c-2.1,1.6-4.4,2.4-6.9,2.5
		c2.6,0.2,5.2,1.1,7.7,2.5c2.5,1.5,4.8,3.5,6.9,6c2,2.5,3.7,5.4,5,8.6c1.3,3.3,1.9,6.7,1.9,10.4c0,6.5-0.9,12-2.6,16.6
		c-1.7,4.5-4.1,8.2-7.1,10.9c-3,2.8-6.5,4.8-10.5,6c-4,1.2-8.3,1.8-12.8,1.8h-48.8V592.4h46.5c4.2,0,8.2,0.5,12,1.4
		c3.8,0.9,7,2.6,9.8,5.1c2.8,2.5,5,5.9,6.6,10.2C767,613.4,767.8,619,767.8,625.7z M710.7,641.2h24.8c2,0,3.8-0.4,5.3-1.3
		c1.5-0.9,2.7-2,3.8-3.5c1-1.4,1.8-3,2.3-4.9c0.5-1.8,0.8-3.6,0.8-5.3c0-1.8-0.3-3.5-0.9-5.1c-0.6-1.6-1.3-3.1-2.3-4.3
		c-1-1.2-2.1-2.2-3.4-3c-1.3-0.8-2.7-1.2-4.1-1.2h-26.3V641.2z M739.3,691.9c1.7,0,3.4-0.5,4.9-1.4c1.5-0.9,2.9-2.2,4-3.8
		c1.2-1.6,2.1-3.3,2.7-5.2c0.7-1.9,1-3.8,1-5.8c0-4-1.3-7.4-4-10.1c-2.6-2.7-6.3-4.1-10.9-4.1h-26.4v30.4H739.3z"/>
	<path class="st0" d="M858.5,691.9v20.3h-76.1V592.4h20.2v99.5H858.5z"/>
</g>
<g>
	<path class="st0" d="M1064.1,625.7c0,2.4-0.4,5-1.3,7.7s-2,5.3-3.5,7.5c-1.5,2.3-3.3,4.2-5.4,5.8c-2.1,1.6-4.4,2.4-6.9,2.5
		c2.6,0.2,5.2,1.1,7.7,2.5c2.5,1.5,4.8,3.5,6.9,6c2,2.5,3.7,5.4,5,8.6c1.3,3.3,1.9,6.7,1.9,10.4c0,6.5-0.9,12-2.6,16.6
		c-1.7,4.5-4.1,8.2-7.1,10.9c-3,2.8-6.5,4.8-10.5,6c-4,1.2-8.3,1.8-12.8,1.8h-48.8V592.4h46.5c4.2,0,8.2,0.5,12,1.4
		c3.8,0.9,7,2.6,9.8,5.1c2.8,2.5,5,5.9,6.6,10.2C1063.2,613.4,1064.1,619,1064.1,625.7z M1006.9,641.2h24.8c2,0,3.8-0.4,5.3-1.3
		c1.5-0.9,2.7-2,3.8-3.5c1-1.4,1.8-3,2.3-4.9c0.5-1.8,0.8-3.6,0.8-5.3c0-1.8-0.3-3.5-0.9-5.1c-0.6-1.6-1.3-3.1-2.3-4.3
		c-1-1.2-2.1-2.2-3.4-3c-1.3-0.8-2.7-1.2-4.1-1.2h-26.3V641.2z M1035.5,691.9c1.7,0,3.4-0.5,4.9-1.4c1.5-0.9,2.9-2.2,4-3.8
		c1.2-1.6,2.1-3.3,2.7-5.2c0.7-1.9,1-3.8,1-5.8c0-4-1.3-7.4-4-10.1c-2.6-2.7-6.3-4.1-10.9-4.1h-26.4v30.4H1035.5z"/>
	<path class="st0" d="M1121.7,714.3c-6.8,0-13-1.2-18.6-3.6c-5.6-2.4-10.3-5.8-14.3-10.1c-3.9-4.4-7-9.7-9.2-15.9
		s-3.2-13.1-3.2-20.8v-71.3h20.2v71.2c0,6,0.9,10.9,2.6,14.9c1.7,3.9,3.9,7,6.4,9.3c2.5,2.3,5.3,3.9,8.2,4.7
		c2.9,0.9,5.6,1.3,7.9,1.3c2.3,0,4.9-0.4,7.9-1.3c2.9-0.9,5.7-2.4,8.2-4.7c2.5-2.3,4.7-5.4,6.4-9.3c1.7-3.9,2.6-8.9,2.6-14.9v-71.2
		h20.2v71.3c0,7.6-1.1,14.6-3.2,20.8c-2.1,6.2-5.1,11.5-9.1,15.9c-3.9,4.4-8.7,7.7-14.3,10.1
		C1134.8,713.1,1128.6,714.3,1121.7,714.3z"/>
</g>
<g>
	<path class="st0" d="M1352.7,714.5c-7.5,0-14.6-1.6-21.2-4.9c-6.6-3.3-12.4-7.7-17.4-13.3c-5-5.6-8.9-12.2-11.8-19.7
		s-4.3-15.6-4.3-24.2c0-8.5,1.4-16.6,4.3-24.1c2.9-7.6,6.8-14.2,11.8-19.8c5-5.6,10.8-10.1,17.4-13.3c6.6-3.3,13.7-4.9,21.2-4.9
		c7.6,0,14.7,1.6,21.4,4.9c6.6,3.3,12.4,7.7,17.4,13.3c5,5.6,8.9,12.2,11.8,19.8c2.9,7.6,4.3,15.6,4.3,24.1c0,8.6-1.4,16.7-4.3,24.2
		s-6.8,14.1-11.8,19.7c-5,5.6-10.8,10.1-17.4,13.3C1367.4,712.9,1360.3,714.5,1352.7,714.5z M1352.8,611.6c-4.8,0-9.3,1.1-13.5,3.4
		c-4.2,2.2-7.8,5.2-10.9,8.9c-3.1,3.7-5.6,8-7.4,13c-1.8,5-2.7,10.1-2.7,15.5c0,5.5,0.9,10.6,2.7,15.5c1.8,4.9,4.3,9.2,7.4,13
		c3.1,3.8,6.8,6.8,10.9,9c4.2,2.2,8.7,3.4,13.5,3.4c4.8,0,9.3-1.1,13.5-3.4c4.2-2.2,7.8-5.2,10.9-9c3.1-3.8,5.6-8.1,7.4-13
		c1.8-4.9,2.7-10.1,2.7-15.5c0-5.3-0.9-10.5-2.7-15.5c-1.8-5-4.3-9.3-7.4-13c-3.1-3.7-6.8-6.7-10.9-8.9
		C1362,612.7,1357.5,611.6,1352.8,611.6z"/>
	<path class="st0" d="M1498.3,595.4l-58.9,95.5h56.9v21.3h-92.4v-2.6l59-95.9h-54.6v-21.1h89.9V595.4z"/>
</g>
<g>
	<path class="st0" d="M1732.4,646.8c-0.1,2.3-0.1,4.4-0.1,6.4c-0.1,1.7-0.1,3.5-0.1,5.2c0,1.7,0,3-0.1,3.8
		c-0.6,7.5-2.4,14.5-5.4,20.9c-3,6.4-6.9,12-11.7,16.6c-4.8,4.6-10.2,8.3-16.5,10.9c-6.2,2.6-12.7,3.9-19.6,3.9
		c-7.5,0-14.6-1.6-21.2-4.9c-6.6-3.3-12.5-7.7-17.4-13.3c-5-5.6-8.9-12.2-11.8-19.7c-2.9-7.5-4.4-15.5-4.4-24.1
		c0-8.5,1.5-16.6,4.4-24.1c2.9-7.6,6.9-14.2,11.8-19.8c5-5.6,10.8-10.1,17.4-13.3c6.6-3.3,13.7-4.9,21.2-4.9
		c9.5,0,18.3,2.5,26.2,7.5c7.9,5,14.4,11.7,19.3,20.1l-17.3,11.9c-3.1-5.1-7.1-9.4-12.1-12.9c-5-3.5-10.3-5.2-16.1-5.2
		c-4.8,0-9.3,1.1-13.5,3.4c-4.2,2.2-7.8,5.2-11,8.9c-3.1,3.7-5.6,8-7.4,13c-1.8,5-2.7,10.1-2.7,15.5c0,5.5,0.9,10.6,2.7,15.5
		c1.8,4.9,4.3,9.2,7.4,12.9c3.1,3.7,6.8,6.7,11,8.9c4.2,2.2,8.7,3.4,13.5,3.4c3.7,0,7.2-0.6,10.5-1.9c3.4-1.3,6.4-3,9.2-5.3
		c2.8-2.3,5.2-5,7.3-8.2c2.1-3.2,3.6-6.7,4.5-10.5h-39v-20.6H1732.4z"/>
	<path class="st0" d="M1725.7,712.2l54-119.6h2l54,119.6h-21.9l-8.2-18.8h-49.8l-8.1,18.8H1725.7z M1765.6,673.4h30.2l-15-36.2
		L1765.6,673.4z"/>
	<path class="st0" d="M1912.4,691.9v20.3h-76.1V592.4h20.2v99.5H1912.4z"/>
</g>
<g>
	<path class="st0" d="M2074.9,712.2h-41.7V592.4h41.7c15.1,0,27.5,5,37.2,15.1c5.2,5.3,9.1,11.8,11.7,19.4c2.6,7.6,4,16.1,4,25.4
		c0,9.5-1.3,18-4,25.6c-2.6,7.6-6.6,14-11.7,19.4c-4.7,4.9-10.2,8.6-16.5,11.1C2089.3,710.9,2082.4,712.2,2074.9,712.2z
		 M2053.5,691.9h21.5c3.8,0,7.6-0.5,11.4-1.5c3.8-1,7.3-2.9,10.5-5.8c3.1-2.9,5.7-6.9,7.7-12c2-5.1,3-11.8,3-20.1c0-8.3-1-15-3-20.2
		c-2-5.2-4.6-9.2-7.8-12c-3.2-2.8-6.7-4.7-10.5-5.7c-3.8-1-7.6-1.5-11.3-1.5h-21.5V691.9z"/>
	<path class="st0" d="M2116.4,712.2l54-119.6h2l54,119.6h-21.9l-8.2-18.8h-49.8l-8.1,18.8H2116.4z M2156.2,673.4h30.2l-15-36.2
		L2156.2,673.4z"/>
	<path class="st0" d="M2303,691.9v20.3H2227V592.4h20.2v99.5H2303z"/>
</g>
<g>
	<path class="st0" d="M2531,646.8c-0.1,2.3-0.1,4.4-0.1,6.4c-0.1,1.7-0.1,3.5-0.1,5.2c0,1.7,0,3-0.1,3.8c-0.6,7.5-2.4,14.5-5.4,20.9
		c-3,6.4-6.9,12-11.7,16.6c-4.8,4.6-10.2,8.3-16.5,10.9c-6.2,2.6-12.7,3.9-19.6,3.9c-7.5,0-14.6-1.6-21.2-4.9
		c-6.6-3.3-12.5-7.7-17.4-13.3c-5-5.6-8.9-12.2-11.8-19.7c-2.9-7.5-4.4-15.5-4.4-24.1c0-8.5,1.5-16.6,4.4-24.1
		c2.9-7.6,6.9-14.2,11.8-19.8c5-5.6,10.8-10.1,17.4-13.3c6.6-3.3,13.7-4.9,21.2-4.9c9.5,0,18.3,2.5,26.2,7.5
		c7.9,5,14.4,11.7,19.3,20.1l-17.3,11.9c-3.1-5.1-7.1-9.4-12.1-12.9c-5-3.5-10.3-5.2-16.1-5.2c-4.8,0-9.3,1.1-13.5,3.4
		c-4.2,2.2-7.8,5.2-11,8.9c-3.1,3.7-5.6,8-7.4,13c-1.8,5-2.7,10.1-2.7,15.5c0,5.5,0.9,10.6,2.7,15.5c1.8,4.9,4.3,9.2,7.4,12.9
		c3.1,3.7,6.8,6.7,11,8.9c4.2,2.2,8.7,3.4,13.5,3.4c3.7,0,7.2-0.6,10.5-1.9c3.4-1.3,6.4-3,9.2-5.3c2.8-2.3,5.2-5,7.3-8.2
		c2.1-3.2,3.6-6.7,4.5-10.5h-39v-20.6H2531z"/>
	<path class="st0" d="M2562.6,712.2h-20.2V592.6h20.2V712.2z"/>
</g>
<g>
	<path class="st0" d="M865.3,802.8c0,2.4-0.4,5-1.3,7.7s-2,5.3-3.5,7.5c-1.5,2.3-3.3,4.2-5.4,5.8c-2.1,1.6-4.4,2.4-6.9,2.5
		c2.6,0.2,5.2,1.1,7.7,2.5c2.5,1.5,4.8,3.5,6.9,6c2,2.5,3.7,5.4,5,8.6c1.3,3.3,1.9,6.7,1.9,10.4c0,6.5-0.9,12-2.6,16.6
		c-1.7,4.5-4.1,8.2-7.1,10.9c-3,2.8-6.5,4.8-10.5,6c-4,1.2-8.3,1.8-12.8,1.8h-48.8V769.5h46.5c4.2,0,8.2,0.5,12,1.4s7,2.6,9.8,5.1
		c2.8,2.5,5,5.9,6.6,10.2C864.4,790.5,865.3,796,865.3,802.8z M808.1,818.3h24.8c2,0,3.8-0.4,5.3-1.3c1.5-0.9,2.7-2,3.8-3.5
		c1-1.4,1.8-3,2.3-4.9c0.5-1.8,0.8-3.6,0.8-5.3c0-1.8-0.3-3.5-0.9-5.1c-0.6-1.6-1.3-3.1-2.3-4.3c-1-1.2-2.1-2.2-3.4-3
		c-1.3-0.8-2.7-1.2-4.1-1.2h-26.3V818.3z M836.7,869c1.7,0,3.4-0.5,4.9-1.4c1.5-0.9,2.9-2.2,4-3.8c1.2-1.6,2.1-3.3,2.7-5.2
		c0.7-1.9,1-3.8,1-5.8c0-4-1.3-7.4-4-10.1c-2.6-2.7-6.3-4.1-10.9-4.1h-26.4V869H836.7z"/>
	<path class="st0" d="M957.2,802.8c0,2.4-0.4,5-1.3,7.7s-2,5.3-3.5,7.5c-1.5,2.3-3.3,4.2-5.4,5.8c-2.1,1.6-4.4,2.4-6.9,2.5
		c2.6,0.2,5.2,1.1,7.7,2.5c2.5,1.5,4.8,3.5,6.9,6c2,2.5,3.7,5.4,5,8.6c1.3,3.3,1.9,6.7,1.9,10.4c0,6.5-0.9,12-2.6,16.6
		c-1.7,4.5-4.1,8.2-7.1,10.9c-3,2.8-6.5,4.8-10.5,6c-4,1.2-8.3,1.8-12.8,1.8h-48.8V769.5h46.5c4.2,0,8.2,0.5,12,1.4s7,2.6,9.8,5.1
		c2.8,2.5,5,5.9,6.6,10.2C956.4,790.5,957.2,796,957.2,802.8z M900,818.3h24.8c2,0,3.8-0.4,5.3-1.3c1.5-0.9,2.7-2,3.8-3.5
		c1-1.4,1.8-3,2.3-4.9c0.5-1.8,0.8-3.6,0.8-5.3c0-1.8-0.3-3.5-0.9-5.1c-0.6-1.6-1.3-3.1-2.3-4.3c-1-1.2-2.1-2.2-3.4-3
		c-1.3-0.8-2.7-1.2-4.1-1.2H900V818.3z M928.6,869c1.7,0,3.4-0.5,4.9-1.4c1.5-0.9,2.9-2.2,4-3.8c1.2-1.6,2.1-3.3,2.7-5.2
		c0.7-1.9,1-3.8,1-5.8c0-4-1.3-7.4-4-10.1c-2.6-2.7-6.3-4.1-10.9-4.1H900V869H928.6z"/>
	<path class="st0" d="M1047.8,869v20.3h-76.1V769.5H992V869H1047.8z"/>
</g>
<g>
	<path class="st0" d="M1253.4,802.8c0,2.4-0.4,5-1.3,7.7s-2,5.3-3.5,7.5c-1.5,2.3-3.3,4.2-5.4,5.8c-2.1,1.6-4.4,2.4-6.9,2.5
		c2.6,0.2,5.2,1.1,7.7,2.5c2.5,1.5,4.8,3.5,6.9,6c2,2.5,3.7,5.4,5,8.6c1.3,3.3,1.9,6.7,1.9,10.4c0,6.5-0.9,12-2.6,16.6
		c-1.7,4.5-4.1,8.2-7.1,10.9c-3,2.8-6.5,4.8-10.5,6c-4,1.2-8.3,1.8-12.8,1.8h-48.8V769.5h46.5c4.2,0,8.2,0.5,12,1.4s7,2.6,9.8,5.1
		c2.8,2.5,5,5.9,6.6,10.2C1252.6,790.5,1253.4,796,1253.4,802.8z M1196.3,818.3h24.8c2,0,3.8-0.4,5.3-1.3c1.5-0.9,2.7-2,3.8-3.5
		c1-1.4,1.8-3,2.3-4.9c0.5-1.8,0.8-3.6,0.8-5.3c0-1.8-0.3-3.5-0.9-5.1c-0.6-1.6-1.3-3.1-2.3-4.3c-1-1.2-2.1-2.2-3.4-3
		c-1.3-0.8-2.7-1.2-4.1-1.2h-26.3V818.3z M1224.9,869c1.7,0,3.4-0.5,4.9-1.4c1.5-0.9,2.9-2.2,4-3.8c1.2-1.6,2.1-3.3,2.7-5.2
		c0.7-1.9,1-3.8,1-5.8c0-4-1.3-7.4-4-10.1c-2.6-2.7-6.3-4.1-10.9-4.1h-26.4V869H1224.9z"/>
	<path class="st0" d="M1311,891.4c-6.8,0-13-1.2-18.6-3.6c-5.6-2.4-10.3-5.8-14.3-10.1c-3.9-4.4-7-9.7-9.2-15.9
		c-2.2-6.2-3.2-13.1-3.2-20.8v-71.3h20.2v71.2c0,6,0.9,10.9,2.6,14.9c1.7,3.9,3.9,7,6.4,9.3c2.5,2.3,5.3,3.9,8.2,4.7
		c2.9,0.9,5.6,1.3,7.9,1.3s4.9-0.4,7.9-1.3c2.9-0.9,5.7-2.4,8.2-4.7c2.5-2.3,4.7-5.4,6.4-9.3c1.7-3.9,2.6-8.9,2.6-14.9v-71.2h20.2
		V841c0,7.6-1.1,14.6-3.2,20.8c-2.1,6.2-5.1,11.5-9.1,15.9c-3.9,4.4-8.7,7.7-14.3,10.1C1324.2,890.2,1318,891.4,1311,891.4z"/>
</g>
<g>
	<path class="st0" d="M1542,891.6c-7.5,0-14.6-1.6-21.2-4.9c-6.6-3.3-12.4-7.7-17.4-13.3c-5-5.6-8.9-12.2-11.8-19.7
		c-2.9-7.5-4.3-15.6-4.3-24.2c0-8.5,1.4-16.6,4.3-24.1c2.9-7.6,6.8-14.2,11.8-19.8c5-5.6,10.8-10.1,17.4-13.3s13.7-4.9,21.2-4.9
		c7.6,0,14.7,1.6,21.4,4.9s12.4,7.7,17.4,13.3c5,5.6,8.9,12.2,11.8,19.8c2.9,7.6,4.3,15.6,4.3,24.1c0,8.6-1.4,16.7-4.3,24.2
		c-2.9,7.5-6.8,14.1-11.8,19.7c-5,5.6-10.8,10.1-17.4,13.3C1556.8,889.9,1549.6,891.6,1542,891.6z M1542.1,788.6
		c-4.8,0-9.3,1.1-13.5,3.4c-4.2,2.2-7.8,5.2-10.9,8.9c-3.1,3.7-5.6,8-7.4,13c-1.8,5-2.7,10.1-2.7,15.5c0,5.5,0.9,10.6,2.7,15.5
		c1.8,4.9,4.3,9.2,7.4,13c3.1,3.8,6.8,6.8,10.9,9c4.2,2.2,8.7,3.4,13.5,3.4c4.8,0,9.3-1.1,13.5-3.4c4.2-2.2,7.8-5.2,10.9-9
		c3.1-3.8,5.6-8.1,7.4-13c1.8-4.9,2.7-10.1,2.7-15.5c0-5.3-0.9-10.5-2.7-15.5c-1.8-5-4.3-9.3-7.4-13c-3.1-3.7-6.8-6.7-10.9-8.9
		C1551.4,789.8,1546.9,788.6,1542.1,788.6z"/>
	<path class="st0" d="M1687.7,772.4l-58.9,95.5h56.9v21.3h-92.4v-2.6l59-95.9h-54.6v-21.1h89.9V772.4z"/>
</g>
<g>
	<path class="st0" d="M1921.8,823.8c-0.1,2.3-0.1,4.4-0.1,6.4c-0.1,1.7-0.1,3.5-0.1,5.2c0,1.7,0,3-0.1,3.8
		c-0.6,7.5-2.4,14.5-5.4,20.9c-3,6.4-6.9,12-11.7,16.6c-4.8,4.6-10.2,8.3-16.5,10.9c-6.2,2.6-12.7,3.9-19.6,3.9
		c-7.5,0-14.6-1.6-21.2-4.9c-6.6-3.3-12.5-7.7-17.4-13.3c-5-5.6-8.9-12.2-11.8-19.7c-2.9-7.5-4.4-15.5-4.4-24.1s1.5-16.5,4.4-24.1
		c2.9-7.6,6.9-14.2,11.8-19.8c5-5.6,10.8-10.1,17.4-13.3c6.6-3.3,13.7-4.9,21.2-4.9c9.5,0,18.3,2.5,26.2,7.5
		c7.9,5,14.4,11.7,19.3,20.1l-17.3,11.9c-3.1-5.1-7.1-9.4-12.1-12.9c-5-3.5-10.3-5.2-16.1-5.2c-4.8,0-9.3,1.1-13.5,3.4
		c-4.2,2.2-7.8,5.2-11,8.9c-3.1,3.7-5.6,8-7.4,13c-1.8,5-2.7,10.1-2.7,15.5c0,5.5,0.9,10.6,2.7,15.5c1.8,4.9,4.3,9.2,7.4,12.9
		c3.1,3.7,6.8,6.7,11,8.9c4.2,2.2,8.7,3.4,13.5,3.4c3.7,0,7.2-0.6,10.5-1.9c3.4-1.3,6.4-3,9.2-5.3c2.8-2.3,5.2-5,7.3-8.2
		c2.1-3.2,3.6-6.7,4.5-10.5h-39v-20.6H1921.8z"/>
	<path class="st0" d="M1915.1,889.3l54-119.6h2l54,119.6h-21.9l-8.2-18.8h-49.8l-8.1,18.8H1915.1z M1954.9,850.5h30.2l-15-36.2
		L1954.9,850.5z"/>
	<path class="st0" d="M2101.7,869v20.3h-76.1V769.5h20.2V869H2101.7z"/>
</g>
<g>
	<path class="st0" d="M2264.3,889.3h-41.7V769.5h41.7c15.1,0,27.5,5,37.2,15.1c5.2,5.3,9.1,11.8,11.7,19.4c2.6,7.6,4,16.1,4,25.4
		c0,9.5-1.3,18-4,25.6c-2.6,7.6-6.6,14-11.7,19.4c-4.7,4.9-10.2,8.6-16.5,11.1C2278.7,888,2271.8,889.3,2264.3,889.3z M2242.8,869
		h21.5c3.8,0,7.6-0.5,11.4-1.5c3.8-1,7.3-2.9,10.5-5.8c3.1-2.9,5.7-6.9,7.7-12c2-5.1,3-11.8,3-20.1c0-8.3-1-15-3-20.2
		c-2-5.2-4.6-9.2-7.8-12c-3.2-2.8-6.7-4.7-10.5-5.7c-3.8-1-7.6-1.5-11.3-1.5h-21.5V869z"/>
	<path class="st0" d="M2305.8,889.3l54-119.6h2l54,119.6h-21.9l-8.2-18.8h-49.8l-8.1,18.8H2305.8z M2345.6,850.5h30.2l-15-36.2
		L2345.6,850.5z"/>
	<path class="st0" d="M2492.4,869v20.3h-76.1V769.5h20.2V869H2492.4z"/>
</g>
<g>
	<path class="st0" d="M1064.1,979.9c0,2.4-0.4,5-1.3,7.7s-2,5.3-3.5,7.5c-1.5,2.3-3.3,4.2-5.4,5.8c-2.1,1.6-4.4,2.4-6.9,2.5
		c2.6,0.2,5.2,1.1,7.7,2.5c2.5,1.5,4.8,3.5,6.9,6c2,2.5,3.7,5.4,5,8.6c1.3,3.3,1.9,6.7,1.9,10.4c0,6.5-0.9,12-2.6,16.6
		c-1.7,4.5-4.1,8.2-7.1,10.9c-3,2.8-6.5,4.8-10.5,6c-4,1.2-8.3,1.8-12.8,1.8h-48.8V946.6h46.5c4.2,0,8.2,0.5,12,1.4s7,2.6,9.8,5.1
		c2.8,2.5,5,5.9,6.6,10.2C1063.2,967.5,1064.1,973.1,1064.1,979.9z M1006.9,995.3h24.8c2,0,3.8-0.4,5.3-1.3c1.5-0.9,2.7-2,3.8-3.5
		c1-1.4,1.8-3,2.3-4.9c0.5-1.8,0.8-3.6,0.8-5.3c0-1.8-0.3-3.5-0.9-5.1c-0.6-1.6-1.3-3.1-2.3-4.3c-1-1.2-2.1-2.2-3.4-3
		c-1.3-0.8-2.7-1.2-4.1-1.2h-26.3V995.3z M1035.5,1046c1.7,0,3.4-0.5,4.9-1.4c1.5-0.9,2.9-2.2,4-3.8c1.2-1.6,2.1-3.3,2.7-5.2
		c0.7-1.9,1-3.8,1-5.8c0-4-1.3-7.4-4-10.1c-2.6-2.7-6.3-4.1-10.9-4.1h-26.4v30.4H1035.5z"/>
	<path class="st0" d="M1156,979.9c0,2.4-0.4,5-1.3,7.7s-2,5.3-3.5,7.5c-1.5,2.3-3.3,4.2-5.4,5.8c-2.1,1.6-4.4,2.4-6.9,2.5
		c2.6,0.2,5.2,1.1,7.7,2.5c2.5,1.5,4.8,3.5,6.9,6c2,2.5,3.7,5.4,5,8.6c1.3,3.3,1.9,6.7,1.9,10.4c0,6.5-0.9,12-2.6,16.6
		c-1.7,4.5-4.1,8.2-7.1,10.9c-3,2.8-6.5,4.8-10.5,6c-4,1.2-8.3,1.8-12.8,1.8h-48.8V946.6h46.5c4.2,0,8.2,0.5,12,1.4s7,2.6,9.8,5.1
		c2.8,2.5,5,5.9,6.6,10.2C1155.2,967.5,1156,973.1,1156,979.9z M1098.8,995.3h24.8c2,0,3.8-0.4,5.3-1.3c1.5-0.9,2.7-2,3.8-3.5
		c1-1.4,1.8-3,2.3-4.9c0.5-1.8,0.8-3.6,0.8-5.3c0-1.8-0.3-3.5-0.9-5.1c-0.6-1.6-1.3-3.1-2.3-4.3c-1-1.2-2.1-2.2-3.4-3
		c-1.3-0.8-2.7-1.2-4.1-1.2h-26.3V995.3z M1127.4,1046c1.7,0,3.4-0.5,4.9-1.4c1.5-0.9,2.9-2.2,4-3.8c1.2-1.6,2.1-3.3,2.7-5.2
		c0.7-1.9,1-3.8,1-5.8c0-4-1.3-7.4-4-10.1c-2.6-2.7-6.3-4.1-10.9-4.1h-26.4v30.4H1127.4z"/>
	<path class="st0" d="M1246.6,1046v20.3h-76.1V946.6h20.2v99.5H1246.6z"/>
</g>
<g>
	<path class="st0" d="M1452.2,979.9c0,2.4-0.4,5-1.3,7.7s-2,5.3-3.5,7.5c-1.5,2.3-3.3,4.2-5.4,5.8c-2.1,1.6-4.4,2.4-6.9,2.5
		c2.6,0.2,5.2,1.1,7.7,2.5c2.5,1.5,4.8,3.5,6.9,6c2,2.5,3.7,5.4,5,8.6c1.3,3.3,1.9,6.7,1.9,10.4c0,6.5-0.9,12-2.6,16.6
		c-1.7,4.5-4.1,8.2-7.1,10.9c-3,2.8-6.5,4.8-10.5,6c-4,1.2-8.3,1.8-12.8,1.8h-48.8V946.6h46.5c4.2,0,8.2,0.5,12,1.4s7,2.6,9.8,5.1
		c2.8,2.5,5,5.9,6.6,10.2C1451.4,967.5,1452.2,973.1,1452.2,979.9z M1395.1,995.3h24.8c2,0,3.8-0.4,5.3-1.3c1.5-0.9,2.7-2,3.8-3.5
		c1-1.4,1.8-3,2.3-4.9c0.5-1.8,0.8-3.6,0.8-5.3c0-1.8-0.3-3.5-0.9-5.1c-0.6-1.6-1.3-3.1-2.3-4.3c-1-1.2-2.1-2.2-3.4-3
		c-1.3-0.8-2.7-1.2-4.1-1.2h-26.3V995.3z M1423.7,1046c1.7,0,3.4-0.5,4.9-1.4c1.5-0.9,2.9-2.2,4-3.8c1.2-1.6,2.1-3.3,2.7-5.2
		c0.7-1.9,1-3.8,1-5.8c0-4-1.3-7.4-4-10.1c-2.6-2.7-6.3-4.1-10.9-4.1h-26.4v30.4H1423.7z"/>
	<path class="st0" d="M1509.8,1068.5c-6.8,0-13-1.2-18.6-3.6c-5.6-2.4-10.3-5.8-14.3-10.1c-3.9-4.4-7-9.7-9.2-15.9
		c-2.2-6.2-3.2-13.1-3.2-20.8v-71.3h20.2v71.2c0,6,0.9,10.9,2.6,14.9c1.7,3.9,3.9,7,6.4,9.3c2.5,2.3,5.3,3.9,8.2,4.7
		c2.9,0.9,5.6,1.3,7.9,1.3s4.9-0.4,7.9-1.3c2.9-0.9,5.7-2.4,8.2-4.7c2.5-2.3,4.7-5.4,6.4-9.3c1.7-3.9,2.6-8.9,2.6-14.9v-71.2h20.2
		v71.3c0,7.6-1.1,14.6-3.2,20.8c-2.1,6.2-5.1,11.5-9.1,15.9c-3.9,4.4-8.7,7.7-14.3,10.1C1523,1067.3,1516.8,1068.5,1509.8,1068.5z"
		/>
</g>
<g>
	<path class="st0" d="M1740.9,1068.6c-7.5,0-14.6-1.6-21.2-4.9c-6.6-3.3-12.4-7.7-17.4-13.3c-5-5.6-8.9-12.2-11.8-19.7
		c-2.9-7.5-4.3-15.6-4.3-24.2c0-8.5,1.4-16.6,4.3-24.1c2.9-7.6,6.8-14.2,11.8-19.8c5-5.6,10.8-10.1,17.4-13.3s13.7-4.9,21.2-4.9
		c7.6,0,14.7,1.6,21.4,4.9s12.4,7.7,17.4,13.3c5,5.6,8.9,12.2,11.8,19.8c2.9,7.6,4.3,15.6,4.3,24.1c0,8.6-1.4,16.7-4.3,24.2
		c-2.9,7.5-6.8,14.1-11.8,19.7c-5,5.6-10.8,10.1-17.4,13.3C1755.6,1067,1748.5,1068.6,1740.9,1068.6z M1740.9,965.7
		c-4.8,0-9.3,1.1-13.5,3.4c-4.2,2.2-7.8,5.2-10.9,8.9c-3.1,3.7-5.6,8-7.4,13c-1.8,5-2.7,10.1-2.7,15.5c0,5.5,0.9,10.6,2.7,15.5
		c1.8,4.9,4.3,9.2,7.4,13c3.1,3.8,6.8,6.8,10.9,9c4.2,2.2,8.7,3.4,13.5,3.4c4.8,0,9.3-1.1,13.5-3.4c4.2-2.2,7.8-5.2,10.9-9
		c3.1-3.8,5.6-8.1,7.4-13c1.8-4.9,2.7-10.1,2.7-15.5c0-5.3-0.9-10.5-2.7-15.5c-1.8-5-4.3-9.3-7.4-13c-3.1-3.7-6.8-6.7-10.9-8.9
		C1750.2,966.8,1745.7,965.7,1740.9,965.7z"/>
	<path class="st0" d="M1886.5,949.5l-58.9,95.5h56.9v21.3h-92.4v-2.6l59-95.9h-54.6v-21.1h89.9V949.5z"/>
</g>
<g>
	<path class="st0" d="M2120.6,1000.9c-0.1,2.3-0.1,4.4-0.1,6.4c-0.1,1.7-0.1,3.5-0.1,5.2c0,1.7,0,3-0.1,3.8
		c-0.6,7.5-2.4,14.5-5.4,20.9c-3,6.4-6.9,12-11.7,16.6c-4.8,4.6-10.2,8.3-16.5,10.9c-6.2,2.6-12.7,3.9-19.6,3.9
		c-7.5,0-14.6-1.6-21.2-4.9c-6.6-3.3-12.5-7.7-17.4-13.3c-5-5.6-8.9-12.2-11.8-19.7c-2.9-7.5-4.4-15.5-4.4-24.1s1.5-16.5,4.4-24.1
		c2.9-7.6,6.9-14.2,11.8-19.8c5-5.6,10.8-10.1,17.4-13.3c6.6-3.3,13.7-4.9,21.2-4.9c9.5,0,18.3,2.5,26.2,7.5
		c7.9,5,14.4,11.7,19.3,20.1l-17.3,11.9c-3.1-5.1-7.1-9.4-12.1-12.9c-5-3.5-10.3-5.2-16.1-5.2c-4.8,0-9.3,1.1-13.5,3.4
		c-4.2,2.2-7.8,5.2-11,8.9c-3.1,3.7-5.6,8-7.4,13c-1.8,5-2.7,10.1-2.7,15.5c0,5.5,0.9,10.6,2.7,15.5c1.8,4.9,4.3,9.2,7.4,12.9
		c3.1,3.7,6.8,6.7,11,8.9c4.2,2.2,8.7,3.4,13.5,3.4c3.7,0,7.2-0.6,10.5-1.9c3.4-1.3,6.4-3,9.2-5.3c2.8-2.3,5.2-5,7.3-8.2
		c2.1-3.2,3.6-6.7,4.5-10.5h-39v-20.6H2120.6z"/>
	<path class="st0" d="M2113.9,1066.3l54-119.6h2l54,119.6H2202l-8.2-18.8h-49.8l-8.1,18.8H2113.9z M2153.8,1027.6h30.2l-15-36.2
		L2153.8,1027.6z"/>
	<path class="st0" d="M2300.5,1046v20.3h-76.1V946.6h20.2v99.5H2300.5z"/>
</g>
<g>
	<path class="st0" d="M2451.4,1066.3h-32.5V946.6h32.5c11.8,0,21.5,5,29.1,15.1c4.1,5.3,7.1,11.8,9.2,19.4
		c2.1,7.6,3.1,16.1,3.1,25.4c0,9.5-1,18-3.1,25.6c-2.1,7.6-5.1,14-9.2,19.4c-3.7,4.9-8,8.6-12.9,11.1
		C2462.7,1065.1,2457.3,1066.3,2451.4,1066.3z M2434.7,1046h16.8c2.9,0,5.9-0.5,8.9-1.5c3-1,5.7-2.9,8.2-5.8c2.4-2.9,4.5-6.9,6-12
		c1.6-5.1,2.4-11.8,2.4-20.1c0-8.3-0.8-15-2.4-20.2c-1.6-5.2-3.6-9.2-6.1-12c-2.5-2.8-5.2-4.7-8.2-5.7c-3-1-5.9-1.5-8.8-1.5h-16.8
		V1046z"/>
	<path class="st0" d="M2483.9,1066.3l42.2-119.6h1.6l42.2,119.6h-17.1l-6.4-18.8h-38.9l-6.3,18.8H2483.9z M2515,1027.6h23.6
		l-11.7-36.2L2515,1027.6z"/>
</g>
<g>
	<path class="st0" d="M118.6,406.3c5.2,0,10.1,1.1,14.7,3.4c4.6,2.2,8.5,5.3,11.9,9.1c3.4,3.8,6,8.3,8,13.5c2,5.2,3,10.7,3,16.6
		s-0.9,11.3-2.6,16.4c-1.7,5-4.3,9.4-7.6,13.2c-3.4,3.8-7.6,6.7-12.8,8.8c-5.1,2.1-11.1,3.2-17.8,3.2H91.8v35.7H71.5V406.3H118.6z
		 M118.6,469.8c3,0,5.6-0.6,7.8-1.7c2.2-1.1,4-2.7,5.4-4.7c1.4-2,2.4-4.2,3.1-6.7c0.7-2.5,1-5.1,1-7.9c0-2.7-0.4-5.4-1.3-8.1
		c-0.9-2.7-2.1-5-3.8-7.1c-1.6-2.1-3.7-3.8-6.1-5.1c-2.4-1.3-5.2-2-8.4-2H91.8v43.2H118.6z"/>
	<path class="st0" d="M225.6,526.1l-44.3-54.5v54.5H161V406.3h20.2v60.9l42-60.7h24.8l-43.4,61.8l47.6,57.8H225.6z"/>
</g>
<g>
	<path class="st0" d="M317.4,592.4c5.2,0,10.1,1.1,14.7,3.4c4.6,2.2,8.5,5.3,11.9,9.1c3.4,3.8,6,8.3,8,13.5c2,5.2,3,10.7,3,16.6
		s-0.9,11.3-2.6,16.4c-1.7,5-4.3,9.4-7.6,13.2c-3.4,3.8-7.6,6.7-12.8,8.8c-5.1,2.1-11.1,3.2-17.8,3.2h-23.5v35.7h-20.2V592.4H317.4z
		 M317.4,655.9c3,0,5.6-0.6,7.8-1.7c2.2-1.1,4-2.7,5.4-4.7c1.4-2,2.4-4.2,3.1-6.7c0.7-2.5,1-5.1,1-7.9c0-2.7-0.4-5.4-1.3-8.1
		c-0.9-2.7-2.1-5-3.8-7.1c-1.6-2.1-3.7-3.8-6.1-5.1c-2.4-1.3-5.2-2-8.4-2h-24.7v43.2H317.4z"/>
	<path class="st0" d="M424.4,712.2L380,657.7v54.5h-20.2V592.4H380v60.9l42-60.7h24.8l-43.4,61.8l47.6,57.8H424.4z"/>
</g>
<g>
	<path class="st0" d="M506.8,769.5c5.2,0,10.1,1.1,14.7,3.4c4.6,2.2,8.5,5.3,11.9,9.1c3.4,3.8,6,8.3,8,13.5c2,5.2,3,10.7,3,16.6
		c0,5.9-0.9,11.3-2.6,16.4c-1.7,5-4.3,9.4-7.6,13.2c-3.4,3.8-7.6,6.7-12.8,8.8c-5.1,2.1-11.1,3.2-17.8,3.2h-23.5v35.7h-20.2V769.5
		H506.8z M506.8,833c3,0,5.6-0.6,7.8-1.7c2.2-1.1,4-2.7,5.4-4.7c1.4-2,2.4-4.2,3.1-6.7c0.7-2.5,1-5.1,1-7.9c0-2.7-0.4-5.4-1.3-8.1
		c-0.9-2.7-2.1-5-3.8-7.1c-1.6-2.1-3.7-3.8-6.1-5.1c-2.4-1.3-5.2-2-8.4-2h-24.7V833H506.8z"/>
	<path class="st0" d="M613.7,889.3l-44.3-54.5v54.5h-20.2V769.5h20.2v60.9l42-60.7h24.8l-43.4,61.8l47.6,57.8H613.7z"/>
</g>
<g>
	<path class="st0" d="M705.6,946.6c5.2,0,10.1,1.1,14.7,3.4c4.6,2.2,8.5,5.3,11.9,9.1c3.4,3.8,6,8.3,8,13.5c2,5.2,3,10.7,3,16.6
		c0,5.9-0.9,11.3-2.6,16.4c-1.7,5-4.3,9.4-7.6,13.2c-3.4,3.8-7.6,6.7-12.8,8.8c-5.1,2.1-11.1,3.2-17.8,3.2h-23.5v35.7h-20.2V946.6
		H705.6z M705.6,1010.1c3,0,5.6-0.6,7.8-1.7c2.2-1.1,4-2.7,5.4-4.7c1.4-2,2.4-4.2,3.1-6.7c0.7-2.5,1-5.1,1-7.9
		c0-2.7-0.4-5.4-1.3-8.1c-0.9-2.7-2.1-5-3.8-7.1c-1.6-2.1-3.7-3.8-6.1-5.1c-2.4-1.3-5.2-2-8.4-2h-24.7v43.2H705.6z"/>
	<path class="st0" d="M812.5,1066.3l-44.3-54.5v54.5H748V946.6h20.2v60.9l42-60.7H835l-43.4,61.8l47.6,57.8H812.5z"/>
</g>
<g>
	<path class="st0" d="M87.5,612.7H57.3v99.5H37.1v-99.5H6.8v-20.3h80.7V612.7z"/>
</g>
<g>
	<path class="st0" d="M175.9,868.3v21.1h-52.5c-9.8,0-18.3-1.6-25.5-4.8c-7.2-3.2-13.1-7.6-17.8-13.1c-4.7-5.5-8.2-12-10.5-19.4
		c-2.3-7.4-3.4-15.3-3.4-23.7c0-8.4,1.4-16.3,4.3-23.7c2.8-7.4,6.7-13.9,11.5-19.4c4.9-5.5,10.5-9.9,17-13.1
		c6.5-3.2,13.4-4.8,20.9-4.8c7.4,0,14.4,1.6,20.9,4.8c6.5,3.2,12.2,7.6,17.1,13.1c4.9,5.5,8.7,12,11.5,19.4
		c2.8,7.4,4.3,15.3,4.3,23.7c0,3.6-0.4,7.3-1.1,11.1c-0.7,3.8-1.9,7.5-3.5,11.1c-1.6,3.6-3.7,6.9-6.3,10c-2.6,3.1-5.7,5.6-9.5,7.7
		H175.9z M86.4,828.4c0,5.2,0.9,10.2,2.7,14.9c1.8,4.7,4.2,8.8,7.2,12.4c3,3.5,6.6,6.4,10.7,8.4c4.1,2.1,8.4,3.1,13,3.1
		c4.6,0,9-1,13-3.1c4.1-2.1,7.6-4.9,10.7-8.4c3-3.5,5.4-7.7,7.2-12.4c1.8-4.7,2.7-9.7,2.7-14.9c0-5.2-0.9-10.2-2.7-15
		c-1.8-4.7-4.2-8.9-7.2-12.4c-3-3.5-6.6-6.3-10.7-8.3c-4.1-2.1-8.4-3.1-13-3.1c-4.6,0-9,1-13,3.1c-4.1,2.1-7.6,4.9-10.7,8.3
		c-3,3.5-5.4,7.6-7.2,12.4C87.3,818.2,86.4,823.2,86.4,828.4z"/>
	<path class="st0" d="M251,789.8h-30.2v99.5h-20.2v-99.5h-30.3v-20.3H251V789.8z"/>
</g>
<g>
	<path class="st0" d="M374.7,1045.4v21.1h-52.5c-9.8,0-18.3-1.6-25.5-4.8c-7.2-3.2-13.1-7.6-17.8-13.1c-4.7-5.5-8.2-12-10.5-19.4
		c-2.3-7.4-3.4-15.3-3.4-23.7c0-8.4,1.4-16.3,4.3-23.7c2.8-7.4,6.7-13.9,11.5-19.4c4.9-5.5,10.5-9.9,17-13.1
		c6.5-3.2,13.4-4.8,20.9-4.8c7.4,0,14.4,1.6,20.9,4.8c6.5,3.2,12.2,7.6,17.1,13.1c4.9,5.5,8.7,12,11.5,19.4
		c2.8,7.4,4.3,15.3,4.3,23.7c0,3.6-0.4,7.3-1.1,11.1c-0.7,3.8-1.9,7.5-3.5,11.1c-1.6,3.6-3.7,6.9-6.3,10c-2.6,3.1-5.7,5.6-9.5,7.7
		H374.7z M285.2,1005.5c0,5.2,0.9,10.2,2.7,14.9c1.8,4.7,4.2,8.8,7.2,12.4c3,3.5,6.6,6.4,10.7,8.4c4.1,2.1,8.4,3.1,13,3.1
		c4.6,0,9-1,13-3.1c4.1-2.1,7.6-4.9,10.7-8.4c3-3.5,5.4-7.7,7.2-12.4c1.8-4.7,2.7-9.7,2.7-14.9c0-5.2-0.9-10.2-2.7-15
		c-1.8-4.7-4.2-8.9-7.2-12.4c-3-3.5-6.6-6.3-10.7-8.3c-4.1-2.1-8.4-3.1-13-3.1c-4.6,0-9,1-13,3.1c-4.1,2.1-7.6,4.9-10.7,8.3
		c-3,3.5-5.4,7.6-7.2,12.4C286.1,995.2,285.2,1000.2,285.2,1005.5z"/>
	<path class="st0" d="M449.8,966.9h-30.2v99.5h-20.2v-99.5h-30.3v-20.3h80.7V966.9z"/>
</g>
</svg>
